<svg width="50" height="32" viewBox="0 0 50 32" fill="none" xmlns="http://www.w3.org/2000/svg">
<path opacity="0.07" d="M45.4646 0H3.89697C1.68869 0 0 1.68869 0 3.89697V27.2788C0 29.4871 1.81859 31.1757 3.89697 31.1757H45.4646C47.6729 31.1757 49.3616 29.4871 49.3616 27.2788V3.89697C49.3616 1.68869 47.543 0 45.4646 0Z" fill="white"/>
<path d="M45.4664 1.29883C46.8953 1.29883 48.0644 2.46792 48.0644 3.89681V27.2786C48.0644 28.7075 46.8953 29.8766 45.4664 29.8766H3.89876C2.46987 29.8766 1.30078 28.7075 1.30078 27.2786V3.89681C1.30078 2.46792 2.46987 1.29883 3.89876 1.29883H45.4664Z" fill="#006FCF"/>
<path d="M28.5938 25.8978V14.959L48.063 14.9759V17.9973L45.8132 20.403L48.063 22.8283V25.9134H44.47L42.5605 23.8064L40.664 25.9212L28.5938 25.8952V25.8978Z" fill="white"/>
<path d="M29.8945 24.6945V16.1602H37.1325V18.1255H32.2379V19.4609H37.0156V21.3938H32.2379V22.7058H37.1325V24.6945H29.8945Z" fill="#006FCF"/>
<path d="M37.0938 24.6958L41.0985 20.4234L37.0938 16.1602H40.1931L42.6404 18.866L45.0955 16.1615H48.0611V16.2277L44.1421 20.4234L48.0611 24.5763V24.6971H45.0644L42.5742 21.9653L40.1087 24.6984H37.0938V24.6958Z" fill="#006FCF"/>
<path d="M29.4989 5.24609H34.1935L35.8419 8.98848V5.24609H41.6354L42.6356 8.05061L43.6371 5.24609H48.0615V16.1849H24.6797L29.4989 5.24609Z" fill="white"/>
<path d="M30.3894 6.4375L26.6016 14.9667H29.1995L29.914 13.2585H33.785L34.4994 14.9667H37.1623L33.3901 6.4375H30.3894ZM30.7142 11.3438L31.8508 8.6289L32.9848 11.3438H30.7142Z" fill="#006FCF"/>
<path d="M37.125 14.9641V6.43359L40.7765 6.44658L42.6574 11.6906L44.5487 6.43489H48.0612V14.9628L45.8009 14.9835V9.1251L43.6654 14.9628H41.6L39.4229 9.10561V14.9641H37.1263H37.125Z" fill="#006FCF"/>
</svg>
