<svg width="50" height="32" viewBox="0 0 50 32" fill="none" xmlns="http://www.w3.org/2000/svg">
<path opacity="0.07" d="M45.4646 0H3.89697C1.68869 0 0 1.68869 0 3.89697V27.2788C0 29.4871 1.81859 31.1757 3.89697 31.1757H45.4646C47.6729 31.1757 49.3616 29.4871 49.3616 27.2788V3.89697C49.3616 1.68869 47.543 0 45.4646 0Z" fill="white"/>
<path d="M45.4625 1.29883C46.8914 1.29883 48.0605 2.46792 48.0605 3.89681V27.2786C48.0605 28.7075 46.8914 29.8766 45.4625 29.8766H3.89485C2.46597 29.8766 1.29688 28.7075 1.29688 27.2786V3.89681C1.29688 2.46792 2.46597 1.29883 3.89485 1.29883H45.4625Z" fill="white"/>
<path d="M4.63707 9.30041H2.59766V16.4449H4.63707C5.71523 16.4449 6.49462 16.1851 7.18309 15.6265C8.00145 14.951 8.48208 13.9378 8.48208 12.8856C8.46909 10.7683 6.89731 9.30041 4.63707 9.30041ZM6.2738 14.6782C5.83214 15.0679 5.27357 15.2498 4.36428 15.2498H3.98757V10.5215H4.36428C5.26058 10.5215 5.80616 10.6773 6.2738 11.093C6.75442 11.5217 7.0402 12.1842 7.0402 12.8726C7.0402 13.5611 6.75442 14.2496 6.2738 14.6782ZM9.11858 9.30041H10.5085V16.4449H9.11858V9.30041ZM13.9119 12.0413C13.0805 11.7295 12.8337 11.5217 12.8337 11.145C12.8337 10.6903 13.2753 10.3526 13.8729 10.3526C14.2886 10.3526 14.6393 10.5215 14.99 10.9371L15.7174 9.98887C15.1199 9.46928 14.4055 9.19649 13.6131 9.19649C12.3531 9.19649 11.3788 10.0798 11.3788 11.2489C11.3788 12.2361 11.8335 12.7427 13.1325 13.2104C13.678 13.4052 13.9508 13.5351 14.0937 13.6131C14.3665 13.7949 14.5094 14.0547 14.5094 14.3535C14.5094 14.938 14.0547 15.3667 13.4312 15.3667C12.7687 15.3667 12.2362 15.029 11.9114 14.4184L11.0151 15.2888C11.6516 16.237 12.431 16.6527 13.4832 16.6527C14.9251 16.6527 15.9513 15.6914 15.9513 14.3015C15.9772 13.1454 15.4966 12.6258 13.9119 12.0413ZM16.4059 12.8856C16.4059 14.99 18.0556 16.6137 20.173 16.6137C20.7705 16.6137 21.2901 16.4968 21.9136 16.198V14.5613C21.3551 15.1199 20.8614 15.3407 20.2379 15.3407C18.835 15.3407 17.8348 14.3275 17.8348 12.8726C17.8348 11.4957 18.861 10.4175 20.173 10.4175C20.8355 10.4175 21.3421 10.6514 21.9136 11.2229V9.58619C21.3031 9.27443 20.7965 9.14453 20.199 9.14453C18.1076 9.14453 16.4059 10.8072 16.4059 12.8856ZM32.981 14.1067L31.0715 9.30041H29.5517L32.5783 16.6267H33.3317L36.4103 9.30041H34.9035L32.981 14.1067ZM37.0469 16.4449H40.9958V15.2368H38.4368V13.3143H40.9049V12.1062H38.4368V10.5215H40.9958V9.30041H37.0469V16.4449ZM46.5165 11.4178C46.5165 10.0798 45.5942 9.3134 43.9835 9.3134H41.9181V16.4578H43.308V13.5871H43.4898L45.4123 16.4578H47.127L44.8798 13.4442C45.9319 13.2234 46.5165 12.5089 46.5165 11.4178ZM43.7107 12.5998H43.308V10.4305H43.7366C44.607 10.4305 45.0746 10.7942 45.0746 11.4957C45.0746 12.2101 44.607 12.5998 43.7107 12.5998Z" fill="white"/>
<path d="M26.1862 16.7045C27.196 16.7045 28.1644 16.3034 28.8784 15.5894C29.5925 14.8754 29.9936 13.9069 29.9936 12.8972C29.9936 11.8874 29.5925 10.919 28.8784 10.205C28.1644 9.49097 27.196 9.08984 26.1862 9.08984C25.1765 9.08984 24.2081 9.49097 23.494 10.205C22.78 10.919 22.3789 11.8874 22.3789 12.8972C22.3789 13.9069 22.78 14.8754 23.494 15.5894C24.2081 16.3034 25.1765 16.7045 26.1862 16.7045Z" fill="url(#paint0_linear_1879_1834)"/>
<path opacity="0.65" d="M26.1862 16.7045C27.196 16.7045 28.1644 16.3034 28.8784 15.5894C29.5925 14.8754 29.9936 13.9069 29.9936 12.8972C29.9936 11.8874 29.5925 10.919 28.8784 10.205C28.1644 9.49097 27.196 9.08984 26.1862 9.08984C25.1765 9.08984 24.2081 9.49097 23.494 10.205C22.78 10.919 22.3789 11.8874 22.3789 12.8972C22.3789 13.9069 22.78 14.8754 23.494 15.5894C24.2081 16.3034 25.1765 16.7045 26.1862 16.7045Z" fill="url(#paint1_linear_1879_1834)"/>
<path d="M47.5042 9.74954C47.5042 9.61964 47.4132 9.55469 47.2703 9.55469H47.0625V10.1782H47.2184V9.93139L47.4002 10.1782H47.5821L47.3743 9.9184C47.4522 9.90541 47.5042 9.84047 47.5042 9.74954ZM47.2444 9.84047H47.2184V9.6716H47.2444C47.3223 9.6716 47.3613 9.69758 47.3613 9.74954C47.3613 9.81449 47.3223 9.84047 47.2444 9.84047Z" fill="white"/>
<path d="M47.2956 9.32031C46.9968 9.32031 46.75 9.56712 46.75 9.86589C46.75 10.1647 46.9968 10.4115 47.2956 10.4115C47.5943 10.4115 47.8412 10.1647 47.8412 9.86589C47.8412 9.56712 47.5943 9.32031 47.2956 9.32031ZM47.2956 10.3205C47.0618 10.3205 46.8539 10.1257 46.8539 9.86589C46.8539 9.61908 47.0488 9.41124 47.2956 9.41124C47.5294 9.41124 47.7242 9.61908 47.7242 9.86589C47.7242 10.1127 47.5294 10.3205 47.2956 10.3205Z" fill="white"/>
<path d="M48.063 16.8672C48.063 16.8672 35.19 25.8159 11.6602 29.8779H45.4638C46.1492 29.8779 46.8069 29.607 47.2935 29.1243C47.7801 28.6416 48.0563 27.9861 48.0617 27.3007L48.0929 23.3777L48.063 16.8672Z" fill="#F48120"/>
<defs>
<linearGradient id="paint0_linear_1879_1834" x1="28.1308" y1="15.9446" x2="25.5004" y2="11.8255" gradientUnits="userSpaceOnUse">
<stop stop-color="#F89F20"/>
<stop offset="0.25" stop-color="#F79A20"/>
<stop offset="0.533" stop-color="#F68D20"/>
<stop offset="0.62" stop-color="#F58720"/>
<stop offset="0.723" stop-color="#F48120"/>
<stop offset="1" stop-color="#F37521"/>
</linearGradient>
<linearGradient id="paint1_linear_1879_1834" x1="27.7165" y1="15.8888" x2="23.8714" y2="8.3728" gradientUnits="userSpaceOnUse">
<stop stop-color="#F58720"/>
<stop offset="0.359" stop-color="#E16F27"/>
<stop offset="0.703" stop-color="#D4602C"/>
<stop offset="0.982" stop-color="#D05B2E"/>
</linearGradient>
</defs>
</svg>
