<svg width="50" height="32" viewBox="0 0 50 32" fill="none" xmlns="http://www.w3.org/2000/svg">
<path opacity="0.07" d="M45.4646 0H3.89697C1.68869 0 0 1.68869 0 3.89697V27.2788C0 29.4871 1.81859 31.1757 3.89697 31.1757H45.4646C47.6729 31.1757 49.3616 29.4871 49.3616 27.2788V3.89697C49.3616 1.68869 47.543 0 45.4646 0Z" fill="white"/>
<path d="M45.4664 1.29883C46.8953 1.29883 48.0644 2.46792 48.0644 3.89681V27.2786C48.0644 28.7075 46.8953 29.8766 45.4664 29.8766H3.89876C2.46987 29.8766 1.30078 28.7075 1.30078 27.2786V3.89681C1.30078 2.46792 2.46987 1.29883 3.89876 1.29883H45.4664Z" fill="white"/>
<path d="M15.5886 15.589V20.3953C15.5886 20.785 15.3288 20.785 14.9391 20.6551C12.471 19.6159 11.0421 16.3684 11.9514 13.6405C12.471 12.2116 13.5102 11.0426 14.9391 10.523C15.4587 10.2632 15.5886 10.3931 15.5886 10.7828V15.589ZM18.1866 15.589V10.7828C18.1866 10.3931 18.1866 10.3931 18.5763 10.523C21.3041 11.5622 22.733 14.8096 21.6938 17.5375C21.1742 18.9664 20.135 20.1355 18.7062 20.6551C18.1866 20.9149 18.1866 20.785 18.1866 20.3953V15.589ZM27.5393 6.49609H16.8876C21.8237 6.49609 25.7207 10.523 25.7207 15.589C25.7207 20.6551 21.8237 24.6819 16.8876 24.6819H27.5393C32.4754 24.6819 36.3724 20.6551 36.3724 15.589C36.3724 10.523 32.4754 6.49609 27.5393 6.49609Z" fill="#3086C8"/>
</svg>
