<svg width="50" height="32" viewBox="0 0 50 32" fill="none" xmlns="http://www.w3.org/2000/svg">
<path opacity="0.07" d="M45.4646 0H3.89697C1.68869 0 0 1.68869 0 3.89697V27.2788C0 29.4871 1.81859 31.1757 3.89697 31.1757H45.4646C47.6729 31.1757 49.3616 29.4871 49.3616 27.2788V3.89697C49.3616 1.68869 47.543 0 45.4646 0Z" fill="white"/>
<path d="M45.4625 1.29883C46.8914 1.29883 48.0605 2.46792 48.0605 3.89681V27.2786C48.0605 28.7075 46.8914 29.8766 45.4625 29.8766H3.89485C2.46597 29.8766 1.29688 28.7075 1.29688 27.2786V3.89681C1.29688 2.46792 2.46597 1.29883 3.89485 1.29883H45.4625Z" fill="white"/>
<path d="M19.4835 24.6819C24.5054 24.6819 28.5765 20.6109 28.5765 15.589C28.5765 10.5671 24.5054 6.49609 19.4835 6.49609C14.4617 6.49609 10.3906 10.5671 10.3906 15.589C10.3906 20.6109 14.4617 24.6819 19.4835 24.6819Z" fill="#EB001B"/>
<path d="M29.8742 24.6819C34.8961 24.6819 38.9671 20.6109 38.9671 15.589C38.9671 10.5671 34.8961 6.49609 29.8742 6.49609C24.8523 6.49609 20.7812 10.5671 20.7812 15.589C20.7812 20.6109 24.8523 24.6819 29.8742 24.6819Z" fill="#F79E1B"/>
<path d="M28.5752 15.5878C28.5752 12.4703 27.0164 9.74238 24.6782 8.18359C22.34 9.87228 20.7812 12.6002 20.7812 15.5878C20.7812 18.5755 22.34 21.4333 24.6782 22.9921C27.0164 21.4333 28.5752 18.7054 28.5752 15.5878Z" fill="#FF5F00"/>
</svg>
