<svg width="50" height="32" viewBox="0 0 50 32" fill="none" xmlns="http://www.w3.org/2000/svg">
<path opacity="0.07" d="M45.4646 0H3.89697C1.68869 0 0 1.68869 0 3.89697V27.2788C0 29.4871 1.81859 31.1757 3.89697 31.1757H45.4646C47.6729 31.1757 49.3616 29.4871 49.3616 27.2788V3.89697C49.3616 1.68869 47.543 0 45.4646 0Z" fill="white"/>
<path d="M45.4664 1.29883C46.8953 1.29883 48.0644 2.46792 48.0644 3.89681V27.2786C48.0644 28.7075 46.8953 29.8766 45.4664 29.8766H3.89876C2.46987 29.8766 1.30078 28.7075 1.30078 27.2786V3.89681C1.30078 2.46792 2.46987 1.29883 3.89876 1.29883H45.4664Z" fill="white"/>
<path d="M31.0475 10.7828C31.3073 9.48377 31.0475 8.57448 30.2681 7.79508C29.4887 6.88579 28.0598 6.49609 26.2412 6.49609H20.9154C20.5257 6.49609 20.2659 6.75589 20.136 7.14559L18.1875 20.2654C18.1875 20.5252 18.3174 20.785 18.5772 20.785H22.0845L22.6041 16.3684L24.9422 13.5106L31.0475 10.7828Z" fill="#003087"/>
<path d="M31.0451 10.7812L30.7853 11.041C30.1358 14.6782 27.9275 15.9772 24.81 15.9772H23.3811C22.9914 15.9772 22.7316 16.237 22.6017 16.6267L21.8223 21.6928L21.5625 22.9917C21.5625 23.2515 21.6924 23.5113 21.9522 23.5113H24.6801C25.0698 23.5113 25.3296 23.2515 25.3296 22.9917V22.8619L25.8492 19.7443V19.6144C25.8492 19.3546 26.2389 19.0948 26.4987 19.0948H26.8884C29.6162 19.0948 31.6946 18.0556 32.2142 14.938C32.474 13.639 32.3441 12.5998 31.6946 11.8204C31.5647 11.1709 31.3049 10.9111 31.0451 10.7812Z" fill="#3086C8"/>
<path d="M30.2656 10.5225C30.1357 10.3926 30.0058 10.3926 29.8759 10.3926C29.746 10.3926 29.6161 10.3926 29.4862 10.2627C29.0965 10.1328 28.5769 10.1328 28.0573 10.1328H24.1604C24.0305 10.1328 23.9006 10.1328 23.9006 10.2627C23.6408 10.3926 23.5109 10.5225 23.5109 10.7823L22.6016 16.4979V16.6278C22.6016 16.2381 22.9913 15.9783 23.381 15.9783H25.0696C28.3171 15.9783 30.3955 14.6793 31.045 11.0421V10.7823C30.9151 10.6524 30.6553 10.5225 30.3955 10.5225H30.2656Z" fill="#012169"/>
</svg>
