<svg width="50" height="32" viewBox="0 0 50 32" fill="none" xmlns="http://www.w3.org/2000/svg">
<path opacity="0.07" d="M45.4646 0H3.89697C1.68869 0 0 1.68869 0 3.89697V27.2788C0 29.4871 1.81859 31.1757 3.89697 31.1757H45.4646C47.6729 31.1757 49.3616 29.4871 49.3616 27.2788V3.89697C49.3616 1.68869 47.543 0 45.4646 0Z" fill="white"/>
<path d="M45.4664 1.29883C46.8953 1.29883 48.0644 2.46792 48.0644 3.89681V27.2786C48.0644 28.7075 46.8953 29.8766 45.4664 29.8766H3.89876C2.46987 29.8766 1.30078 28.7075 1.30078 27.2786V3.89681C1.30078 2.46792 2.46987 1.29883 3.89876 1.29883H45.4664Z" fill="white"/>
<path d="M36.7625 13.1185H36.3728C35.8533 14.4175 35.4636 15.067 35.0739 17.0155H37.5419C37.1522 15.067 37.1522 14.1577 36.7625 13.1185ZM40.5296 20.7825H38.3213C38.1914 20.7825 38.1914 20.7825 38.0615 20.6526L37.8017 19.4835L37.6718 19.2238H34.5543C34.4244 19.2238 34.2945 19.2238 34.2945 19.4835L33.9048 20.6526C33.9048 20.7825 33.7749 20.7825 33.7749 20.7825H31.047L31.3068 20.133L35.0739 11.2999C35.0739 10.6504 35.4636 10.3906 36.113 10.3906H38.0615C38.1914 10.3906 38.3213 10.3906 38.3213 10.6504L40.1399 19.0939C40.2698 19.6134 40.3997 20.0031 40.3997 20.5227C40.5296 20.6526 40.5296 20.6526 40.5296 20.7825ZM23.1232 20.3928L23.6428 18.0547C23.7727 18.0547 23.9025 18.1846 23.9025 18.1846C24.8118 18.5743 25.7211 18.8341 26.6304 18.7042C26.8902 18.7042 27.2799 18.5743 27.5397 18.4444C28.1892 18.1846 28.1892 17.5351 27.6696 17.0155C27.4098 16.7557 27.0201 16.6258 26.6304 16.366C26.1108 16.1062 25.5912 15.8464 25.2015 15.4567C23.6428 14.1577 24.1623 12.3391 25.0716 11.4298C25.851 10.9102 26.2407 10.3906 27.2799 10.3906C28.8387 10.3906 30.5274 10.3906 31.3068 10.6504H31.4367C31.3068 11.4298 31.1769 12.0793 30.9171 12.8587C30.2676 12.5989 29.6181 12.3391 28.9686 12.3391C28.5789 12.3391 28.1892 12.3391 27.7995 12.469C27.5397 12.469 27.4098 12.5989 27.2799 12.7288C27.0201 12.9886 27.0201 13.3783 27.2799 13.6381L27.9294 14.1577C28.449 14.4175 28.9686 14.6773 29.3583 14.9371C30.0078 15.3268 30.6573 15.9763 30.7872 16.7557C31.047 17.9248 30.6573 18.964 29.6181 19.7433C28.9686 20.2629 28.7088 20.5227 27.7995 20.5227C25.9809 20.5227 24.552 20.6526 23.383 20.2629C23.2531 20.5227 23.2531 20.5227 23.1232 20.3928ZM18.5767 20.7825C18.7066 19.8732 18.7066 19.8732 18.8365 19.4835C19.486 16.6258 20.1355 13.6381 20.6551 10.7803C20.785 10.5205 20.785 10.3906 21.0448 10.3906H23.383C23.1232 11.9494 22.8634 13.1185 22.4737 14.5474C22.084 16.4959 21.6943 18.4444 21.1747 20.3928C21.1747 20.6526 21.0448 20.6526 20.785 20.6526M6.49609 10.6504C6.49609 10.5205 6.75589 10.3906 6.88579 10.3906H11.3024C11.9518 10.3906 12.4714 10.7803 12.6013 11.4298L13.7704 17.1454C13.7704 17.2753 13.7704 17.2753 13.9003 17.4052C13.9003 17.2753 14.0302 17.2753 14.0302 17.2753L16.7581 10.6504C16.6282 10.5205 16.7581 10.3906 16.888 10.3906H19.6159C19.6159 10.5205 19.6159 10.5205 19.486 10.6504L15.4591 20.133C15.3292 20.3928 15.3292 20.5227 15.1993 20.6526C15.0694 20.7825 14.8096 20.6526 14.5498 20.6526H12.6013C12.4714 20.6526 12.3415 20.6526 12.3415 20.3928L10.2632 12.3391C10.0034 12.0793 9.61367 11.6896 9.09407 11.5597C8.31468 11.17 6.88579 10.9102 6.62599 10.9102L6.49609 10.6504Z" fill="#142688"/>
</svg>
