<svg width="64" height="66" viewBox="0 0 64 66" fill="none" xmlns="http://www.w3.org/2000/svg">
<path d="M14.6367 43.9677L25.0713 42.3867C26.2307 42.3867 27.2847 42.7029 28.1279 43.2299L36.6653 48.6053C37.8247 49.3431 38.2463 50.6079 37.7193 51.7673C37.6139 52.0835 37.4031 52.3997 37.0869 52.6105C36.4545 53.2429 35.5059 53.5591 34.5573 53.5591C33.9249 53.5591 33.2925 53.4537 32.7655 53.1375L24.3335 48.8161" stroke="white" stroke-width="2.5" stroke-miterlimit="10" stroke-linecap="round" stroke-linejoin="round"/>
<path d="M17.0605 59.3556L33.3976 64.2041C34.9786 64.6257 36.665 64.6257 38.1406 64.0987L40.9864 62.8339L57.3234 55.772L60.38 54.4018C61.5394 53.9802 62.3826 53.0316 62.3826 51.8722C62.3826 50.2912 60.8016 49.1318 59.0098 49.1318C58.799 49.1318 58.6936 49.1318 58.4828 49.1318L56.3748 49.448L41.6188 51.8722L37.0866 52.61" stroke="white" stroke-width="2.5" stroke-miterlimit="10" stroke-linecap="round" stroke-linejoin="round"/>
<path d="M22.7511 2.9668L6.41406 10.0286" stroke="white" stroke-width="2.5" stroke-miterlimit="10" stroke-linecap="round" stroke-linejoin="round"/>
<path d="M22.0135 13.9287L23.9107 26.0497C23.9107 27.2091 23.5945 28.2631 23.0675 29.1063L17.6921 37.6437C16.9543 38.8031 15.6895 39.2247 14.5301 38.6977C14.2139 38.5923 14.0031 38.3815 13.6869 38.0653C13.0545 37.4329 12.7383 36.4843 12.7383 35.5357C12.7383 34.9033 12.8437 34.2709 13.1599 33.7439L17.4813 25.3119" stroke="white" stroke-width="2.5" stroke-miterlimit="10" stroke-linecap="round" stroke-linejoin="round"/>
<path d="M13.6866 38.1703L14.6352 43.9673L17.0594 59.3557V59.4611V59.9881C17.0594 61.8853 15.7946 63.3609 14.319 63.3609C13.265 63.3609 12.211 62.5177 11.7894 61.3583L10.8408 59.2503L3.67357 42.4917L2.19797 39.1189C1.67097 37.6433 1.56557 35.8515 2.09257 34.3759L7.46798 16.2471" stroke="white" stroke-width="2.5" stroke-miterlimit="10" stroke-linecap="round" stroke-linejoin="round"/>
<path d="M49.1018 21.8336L38.5618 23.4146C37.4024 23.4146 36.3484 23.0984 35.5052 22.5714L26.9678 17.196C25.8084 16.4582 25.3868 15.1934 25.9138 14.034C26.0192 13.7178 26.23 13.507 26.5462 13.1908C27.1786 12.5584 28.1272 12.2422 29.0758 12.2422C29.7082 12.2422 30.3406 12.3476 30.8676 12.6638L39.2996 16.9852" stroke="white" stroke-width="2.5" stroke-miterlimit="10" stroke-linecap="round" stroke-linejoin="round"/>
<path d="M22.7511 2.9668L6.41406 10.0286" stroke="white" stroke-width="2.5" stroke-miterlimit="10" stroke-linecap="round" stroke-linejoin="round"/>
<path d="M22.752 2.96668L25.5978 1.70188C27.0734 1.17488 28.8652 1.06948 30.3408 1.59648L46.5724 6.44488" stroke="white" stroke-width="2.5" stroke-miterlimit="10" stroke-linecap="round" stroke-linejoin="round"/>
<path d="M26.4406 13.1903L22.0138 13.9281L7.36321 16.2469L5.25521 16.5631C5.04441 16.5631 4.93901 16.5631 4.7282 16.5631C2.831 16.6685 1.25 15.4037 1.25 13.9281C1.25 12.8741 2.0932 11.8201 3.2526 11.3985L6.41461 10.0283" stroke="white" stroke-width="2.5" stroke-miterlimit="10" stroke-linecap="round" stroke-linejoin="round"/>
<path d="M41.6179 51.8722L39.7207 39.7512C39.7207 38.5918 40.0369 37.5378 40.5639 36.6946L45.9393 28.0518C46.6771 26.8924 47.9419 26.4708 49.1013 26.9978C50.1553 27.5248 50.7877 28.7896 50.7877 30.1598C50.7877 30.7922 50.6823 31.4246 50.3661 31.9516L46.0447 40.3836" stroke="white" stroke-width="2.5" stroke-miterlimit="10" stroke-linecap="round" stroke-linejoin="round"/>
<path d="M49.9451 27.63L48.9965 21.833L46.5723 6.44459V6.33919C46.5723 6.12839 46.5723 5.91759 46.5723 5.81219C46.5723 3.91499 47.7317 2.33398 49.3127 2.33398C50.3667 2.33398 51.4207 3.17719 51.8423 4.33659L52.7909 6.54999L60.0635 23.3086L61.5391 26.6814C62.0661 28.157 62.1715 29.9488 61.6445 31.4244L56.2691 49.5532" stroke="white" stroke-width="2.5" stroke-miterlimit="10" stroke-linecap="round" stroke-linejoin="round"/>
</svg>
