<svg width="67" height="67" viewBox="0 0 67 67" fill="none" xmlns="http://www.w3.org/2000/svg">
<path d="M65.8448 32.3448H62.3504C62.0513 25.0954 59.0374 18.2235 53.907 13.093C48.7765 7.96256 41.9046 4.94866 34.6552 4.64957V1.15517C34.6552 0.848802 34.5335 0.554979 34.3168 0.338342C34.1002 0.121705 33.8064 0 33.5 0C33.1936 0 32.8998 0.121705 32.6832 0.338342C32.4665 0.554979 32.3448 0.848802 32.3448 1.15517V4.64957C25.0954 4.94866 18.2235 7.96256 13.093 13.093C7.96256 18.2235 4.94866 25.0954 4.64957 32.3448H1.15517C0.848802 32.3448 0.554979 32.4665 0.338342 32.6832C0.121705 32.8998 0 33.1936 0 33.5C0 33.8064 0.121705 34.1002 0.338342 34.3168C0.554979 34.5335 0.848802 34.6552 1.15517 34.6552H4.64957C4.94866 41.9046 7.96256 48.7765 13.093 53.907C18.2235 59.0374 25.0954 62.0513 32.3448 62.3504V65.8448C32.3448 66.1512 32.4665 66.445 32.6832 66.6617C32.8998 66.8783 33.1936 67 33.5 67C33.8064 67 34.1002 66.8783 34.3168 66.6617C34.5335 66.445 34.6552 66.1512 34.6552 65.8448V62.3504C41.9046 62.0513 48.7765 59.0374 53.907 53.907C59.0374 48.7765 62.0513 41.9046 62.3504 34.6552H65.8448C66.1512 34.6552 66.445 34.5335 66.6617 34.3168C66.8783 34.1002 67 33.8064 67 33.5C67 33.1936 66.8783 32.8998 66.6617 32.6832C66.445 32.4665 66.1512 32.3448 65.8448 32.3448ZM60.0401 32.3448H50.7687C50.4848 28.1648 48.6959 24.2292 45.7334 21.2666C42.7708 18.3041 38.8352 16.5153 34.6552 16.2313V6.95991C41.2922 7.2568 47.5779 10.0266 52.2757 14.7243C56.9734 19.4221 59.7432 25.7078 60.0401 32.3448ZM43.8966 34.6552H48.4583C48.1798 38.2233 46.6361 41.5747 44.1054 44.1054C41.5747 46.6361 38.2233 48.1798 34.6552 48.4583V43.8966C34.6552 43.5902 34.5335 43.2964 34.3168 43.0797C34.1002 42.8631 33.8064 42.7414 33.5 42.7414C33.1936 42.7414 32.8998 42.8631 32.6832 43.0797C32.4665 43.2964 32.3448 43.5902 32.3448 43.8966V48.4583C28.7767 48.1798 25.4253 46.6361 22.8946 44.1054C20.3639 41.5747 18.8202 38.2233 18.5417 34.6552H23.1034C23.4098 34.6552 23.7036 34.5335 23.9203 34.3168C24.1369 34.1002 24.2586 33.8064 24.2586 33.5C24.2586 33.1936 24.1369 32.8998 23.9203 32.6832C23.7036 32.4665 23.4098 32.3448 23.1034 32.3448H18.5417C18.8202 28.7767 20.3639 25.4253 22.8946 22.8946C25.4253 20.3639 28.7767 18.8202 32.3448 18.5417V23.1034C32.3448 23.4098 32.4665 23.7036 32.6832 23.9203C32.8998 24.1369 33.1936 24.2586 33.5 24.2586C33.8064 24.2586 34.1002 24.1369 34.3168 23.9203C34.5335 23.7036 34.6552 23.4098 34.6552 23.1034V18.5417C38.2233 18.8202 41.5747 20.3639 44.1054 22.8946C46.6361 25.4253 48.1798 28.7767 48.4583 32.3448H43.8966C43.5902 32.3448 43.2964 32.4665 43.0797 32.6832C42.8631 32.8998 42.7414 33.1936 42.7414 33.5C42.7414 33.8064 42.8631 34.1002 43.0797 34.3168C43.2964 34.5335 43.5902 34.6552 43.8966 34.6552ZM32.3448 6.95991V16.2313C28.1648 16.5153 24.2292 18.3041 21.2666 21.2666C18.3041 24.2292 16.5153 28.1648 16.2313 32.3448H6.95991C7.2568 25.7078 10.0266 19.4221 14.7243 14.7243C19.4221 10.0266 25.7078 7.2568 32.3448 6.95991ZM6.95991 34.6552H16.2313C16.5153 38.8352 18.3041 42.7708 21.2666 45.7334C24.2292 48.6959 28.1648 50.4848 32.3448 50.7687V60.0401C25.7078 59.7432 19.4221 56.9734 14.7243 52.2757C10.0266 47.5779 7.2568 41.2922 6.95991 34.6552ZM34.6552 60.0401V50.7687C38.8352 50.4848 42.7708 48.6959 45.7334 45.7334C48.6959 42.7708 50.4848 38.8352 50.7687 34.6552H60.0401C59.7432 41.2922 56.9734 47.5779 52.2757 52.2757C47.5779 56.9734 41.2922 59.7432 34.6552 60.0401Z" fill="white"/>
</svg>
