<svg width="67" height="67" viewBox="0 0 67 67" fill="none" xmlns="http://www.w3.org/2000/svg">
<path d="M62.9647 49.4458C68.3523 39.5083 68.3524 27.4872 62.9654 17.5496C63.3867 17.2456 63.7865 16.9055 64.1611 16.5309C65.9899 14.7024 66.997 12.271 66.997 9.68491C66.997 7.0988 65.9899 4.66734 64.1612 2.83877C62.3325 1.0102 59.9012 0.0030257 57.3151 0.0030257C54.729 0.0030257 52.2976 1.01007 50.4689 2.83877C50.0937 3.21401 49.7531 3.61463 49.4487 4.03671C39.5095 -1.34668 27.4912 -1.3455 17.5591 4.03985C17.2542 3.61659 16.9128 3.21493 16.5366 2.83877C14.708 1.01007 12.2766 0.00289487 9.69051 0.00289487C7.1044 0.00289487 4.67307 1.01007 2.84437 2.83864C2.84423 2.83877 2.84437 2.83851 2.84437 2.83864C1.01593 4.66734 0.00861892 7.0988 0.00861892 9.68478C0.00861892 12.271 1.01567 14.7022 2.84437 16.5308C3.21895 16.9054 3.61892 17.2456 4.04021 17.5496C-1.34698 27.4873 -1.34671 39.5084 4.04086 49.4457C3.62166 49.7473 3.22117 50.0864 2.8445 50.4632C1.0158 52.2919 0.00874976 54.7232 0.00874976 57.3093C0.00874976 59.8955 1.0158 62.3269 2.8445 64.1555C4.6732 65.9842 7.10453 66.9912 9.69064 66.9912C12.2768 66.9912 14.7081 65.9842 16.5368 64.1555C16.9114 63.7809 17.2514 63.3811 17.5555 62.9598C22.5245 65.6536 28.0127 67 33.5028 67C38.9916 67 44.4821 65.6529 49.4504 62.9598C49.7544 63.3811 50.0945 63.7809 50.4691 64.1556C52.2979 65.9843 54.7292 66.9914 57.3152 66.9914C59.9014 66.9914 62.3328 65.9843 64.1613 64.1556C65.9899 62.3269 66.9971 59.8956 66.9971 57.3095C66.9971 54.7234 65.99 52.2919 64.1613 50.4633C63.7844 50.0864 63.384 49.7473 62.9647 49.4458ZM57.9683 47.654C60.1371 43.9117 61.3762 39.779 61.6855 35.5905C62.1463 35.727 62.6092 35.7953 63.0723 35.7953C63.4871 35.7953 63.9022 35.7403 64.3156 35.6307C64.0149 39.9798 62.7937 44.2788 60.652 48.2213C59.7842 47.9042 58.8799 47.7151 57.9683 47.654ZM47.9997 54.6548C39.2911 60.6373 27.7141 60.6374 19.0058 54.6545C18.5612 53.0857 17.7214 51.6479 16.5365 50.4632C15.3313 49.2579 13.8846 48.4376 12.3507 48.0019C6.36242 39.2927 6.36059 27.7114 12.3452 19.0001C13.914 18.5555 15.3517 17.7155 16.5364 16.5308C17.7211 15.3461 18.5611 13.9084 19.0057 12.3396C27.714 6.35696 39.2908 6.35696 47.9995 12.3395C48.4441 13.9083 49.2841 15.3461 50.4688 16.5308C51.6535 17.7155 53.0913 18.5554 54.6601 19.0001C60.6449 27.7112 60.643 39.2927 54.6546 48.0019C53.1207 48.4375 51.6741 49.2579 50.4688 50.4632C49.2841 51.6481 48.4441 53.0858 47.9997 54.6548ZM64.3813 32.7944C63.4814 33.3007 62.6544 33.299 61.7539 32.789C61.6379 28.1321 60.377 23.4981 57.9712 19.345C58.8982 19.2833 59.7999 19.0914 60.6548 18.7779C63.0293 23.151 64.2715 27.9625 64.3813 32.7944ZM57.3151 2.61962C59.2022 2.61962 60.9764 3.3544 62.3109 4.68893C63.6455 6.02333 64.3802 7.7976 64.3802 9.68478C64.3802 11.572 63.6455 13.3461 62.3109 14.6805C60.9765 16.015 59.2022 16.7499 57.3151 16.7499C55.4279 16.7499 53.6537 16.015 52.3192 14.6805C50.9848 13.3462 50.2499 11.572 50.2499 9.68478C50.2499 7.7976 50.9848 6.02346 52.3192 4.68893C53.6536 3.3544 55.4279 2.61962 57.3151 2.61962ZM47.6549 9.02877C43.9139 6.86173 39.7829 5.62362 35.5962 5.31433C35.8546 4.4423 35.8685 3.56269 35.638 2.68988C39.9837 2.99028 44.28 4.20954 48.221 6.34754C47.9081 7.20177 47.7164 8.10258 47.6549 9.02877ZM32.8031 2.62433C33.3061 3.52187 33.3032 4.34784 32.7946 5.24603C28.1375 5.36208 23.5037 6.62295 19.3505 9.02877C19.2891 8.10389 19.0979 7.20439 18.7857 6.3512C23.1581 3.97613 27.9702 2.73384 32.8031 2.62433ZM2.62535 9.68478C2.62535 7.7976 3.36025 6.02346 4.69465 4.68893C6.02905 3.3544 7.80333 2.61962 9.69051 2.61962C11.5777 2.61962 13.3518 3.3544 14.6864 4.68893C16.0208 6.02333 16.7557 7.7976 16.7557 9.68478C16.7557 11.572 16.0208 13.3461 14.6864 14.6805C13.352 16.015 11.5778 16.7499 9.69064 16.7499C7.80346 16.7499 6.02931 16.015 4.69478 14.6805C3.36012 13.3462 2.62535 11.572 2.62535 9.68478ZM9.03436 19.345C6.86732 23.0861 5.62922 27.2171 5.32005 31.4039C4.44633 31.1451 3.56475 31.1317 2.69011 31.3637C2.99064 27.0164 4.21082 22.7191 6.35091 18.7779C7.20566 19.0914 8.10726 19.2833 9.03436 19.345ZM2.62443 34.1998C3.52445 33.6936 4.35121 33.6952 5.25175 34.2052C5.36781 38.864 6.62959 43.4996 9.03711 47.654C8.12571 47.7151 7.22136 47.9042 6.35353 48.2213C3.97715 43.8469 2.7342 39.0336 2.62443 34.1998ZM9.69051 64.3745C7.80333 64.3745 6.02918 63.6397 4.69465 62.3052C3.36025 60.9708 2.62535 59.1965 2.62535 57.3093C2.62535 55.4222 3.36025 53.648 4.69465 52.3135C6.07223 50.936 7.88104 50.2475 9.69051 50.2475C11.4996 50.2475 13.3092 50.9363 14.6864 52.3135C16.0208 53.6479 16.7557 55.4222 16.7557 57.3093C16.7557 59.1965 16.0208 60.9707 14.6864 62.3052C13.3518 63.6397 11.5777 64.3745 9.69051 64.3745ZM19.3505 57.9655C23.0919 60.1329 27.2226 61.3709 31.4097 61.6799C31.1511 62.5538 31.1376 63.4354 31.3694 64.3099C27.022 64.0093 22.7247 62.789 18.7835 60.6491C19.097 59.7942 19.2889 58.8926 19.3505 57.9655ZM34.2054 64.3755C33.6987 63.4753 33.7007 62.6492 34.2109 61.7482C38.8674 61.6322 43.502 60.371 47.6549 57.9655C47.7165 58.8925 47.9085 59.7942 48.2219 60.6491C43.8489 63.0238 39.0372 64.2658 34.2054 64.3755ZM62.3108 62.3052C60.9764 63.6397 59.2021 64.3745 57.3149 64.3745C55.4278 64.3745 53.6536 63.6397 52.3191 62.3052C49.5643 59.5504 49.5643 55.0684 52.3191 52.3136C55.0741 49.5594 59.5564 49.5591 62.3107 52.3136C63.6452 53.648 64.38 55.4223 64.38 57.3095C64.38 59.1967 63.6455 60.9708 62.3108 62.3052Z" fill="white"/>
<path d="M33.5024 14.3926C31.3966 14.3926 29.3185 14.7379 27.3259 15.4186C26.642 15.6521 26.2771 16.3959 26.5107 17.0797C26.7443 17.7634 27.4882 18.1285 28.1718 17.8947C29.8916 17.3072 31.6851 17.0092 33.5024 17.0092C35.0231 17.0092 36.4963 17.2162 37.8956 17.6034V18.5114C37.8956 19.619 36.9945 20.52 35.887 20.52H32.57C29.6843 20.52 27.3366 22.8678 27.3366 25.7535C27.3366 28.6392 29.6843 30.9869 32.57 30.9869H43.0368C43.7582 30.9869 44.3452 31.5737 44.3452 32.2952C44.3452 33.0166 43.7582 33.6035 43.0368 33.6035C40.8725 33.6035 39.1117 35.3643 39.1117 37.5286C39.1117 38.2501 38.5249 38.837 37.8035 38.837C34.9178 38.837 32.57 41.1847 32.57 44.0704C32.57 46.9562 34.9178 49.3039 37.8035 49.3039H38.195C36.7071 49.7464 35.1321 49.984 33.5025 49.984C27.1723 49.984 21.6639 46.398 18.902 41.1507C19.2152 40.9944 19.5616 40.9117 19.9204 40.9117H25.1765C27.3408 40.9117 29.1016 39.1509 29.1016 36.9866C29.1016 34.8223 27.3408 33.0616 25.1765 33.0616C24.455 33.0616 23.8681 32.4747 23.8681 31.7533C23.8681 29.589 22.1073 27.8282 19.943 27.8282H18.0185C18.4434 26.6688 18.9998 25.5548 19.6821 24.5058C20.0762 23.9001 19.9046 23.0897 19.2989 22.6956C18.6934 22.3019 17.8827 22.4733 17.4888 23.0789C15.467 26.1867 14.3984 29.789 14.3984 33.4965C14.3984 44.0307 22.9685 52.6007 33.5025 52.6007C44.0365 52.6007 52.6066 44.0307 52.6066 33.4965C52.6064 22.9626 44.0364 14.3926 33.5024 14.3926ZM19.943 30.4449C20.6645 30.4449 21.2514 31.0318 21.2514 31.7533C21.2514 33.9175 23.0122 35.6783 25.1765 35.6783C25.8979 35.6783 26.4848 36.2651 26.4848 36.9866C26.4848 37.708 25.8979 38.2949 25.1765 38.2949H19.9204C19.2009 38.2949 18.5054 38.4491 17.8704 38.7419C17.3158 37.0935 17.0152 35.3295 17.0152 33.4966C17.0152 32.4663 17.1108 31.4454 17.2988 30.445L19.943 30.4449ZM43.3835 46.6872H37.8035C36.3606 46.6872 35.1868 45.5133 35.1868 44.0704C35.1868 42.6276 36.3606 41.4537 37.8035 41.4537C39.9677 41.4537 41.7285 39.6929 41.7285 37.5286C41.7285 36.8072 42.3154 36.2203 43.0368 36.2203C45.2011 36.2203 46.9619 34.4595 46.9619 32.2952C46.9619 30.1309 45.2011 28.3702 43.0368 28.3702H32.57C31.1272 28.3702 29.9533 27.1964 29.9533 25.7535C29.9533 24.3106 31.1272 23.1368 32.57 23.1368H35.887C38.4163 23.1368 40.4779 21.0961 40.5118 18.5746C46.1078 21.2139 49.9897 26.9103 49.9897 33.4965C49.9897 38.8844 47.3921 43.6766 43.3835 46.6872Z" fill="white"/>
<path d="M21.9192 20.5926C22.124 20.7097 22.347 20.7652 22.5671 20.7652C23.0214 20.7652 23.4628 20.5282 23.7043 20.1056L23.7049 20.1047C24.0634 19.4774 23.8451 18.6787 23.2178 18.3201C22.5904 17.9614 21.7909 18.1798 21.4324 18.8075C21.0739 19.4348 21.2918 20.2341 21.9192 20.5926Z" fill="white"/>
</svg>
