<svg width="74" height="74" viewBox="0 0 74 74" fill="none" xmlns="http://www.w3.org/2000/svg">
<mask id="path-1-inside-1_1675_2323" fill="white">
<path d="M37.5776 5.78123C37.8418 5.95975 37.8418 5.95975 38.1055 6.20297C38.2554 6.34071 38.2554 6.34071 38.4084 6.48124C39.003 7.05072 39.5893 7.62764 40.1701 8.21117C40.2947 8.33516 40.4192 8.45914 40.5476 8.58689C40.6658 8.70529 40.784 8.82369 40.9058 8.94568C41.0127 9.05277 41.1196 9.15986 41.2298 9.2702C41.6503 9.72207 41.6758 10.0835 41.6634 10.6987C41.6245 10.9844 41.6245 10.9844 41.4077 11.3457C41.0021 11.5891 40.6765 11.6699 40.2018 11.6477C39.5805 11.4778 39.1709 11.0023 38.7339 10.5508C38.6146 10.4345 38.4954 10.3183 38.3725 10.1985C38.301 10.1239 38.2295 10.0494 38.1557 9.97264C37.9913 10.4499 37.8396 10.9283 37.7046 11.4146C37.0916 13.5961 36.2609 15.6804 35.4096 17.7773C35.5099 17.7758 35.6101 17.7743 35.7133 17.7727C40.4535 17.7108 44.5173 18.5074 48.9956 20.0898C49.0271 19.9181 49.0586 19.7463 49.091 19.5693C49.3109 18.5803 49.7004 17.6518 50.0705 16.7114C50.5496 15.4922 50.9976 14.283 51.3081 13.0078C51.2423 13.0744 51.1765 13.1411 51.1087 13.2097C50.6679 13.6458 50.3272 13.9391 49.6911 13.9653C49.1401 13.875 49.1401 13.875 48.7878 13.6311C48.529 13.248 48.4285 13.0376 48.4175 12.5742C48.7046 11.8772 49.1093 11.3883 49.642 10.8686C49.7177 10.7932 49.7934 10.7178 49.8714 10.6401C50.0304 10.482 50.1899 10.3245 50.3499 10.1675C50.5953 9.9267 50.839 9.68434 51.0825 9.44166C51.2376 9.28791 51.3928 9.13425 51.548 8.98068C51.6576 8.87207 51.6576 8.87207 51.7693 8.76126C52.2435 8.29673 52.4652 8.11355 53.1328 8.02147C53.6679 8.03008 53.9037 8.1572 54.2936 8.5183C54.3935 8.61024 54.4935 8.70218 54.5965 8.79691C54.7037 8.89873 54.8109 9.00055 54.9214 9.10545C55.0355 9.21249 55.1495 9.31952 55.2671 9.4298C55.6314 9.77564 55.9904 10.1264 56.3486 10.4785C56.4719 10.5964 56.5953 10.7144 56.7224 10.8359C57.8536 11.951 57.8536 11.951 57.9565 12.8633C57.6609 13.6615 57.6609 13.6615 57.2339 13.875C56.2782 14.0068 56.2782 14.0068 55.7648 13.6695C55.4703 13.4114 55.1937 13.1446 54.9214 12.8633C54.7425 12.6889 54.7425 12.6889 54.56 12.511C54.4885 12.4364 54.417 12.3619 54.3432 12.2851C54.1771 12.7675 54.0241 13.2511 53.8871 13.7423C53.4359 15.3412 52.881 16.8717 52.2371 18.4036C52.1472 18.6198 52.1472 18.6198 52.0556 18.8404C52.0021 18.9666 51.9485 19.0928 51.8934 19.2227C51.6945 19.7909 51.5728 20.3679 51.4526 20.957C51.5348 20.9848 51.617 21.0126 51.7016 21.0412C55.8924 22.4583 60.0804 23.8825 64.2535 25.3512C64.9723 25.6036 65.6925 25.8516 66.4141 26.0958C66.8723 26.2511 67.33 26.408 67.7876 26.5651C67.9986 26.6371 68.21 26.7083 68.4216 26.7786C69.7004 27.2036 70.707 27.5879 71.5334 28.7075C71.7974 29.546 71.877 30.4463 71.5498 31.2786C70.981 32.2367 70.2606 32.7008 69.2119 33.0615C68.9475 33.1543 68.9475 33.1543 68.6778 33.2489C68.2182 33.3867 68.2182 33.3867 67.7846 33.3867C67.7846 33.4821 67.7846 33.5775 67.7846 33.6758C68.0619 33.7294 68.0619 33.7294 68.3447 33.7842C69.726 34.1013 70.727 34.4847 71.5425 35.6992C71.8242 36.5444 71.7997 37.509 71.5334 38.355C70.6714 39.5229 69.5813 39.9246 68.2182 40.3242C68.1228 40.3242 68.0275 40.3242 67.9292 40.3242C67.9292 40.4196 67.9292 40.515 67.9292 40.6133C68.0795 40.6398 68.0795 40.6398 68.2329 40.6669C69.4965 40.9411 70.5606 41.3332 71.3731 42.3668C71.8356 43.1038 71.7459 43.9671 71.687 44.8047C71.438 45.5955 70.9189 46.0837 70.2417 46.539C69.6116 46.8292 68.9571 47.0434 68.2995 47.2617C68.0932 47.3322 67.887 47.4029 67.6808 47.4738C67.1946 47.6405 66.7079 47.8058 66.2209 47.9704C65.1566 48.3306 64.0944 48.6968 63.0321 49.0627C62.62 49.2046 62.2079 49.3465 61.7959 49.4884C61.6413 49.5416 61.6413 49.5416 61.4836 49.5959C60.7673 49.8425 60.0508 50.0885 59.3341 50.3341C59.1374 50.4016 58.9408 50.469 58.7441 50.5364C58.4578 50.6346 58.1714 50.7327 57.8851 50.8308C57.011 51.1302 56.1373 51.4301 55.2675 51.7417C55.1516 51.7833 55.0356 51.8248 54.9161 51.8676C54.712 51.9412 54.5081 52.0153 54.3045 52.0902C53.9076 52.2336 53.6135 52.3203 53.187 52.3203C53.2446 52.4587 53.3021 52.5972 53.3614 52.7398C54.6224 55.8691 54.8948 59.044 53.6657 62.2388C52.3175 65.387 52.3175 65.387 51.5971 65.9062C51.1538 66.0042 50.7416 65.9914 50.2964 65.9062C49.8709 65.5534 49.739 65.3424 49.6674 64.7957C49.7356 64.1523 50.0014 63.7214 50.3235 63.1692C51.775 60.5606 52.2159 58.1234 51.4526 55.2109C51.2741 54.6274 51.0816 54.0506 50.8745 53.4765C50.2559 53.4765 49.7911 53.627 49.2186 53.8305C49.0005 53.906 48.7823 53.9814 48.5642 54.0567C48.3933 54.1161 48.3933 54.1161 48.2189 54.1767C44.779 55.3663 41.2565 56.3685 37.5776 56.2226C37.6432 56.3985 37.7088 56.5744 37.7763 56.7556C38.8146 59.8951 38.2751 63.0789 36.8233 65.9757C36.6005 66.4093 36.3756 66.8419 36.1447 67.2714C36.0971 67.3601 36.0495 67.4488 36.0004 67.5402C35.8285 67.8081 35.6499 68.0101 35.4096 68.2187C34.8047 68.3424 34.2725 68.3145 33.7385 68.0019C33.4515 67.5028 33.4569 67.042 33.5307 66.4844C33.7583 66 33.7583 66 34.0637 65.5268C35.562 63.0895 35.96 60.6833 35.4023 57.9152C35.252 57.3277 35.0537 56.7865 34.8315 56.2226C34.6158 56.2014 34.6158 56.2014 34.3957 56.1797C31.1091 55.8369 28.1038 54.9621 24.9882 53.8926C24.8735 53.8533 24.7588 53.8139 24.6407 53.7734C24.0628 53.5749 23.4853 53.3756 22.9082 53.1748C22.8004 53.1374 22.6926 53.1001 22.5816 53.0616C22.377 52.9908 22.1726 52.9195 21.9684 52.8479C21.474 52.6692 21.474 52.6692 20.9565 52.6094C21.0158 52.7754 21.075 52.9414 21.1361 53.1124C22.3683 56.6345 22.4414 59.8967 20.812 63.3047C19.7116 65.5534 19.7116 65.5534 19.2221 65.9062C18.7788 66.0042 18.3666 65.9914 17.9214 65.9062C17.4959 65.5534 17.364 65.3424 17.2924 64.7957C17.3606 64.1523 17.6264 63.7214 17.9485 63.1692C19.3902 60.5782 19.8692 58.1046 19.0776 55.2109C18.907 54.6794 18.7217 54.1536 18.5258 53.6309C18.3105 53.0563 18.1559 52.5089 18.0388 51.9048C17.957 51.5888 17.957 51.5888 17.7768 51.3086C17.4696 51.1659 17.4696 51.1659 17.0947 51.0981C16.0802 50.8545 15.1054 50.5186 14.1201 50.1777C13.9226 50.1098 13.7251 50.0419 13.5276 49.974C13.1148 49.8321 12.7022 49.6898 12.2897 49.5473C11.7712 49.3681 11.2524 49.1897 10.7336 49.0114C9.73883 48.6696 8.74492 48.3255 7.75197 47.9785C7.16045 47.772 6.56748 47.5704 5.97361 47.3709C5.69042 47.2734 5.40726 47.1759 5.12414 47.0782C4.93843 47.0176 4.93843 47.0176 4.74897 46.9559C3.7757 46.6143 2.91288 46.0679 2.38708 45.1564C2.20426 44.3001 2.20242 43.4184 2.46556 42.5825C3.32441 41.4189 4.41704 41.0004 5.78074 40.6133C5.92383 40.6133 6.06691 40.6133 6.21433 40.6133C6.21433 40.5179 6.21433 40.4225 6.21433 40.3242C6.02952 40.2884 5.8447 40.2527 5.65428 40.2158C4.27296 39.8987 3.27201 39.5153 2.45652 38.3008C2.17479 37.4556 2.19925 36.4909 2.46556 35.645C3.39479 34.386 4.63462 34.0171 6.0698 33.5312C5.89374 33.4716 5.71768 33.412 5.53628 33.3506C2.99719 32.4545 2.99719 32.4545 2.45652 31.3633C2.112 30.4963 2.09104 29.705 2.42215 28.829C2.93879 27.8 3.93282 27.3304 4.97513 26.9681C5.13367 26.9161 5.2922 26.8641 5.45555 26.8105C5.71803 26.7205 5.98052 26.6306 6.24301 26.5406C6.5388 26.4398 6.83504 26.3404 7.13142 26.2413C7.89827 25.9847 8.66334 25.7229 9.42846 25.4612C10.2745 25.1719 11.1206 24.8829 11.9675 24.596C12.2315 24.5065 12.4955 24.417 12.7595 24.3275C12.8849 24.2851 13.0103 24.2426 13.1395 24.1989C13.9216 23.9331 14.6986 23.6567 15.4697 23.3598C15.7534 23.2695 15.7534 23.2695 16.187 23.2695C16.1786 23.1762 16.1702 23.0828 16.1616 22.9867C16.0459 20.5712 17.0632 18.2943 17.9326 16.0884C18.331 15.0732 18.6743 14.0677 18.9331 13.0078C18.8673 13.0744 18.8015 13.1411 18.7337 13.2097C18.2929 13.6458 17.9522 13.9391 17.3161 13.9653C16.7651 13.875 16.7651 13.875 16.4128 13.6311C16.154 13.248 16.0535 13.0376 16.0425 12.5742C16.3296 11.8772 16.7343 11.3883 17.267 10.8686C17.3427 10.7932 17.4184 10.7178 17.4964 10.6401C17.6554 10.482 17.8149 10.3245 17.9749 10.1675C18.2203 9.9267 18.464 9.68434 18.7075 9.44166C18.8626 9.28791 19.0178 9.13425 19.173 8.98068C19.2461 8.90827 19.3191 8.83587 19.3943 8.76126C19.8685 8.29673 20.0902 8.11355 20.7578 8.02147C21.2929 8.03008 21.5287 8.1572 21.9186 8.5183C22.0185 8.61024 22.1185 8.70218 22.2215 8.79691C22.3287 8.89873 22.4359 9.00055 22.5464 9.10545C22.6605 9.21249 22.7745 9.31952 22.8921 9.4298C23.2564 9.77564 23.6154 10.1264 23.9736 10.4785C24.1586 10.6554 24.1586 10.6554 24.3474 10.8359C25.4786 11.951 25.4786 11.951 25.5815 12.8633C25.2859 13.6615 25.2859 13.6615 24.8589 13.875C23.9032 14.0068 23.9032 14.0068 23.3898 13.6695C23.0953 13.4114 22.8187 13.1446 22.5464 12.8633C22.4271 12.747 22.3079 12.6308 22.185 12.511C22.1135 12.4364 22.042 12.3619 21.9682 12.2851C21.8021 12.7675 21.6491 13.2511 21.5121 13.7423C21.0719 15.3028 20.5374 16.7976 19.9002 18.2893C19.3603 19.5809 18.9991 20.9064 18.644 22.2578C18.7393 22.2253 18.8346 22.1928 18.9328 22.1594C19.8443 21.8488 20.7559 21.5385 21.6676 21.2286C22.136 21.0693 22.6043 20.91 23.0726 20.7504C24.2933 20.3344 25.5149 19.9212 26.7378 19.5117C26.8779 19.4646 27.0181 19.4174 27.1625 19.3689C28.3771 18.9627 29.5366 18.6025 30.8119 18.4442C31.9473 18.3044 31.9473 18.3044 32.8662 17.692C33.1951 17.0754 33.3059 16.4037 33.4365 15.7232C33.6164 14.9539 33.9275 14.2289 34.2173 13.4956C34.5764 12.5695 34.9039 11.6656 35.1206 10.6953C35.0312 10.7892 35.0312 10.7892 34.9399 10.885C34.4882 11.3205 34.1491 11.6262 33.5036 11.6528C32.9526 11.5625 32.9526 11.5625 32.5913 11.3457C32.3464 10.9376 32.2658 10.6117 32.2921 10.1343C32.3923 9.76204 32.538 9.58494 32.7979 9.30136C32.8895 9.20124 32.9811 9.10112 33.0754 8.99797C33.6434 8.40195 34.2209 7.81638 34.8044 7.23558C34.9284 7.11103 35.0524 6.98648 35.1801 6.85816C35.2985 6.73995 35.4169 6.62173 35.5389 6.49994C35.6996 6.33954 35.6996 6.33954 35.8635 6.17591C36.3695 5.70507 36.912 5.64027 37.5776 5.78123ZM34.8315 20.2344C34.8256 20.5763 34.8213 20.9182 34.818 21.2602C34.8142 21.5458 34.8142 21.5458 34.8104 21.8372C34.8788 23.6633 35.8759 25.3459 36.7426 26.9133C36.952 27.3951 36.8963 27.8077 36.855 28.3281C36.7104 28.6172 36.7104 28.6172 36.4214 28.7617C35.4093 28.8742 35.4093 28.8742 34.9749 28.5353C34.6153 28.096 34.3648 27.6253 34.1179 27.1177C34.0679 27.0159 34.0178 26.9142 33.9662 26.8094C33.0001 24.8043 32.5047 22.8845 32.3745 20.668C31.4455 20.7493 30.5978 20.9136 29.7046 21.1778C29.5748 21.2155 29.445 21.2533 29.3113 21.2922C27.6455 21.7851 26.0044 22.3523 24.362 22.9172C24.0449 23.0256 23.7277 23.1339 23.4104 23.2421C21.8658 23.77 20.3232 24.303 18.7886 24.8594C18.9836 26.3955 19.6627 27.8527 20.484 29.1597C20.7809 29.685 20.7252 30.0444 20.6675 30.6406C20.5229 30.9297 20.5229 30.9297 20.2339 31.0742C19.2221 31.1866 19.2221 31.1866 18.7874 30.8484C18.4263 30.4065 18.1775 29.9318 17.9304 29.4211C17.8804 29.3195 17.8303 29.218 17.7787 29.1133C17.3948 28.3211 17.0667 27.5186 16.7662 26.6908C16.6395 26.3549 16.4946 26.0457 16.3315 25.7265C15.3336 26.0645 14.3357 26.4025 13.3379 26.7408C12.8741 26.898 12.4104 27.0551 11.9466 27.2122C11.7685 27.2725 11.5905 27.3327 11.407 27.3949C11.2293 27.455 11.0516 27.5152 10.8685 27.5772C10.3355 27.7581 9.80291 27.9404 9.27031 28.1226C8.59391 28.3536 7.91578 28.5774 7.23516 28.7956C7.08006 28.8464 6.92495 28.8973 6.76515 28.9497C6.4748 29.0448 6.18367 29.1376 5.89173 29.2278C5.70043 29.2914 5.70043 29.2914 5.50526 29.3562C5.39383 29.3917 5.2824 29.4271 5.1676 29.4636C4.87254 29.6162 4.87254 29.6162 4.80431 30.0073C4.79266 30.1209 4.78102 30.2345 4.76902 30.3515C6.04854 30.8985 7.36792 31.3311 8.68534 31.7757C9.39746 32.0161 10.1091 32.2579 10.8207 32.4998C11.0401 32.5743 11.0401 32.5743 11.264 32.6504C12.7393 33.1526 14.2104 33.6664 15.6811 34.1816C18.4604 35.1545 21.2448 36.1115 24.0341 37.055C24.7439 37.2954 25.4525 37.5388 26.16 37.7857C30.9281 39.4489 35.6228 40.4008 40.6941 39.719C40.8051 39.7044 40.9162 39.6898 41.0307 39.6748C43.5952 39.2815 46.0564 38.4431 48.4988 37.5962C48.8169 37.4869 49.1351 37.3776 49.4532 37.2685C51.7182 36.4904 53.9796 35.7016 56.2397 34.9096C58.1062 34.256 59.9771 33.6159 61.8498 32.9802C65.6067 31.8267 65.6067 31.8267 69.23 30.3515C69.23 30.1608 69.23 29.97 69.23 29.7734C67.049 28.9233 64.829 28.1823 62.6142 27.4263C61.6396 27.0934 60.6652 26.7598 59.6909 26.4261C59.5844 26.3896 59.4779 26.3531 59.3682 26.3155C58.0195 25.8536 56.6724 25.3878 55.3279 24.9141C55.19 24.8656 55.0522 24.8171 54.9102 24.7671C54.2914 24.5489 53.6729 24.3297 53.0549 24.1093C52.843 24.0343 52.6311 23.9593 52.4192 23.8843C52.1517 23.7889 52.1517 23.7889 51.8789 23.6916C51.458 23.5371 51.458 23.5371 51.019 23.5586C50.9551 25.4257 51.6704 27.0515 52.6165 28.6265C53.0272 29.3374 53.116 29.8187 53.0425 30.6406C52.8979 30.9297 52.8979 30.9297 52.6089 31.0742C51.5971 31.1866 51.5971 31.1866 51.1624 30.8484C50.8013 30.4065 50.5524 29.9319 50.3054 29.4211C50.2554 29.319 50.2053 29.2169 50.1537 29.1117C49.0841 26.896 48.668 24.9762 48.562 22.5469C45.896 21.6339 43.2628 20.8102 40.4682 20.3789C40.3661 20.3628 40.264 20.3467 40.1587 20.3302C39.0843 20.1856 37.9999 20.2186 36.9182 20.2253C36.7152 20.2261 36.5123 20.2267 36.3093 20.2273C35.8167 20.229 35.3241 20.2314 34.8315 20.2344ZM7.79702 35.5333C7.55503 35.6138 7.31264 35.6929 7.06984 35.7709C6.72023 35.8832 6.37211 35.9993 6.02407 36.1164C5.91508 36.1506 5.80608 36.1848 5.69378 36.2201C5.35347 36.33 5.35347 36.33 4.91355 36.5664C4.80424 36.9344 4.80424 36.9344 4.76902 37.289C5.71091 37.6754 6.65784 38.0296 7.62295 38.3533C7.75456 38.3978 7.88617 38.4423 8.02176 38.4882C8.30439 38.5839 8.58707 38.6793 8.8698 38.7747C9.63712 39.0335 10.4039 39.2938 11.1707 39.5541C11.327 39.6072 11.4832 39.6602 11.6441 39.7148C12.9561 40.1609 14.2649 40.6154 15.5726 41.0738C16.3325 41.34 17.0929 41.605 17.8532 41.8701C18.4959 42.0942 19.1384 42.3183 19.7808 42.5431C20.9391 42.9486 22.0977 43.3528 23.2573 43.7546C23.7885 43.9387 24.3196 44.1235 24.8501 44.3098C33.3401 47.2891 40.4363 47.3214 48.9324 44.3891C49.2941 44.2653 49.6558 44.1415 50.0176 44.0178C52.3179 43.2304 54.6158 42.4354 56.9086 41.6263C58.356 41.1165 59.8073 40.6201 61.2628 40.1341C62.0472 39.8722 62.8309 39.6083 63.6146 39.3441C64.2828 39.119 64.9518 38.8967 65.6214 38.6761C66.0398 38.5376 66.4574 38.3967 66.8747 38.255C67.0714 38.1888 67.2685 38.1237 67.4659 38.0596C67.7378 37.9713 68.0083 37.879 68.2787 37.7864C68.4317 37.7355 68.5846 37.6845 68.7422 37.6321C69.1234 37.4629 69.1234 37.4629 69.2081 37.0502C69.2189 36.8823 69.2189 36.8823 69.23 36.7109C68.1179 36.2544 66.994 35.8374 65.8606 35.4372C65.6106 35.3463 65.6106 35.3463 65.3556 35.2535C65.1949 35.1969 65.0342 35.1404 64.8686 35.0821C64.7242 35.0306 64.5797 34.979 64.4309 34.9258C63.7576 34.7695 63.1791 35.0064 62.538 35.2239C62.3871 35.2748 62.2363 35.3258 62.0809 35.3783C61.9178 35.4339 61.7548 35.4895 61.5867 35.5468C61.4153 35.6049 61.2438 35.663 61.0672 35.7228C60.6023 35.8805 60.1376 36.0386 59.673 36.1969C59.3833 36.2956 59.0935 36.394 58.8037 36.4924C56.4559 37.2896 54.1112 38.0952 51.7717 38.9164C44.4582 41.4828 44.4582 41.4828 41.769 41.914C41.6708 41.9306 41.5725 41.9471 41.4713 41.9641C38.5193 42.4397 35.3194 42.4276 32.3745 41.914C32.2657 41.8962 32.1568 41.8783 32.0447 41.8599C30.6698 41.6301 29.3404 41.3129 28.0148 40.8814C27.8783 40.8375 27.7417 40.7935 27.601 40.7482C26.0222 40.2373 24.451 39.704 22.8806 39.168C22.5665 39.061 22.2524 38.954 21.9383 38.8471C19.5998 38.0498 17.2654 37.2405 14.9344 36.4216C13.7597 36.0092 12.5839 35.601 11.4039 35.2041C11.2377 35.1477 11.2377 35.1477 11.0681 35.0902C9.85849 34.6861 8.96369 35.1427 7.79702 35.5333ZM7.78611 42.4708C7.54515 42.5513 7.30374 42.6305 7.0619 42.7084C6.71323 42.8206 6.36607 42.9368 6.01899 43.0539C5.85618 43.1052 5.85618 43.1052 5.69007 43.1576C5.3513 43.2675 5.3513 43.2675 4.91355 43.5039C4.75391 43.8765 4.75391 43.8765 4.76902 44.2265C6.04854 44.7735 7.36792 45.2061 8.68534 45.6507C9.39746 45.8911 10.1091 46.1329 10.8207 46.3748C11.0401 46.4493 11.0401 46.4493 11.264 46.5254C12.7393 47.0276 14.2104 47.5414 15.6811 48.0566C18.4604 49.0295 21.2448 49.9865 24.0341 50.93C24.7439 51.1704 25.4525 51.4138 26.16 51.6607C28.583 52.5059 30.9835 53.2408 33.5307 53.6211C33.6347 53.6366 33.7386 53.6522 33.8456 53.6682C39.1051 54.352 44.0135 53.0243 48.9324 51.3266C49.2941 51.2028 49.6558 51.079 50.0176 50.9553C52.3179 50.1679 54.6158 49.3729 56.9086 48.5638C58.356 48.054 59.8073 47.5576 61.2628 47.0716C62.0472 46.8097 62.8309 46.5458 63.6146 46.2816C64.2828 46.0565 64.9518 45.8341 65.6214 45.6136C66.0398 45.4751 66.4574 45.3342 66.8747 45.1925C67.0714 45.1263 67.2685 45.0612 67.4659 44.9971C67.7378 44.9088 68.0083 44.8164 68.2787 44.7239C68.4317 44.673 68.5846 44.622 68.7422 44.5696C69.1234 44.4004 69.1234 44.4004 69.2081 43.9877C69.2189 43.8198 69.2189 43.8198 69.23 43.6484C68.1303 43.2033 67.0275 42.7682 65.9148 42.3567C65.7554 42.2936 65.596 42.2305 65.4318 42.1656C64.2496 41.7352 63.5961 41.7637 62.437 42.2031C62.2171 42.2774 61.9969 42.3506 61.7765 42.423C60.9586 42.6926 60.1441 42.9716 59.3296 43.251C59.0271 43.3542 58.7247 43.4575 58.4222 43.5607C56.6775 44.1571 54.9358 44.7617 53.196 45.3723C51.9415 45.8126 50.6859 46.2496 49.4292 46.6836C49.3148 46.7231 49.2005 46.7626 49.0826 46.8033C41.4976 49.419 34.2541 49.9379 26.5842 47.3611C26.3139 47.2716 26.0435 47.1822 25.7731 47.0928C22.9953 46.1714 20.2341 45.2018 17.4737 44.2297C16.2557 43.801 15.0372 43.3736 13.8183 42.9476C13.3759 42.7928 12.9338 42.6372 12.4917 42.4815C12.2224 42.3874 11.9532 42.2932 11.6839 42.1992C11.5605 42.1555 11.4371 42.1118 11.3099 42.0667C11.1966 42.0274 11.0833 41.988 10.9666 41.9474C10.8682 41.9128 10.7698 41.8783 10.6685 41.8427C9.75633 41.5886 8.65367 42.1789 7.78611 42.4708Z"/>
</mask>
<path d="M37.5776 5.78123C37.8418 5.95975 37.8418 5.95975 38.1055 6.20297C38.2554 6.34071 38.2554 6.34071 38.4084 6.48124C39.003 7.05072 39.5893 7.62764 40.1701 8.21117C40.2947 8.33516 40.4192 8.45914 40.5476 8.58689C40.6658 8.70529 40.784 8.82369 40.9058 8.94568C41.0127 9.05277 41.1196 9.15986 41.2298 9.2702C41.6503 9.72207 41.6758 10.0835 41.6634 10.6987C41.6245 10.9844 41.6245 10.9844 41.4077 11.3457C41.0021 11.5891 40.6765 11.6699 40.2018 11.6477C39.5805 11.4778 39.1709 11.0023 38.7339 10.5508C38.6146 10.4345 38.4954 10.3183 38.3725 10.1985C38.301 10.1239 38.2295 10.0494 38.1557 9.97264C37.9913 10.4499 37.8396 10.9283 37.7046 11.4146C37.0916 13.5961 36.2609 15.6804 35.4096 17.7773C35.5099 17.7758 35.6101 17.7743 35.7133 17.7727C40.4535 17.7108 44.5173 18.5074 48.9956 20.0898C49.0271 19.9181 49.0586 19.7463 49.091 19.5693C49.3109 18.5803 49.7004 17.6518 50.0705 16.7114C50.5496 15.4922 50.9976 14.283 51.3081 13.0078C51.2423 13.0744 51.1765 13.1411 51.1087 13.2097C50.6679 13.6458 50.3272 13.9391 49.6911 13.9653C49.1401 13.875 49.1401 13.875 48.7878 13.6311C48.529 13.248 48.4285 13.0376 48.4175 12.5742C48.7046 11.8772 49.1093 11.3883 49.642 10.8686C49.7177 10.7932 49.7934 10.7178 49.8714 10.6401C50.0304 10.482 50.1899 10.3245 50.3499 10.1675C50.5953 9.9267 50.839 9.68434 51.0825 9.44166C51.2376 9.28791 51.3928 9.13425 51.548 8.98068C51.6576 8.87207 51.6576 8.87207 51.7693 8.76126C52.2435 8.29673 52.4652 8.11355 53.1328 8.02147C53.6679 8.03008 53.9037 8.1572 54.2936 8.5183C54.3935 8.61024 54.4935 8.70218 54.5965 8.79691C54.7037 8.89873 54.8109 9.00055 54.9214 9.10545C55.0355 9.21249 55.1495 9.31952 55.2671 9.4298C55.6314 9.77564 55.9904 10.1264 56.3486 10.4785C56.4719 10.5964 56.5953 10.7144 56.7224 10.8359C57.8536 11.951 57.8536 11.951 57.9565 12.8633C57.6609 13.6615 57.6609 13.6615 57.2339 13.875C56.2782 14.0068 56.2782 14.0068 55.7648 13.6695C55.4703 13.4114 55.1937 13.1446 54.9214 12.8633C54.7425 12.6889 54.7425 12.6889 54.56 12.511C54.4885 12.4364 54.417 12.3619 54.3432 12.2851C54.1771 12.7675 54.0241 13.2511 53.8871 13.7423C53.4359 15.3412 52.881 16.8717 52.2371 18.4036C52.1472 18.6198 52.1472 18.6198 52.0556 18.8404C52.0021 18.9666 51.9485 19.0928 51.8934 19.2227C51.6945 19.7909 51.5728 20.3679 51.4526 20.957C51.5348 20.9848 51.617 21.0126 51.7016 21.0412C55.8924 22.4583 60.0804 23.8825 64.2535 25.3512C64.9723 25.6036 65.6925 25.8516 66.4141 26.0958C66.8723 26.2511 67.33 26.408 67.7876 26.5651C67.9986 26.6371 68.21 26.7083 68.4216 26.7786C69.7004 27.2036 70.707 27.5879 71.5334 28.7075C71.7974 29.546 71.877 30.4463 71.5498 31.2786C70.981 32.2367 70.2606 32.7008 69.2119 33.0615C68.9475 33.1543 68.9475 33.1543 68.6778 33.2489C68.2182 33.3867 68.2182 33.3867 67.7846 33.3867C67.7846 33.4821 67.7846 33.5775 67.7846 33.6758C68.0619 33.7294 68.0619 33.7294 68.3447 33.7842C69.726 34.1013 70.727 34.4847 71.5425 35.6992C71.8242 36.5444 71.7997 37.509 71.5334 38.355C70.6714 39.5229 69.5813 39.9246 68.2182 40.3242C68.1228 40.3242 68.0275 40.3242 67.9292 40.3242C67.9292 40.4196 67.9292 40.515 67.9292 40.6133C68.0795 40.6398 68.0795 40.6398 68.2329 40.6669C69.4965 40.9411 70.5606 41.3332 71.3731 42.3668C71.8356 43.1038 71.7459 43.9671 71.687 44.8047C71.438 45.5955 70.9189 46.0837 70.2417 46.539C69.6116 46.8292 68.9571 47.0434 68.2995 47.2617C68.0932 47.3322 67.887 47.4029 67.6808 47.4738C67.1946 47.6405 66.7079 47.8058 66.2209 47.9704C65.1566 48.3306 64.0944 48.6968 63.0321 49.0627C62.62 49.2046 62.2079 49.3465 61.7959 49.4884C61.6413 49.5416 61.6413 49.5416 61.4836 49.5959C60.7673 49.8425 60.0508 50.0885 59.3341 50.3341C59.1374 50.4016 58.9408 50.469 58.7441 50.5364C58.4578 50.6346 58.1714 50.7327 57.8851 50.8308C57.011 51.1302 56.1373 51.4301 55.2675 51.7417C55.1516 51.7833 55.0356 51.8248 54.9161 51.8676C54.712 51.9412 54.5081 52.0153 54.3045 52.0902C53.9076 52.2336 53.6135 52.3203 53.187 52.3203C53.2446 52.4587 53.3021 52.5972 53.3614 52.7398C54.6224 55.8691 54.8948 59.044 53.6657 62.2388C52.3175 65.387 52.3175 65.387 51.5971 65.9062C51.1538 66.0042 50.7416 65.9914 50.2964 65.9062C49.8709 65.5534 49.739 65.3424 49.6674 64.7957C49.7356 64.1523 50.0014 63.7214 50.3235 63.1692C51.775 60.5606 52.2159 58.1234 51.4526 55.2109C51.2741 54.6274 51.0816 54.0506 50.8745 53.4765C50.2559 53.4765 49.7911 53.627 49.2186 53.8305C49.0005 53.906 48.7823 53.9814 48.5642 54.0567C48.3933 54.1161 48.3933 54.1161 48.2189 54.1767C44.779 55.3663 41.2565 56.3685 37.5776 56.2226C37.6432 56.3985 37.7088 56.5744 37.7763 56.7556C38.8146 59.8951 38.2751 63.0789 36.8233 65.9757C36.6005 66.4093 36.3756 66.8419 36.1447 67.2714C36.0971 67.3601 36.0495 67.4488 36.0004 67.5402C35.8285 67.8081 35.6499 68.0101 35.4096 68.2187C34.8047 68.3424 34.2725 68.3145 33.7385 68.0019C33.4515 67.5028 33.4569 67.042 33.5307 66.4844C33.7583 66 33.7583 66 34.0637 65.5268C35.562 63.0895 35.96 60.6833 35.4023 57.9152C35.252 57.3277 35.0537 56.7865 34.8315 56.2226C34.6158 56.2014 34.6158 56.2014 34.3957 56.1797C31.1091 55.8369 28.1038 54.9621 24.9882 53.8926C24.8735 53.8533 24.7588 53.8139 24.6407 53.7734C24.0628 53.5749 23.4853 53.3756 22.9082 53.1748C22.8004 53.1374 22.6926 53.1001 22.5816 53.0616C22.377 52.9908 22.1726 52.9195 21.9684 52.8479C21.474 52.6692 21.474 52.6692 20.9565 52.6094C21.0158 52.7754 21.075 52.9414 21.1361 53.1124C22.3683 56.6345 22.4414 59.8967 20.812 63.3047C19.7116 65.5534 19.7116 65.5534 19.2221 65.9062C18.7788 66.0042 18.3666 65.9914 17.9214 65.9062C17.4959 65.5534 17.364 65.3424 17.2924 64.7957C17.3606 64.1523 17.6264 63.7214 17.9485 63.1692C19.3902 60.5782 19.8692 58.1046 19.0776 55.2109C18.907 54.6794 18.7217 54.1536 18.5258 53.6309C18.3105 53.0563 18.1559 52.5089 18.0388 51.9048C17.957 51.5888 17.957 51.5888 17.7768 51.3086C17.4696 51.1659 17.4696 51.1659 17.0947 51.0981C16.0802 50.8545 15.1054 50.5186 14.1201 50.1777C13.9226 50.1098 13.7251 50.0419 13.5276 49.974C13.1148 49.8321 12.7022 49.6898 12.2897 49.5473C11.7712 49.3681 11.2524 49.1897 10.7336 49.0114C9.73883 48.6696 8.74492 48.3255 7.75197 47.9785C7.16045 47.772 6.56748 47.5704 5.97361 47.3709C5.69042 47.2734 5.40726 47.1759 5.12414 47.0782C4.93843 47.0176 4.93843 47.0176 4.74897 46.9559C3.7757 46.6143 2.91288 46.0679 2.38708 45.1564C2.20426 44.3001 2.20242 43.4184 2.46556 42.5825C3.32441 41.4189 4.41704 41.0004 5.78074 40.6133C5.92383 40.6133 6.06691 40.6133 6.21433 40.6133C6.21433 40.5179 6.21433 40.4225 6.21433 40.3242C6.02952 40.2884 5.8447 40.2527 5.65428 40.2158C4.27296 39.8987 3.27201 39.5153 2.45652 38.3008C2.17479 37.4556 2.19925 36.4909 2.46556 35.645C3.39479 34.386 4.63462 34.0171 6.0698 33.5312C5.89374 33.4716 5.71768 33.412 5.53628 33.3506C2.99719 32.4545 2.99719 32.4545 2.45652 31.3633C2.112 30.4963 2.09104 29.705 2.42215 28.829C2.93879 27.8 3.93282 27.3304 4.97513 26.9681C5.13367 26.9161 5.2922 26.8641 5.45555 26.8105C5.71803 26.7205 5.98052 26.6306 6.24301 26.5406C6.5388 26.4398 6.83504 26.3404 7.13142 26.2413C7.89827 25.9847 8.66334 25.7229 9.42846 25.4612C10.2745 25.1719 11.1206 24.8829 11.9675 24.596C12.2315 24.5065 12.4955 24.417 12.7595 24.3275C12.8849 24.2851 13.0103 24.2426 13.1395 24.1989C13.9216 23.9331 14.6986 23.6567 15.4697 23.3598C15.7534 23.2695 15.7534 23.2695 16.187 23.2695C16.1786 23.1762 16.1702 23.0828 16.1616 22.9867C16.0459 20.5712 17.0632 18.2943 17.9326 16.0884C18.331 15.0732 18.6743 14.0677 18.9331 13.0078C18.8673 13.0744 18.8015 13.1411 18.7337 13.2097C18.2929 13.6458 17.9522 13.9391 17.3161 13.9653C16.7651 13.875 16.7651 13.875 16.4128 13.6311C16.154 13.248 16.0535 13.0376 16.0425 12.5742C16.3296 11.8772 16.7343 11.3883 17.267 10.8686C17.3427 10.7932 17.4184 10.7178 17.4964 10.6401C17.6554 10.482 17.8149 10.3245 17.9749 10.1675C18.2203 9.9267 18.464 9.68434 18.7075 9.44166C18.8626 9.28791 19.0178 9.13425 19.173 8.98068C19.2461 8.90827 19.3191 8.83587 19.3943 8.76126C19.8685 8.29673 20.0902 8.11355 20.7578 8.02147C21.2929 8.03008 21.5287 8.1572 21.9186 8.5183C22.0185 8.61024 22.1185 8.70218 22.2215 8.79691C22.3287 8.89873 22.4359 9.00055 22.5464 9.10545C22.6605 9.21249 22.7745 9.31952 22.8921 9.4298C23.2564 9.77564 23.6154 10.1264 23.9736 10.4785C24.1586 10.6554 24.1586 10.6554 24.3474 10.8359C25.4786 11.951 25.4786 11.951 25.5815 12.8633C25.2859 13.6615 25.2859 13.6615 24.8589 13.875C23.9032 14.0068 23.9032 14.0068 23.3898 13.6695C23.0953 13.4114 22.8187 13.1446 22.5464 12.8633C22.4271 12.747 22.3079 12.6308 22.185 12.511C22.1135 12.4364 22.042 12.3619 21.9682 12.2851C21.8021 12.7675 21.6491 13.2511 21.5121 13.7423C21.0719 15.3028 20.5374 16.7976 19.9002 18.2893C19.3603 19.5809 18.9991 20.9064 18.644 22.2578C18.7393 22.2253 18.8346 22.1928 18.9328 22.1594C19.8443 21.8488 20.7559 21.5385 21.6676 21.2286C22.136 21.0693 22.6043 20.91 23.0726 20.7504C24.2933 20.3344 25.5149 19.9212 26.7378 19.5117C26.8779 19.4646 27.0181 19.4174 27.1625 19.3689C28.3771 18.9627 29.5366 18.6025 30.8119 18.4442C31.9473 18.3044 31.9473 18.3044 32.8662 17.692C33.1951 17.0754 33.3059 16.4037 33.4365 15.7232C33.6164 14.9539 33.9275 14.2289 34.2173 13.4956C34.5764 12.5695 34.9039 11.6656 35.1206 10.6953C35.0312 10.7892 35.0312 10.7892 34.9399 10.885C34.4882 11.3205 34.1491 11.6262 33.5036 11.6528C32.9526 11.5625 32.9526 11.5625 32.5913 11.3457C32.3464 10.9376 32.2658 10.6117 32.2921 10.1343C32.3923 9.76204 32.538 9.58494 32.7979 9.30136C32.8895 9.20124 32.9811 9.10112 33.0754 8.99797C33.6434 8.40195 34.2209 7.81638 34.8044 7.23558C34.9284 7.11103 35.0524 6.98648 35.1801 6.85816C35.2985 6.73995 35.4169 6.62173 35.5389 6.49994C35.6996 6.33954 35.6996 6.33954 35.8635 6.17591C36.3695 5.70507 36.912 5.64027 37.5776 5.78123ZM34.8315 20.2344C34.8256 20.5763 34.8213 20.9182 34.818 21.2602C34.8142 21.5458 34.8142 21.5458 34.8104 21.8372C34.8788 23.6633 35.8759 25.3459 36.7426 26.9133C36.952 27.3951 36.8963 27.8077 36.855 28.3281C36.7104 28.6172 36.7104 28.6172 36.4214 28.7617C35.4093 28.8742 35.4093 28.8742 34.9749 28.5353C34.6153 28.096 34.3648 27.6253 34.1179 27.1177C34.0679 27.0159 34.0178 26.9142 33.9662 26.8094C33.0001 24.8043 32.5047 22.8845 32.3745 20.668C31.4455 20.7493 30.5978 20.9136 29.7046 21.1778C29.5748 21.2155 29.445 21.2533 29.3113 21.2922C27.6455 21.7851 26.0044 22.3523 24.362 22.9172C24.0449 23.0256 23.7277 23.1339 23.4104 23.2421C21.8658 23.77 20.3232 24.303 18.7886 24.8594C18.9836 26.3955 19.6627 27.8527 20.484 29.1597C20.7809 29.685 20.7252 30.0444 20.6675 30.6406C20.5229 30.9297 20.5229 30.9297 20.2339 31.0742C19.2221 31.1866 19.2221 31.1866 18.7874 30.8484C18.4263 30.4065 18.1775 29.9318 17.9304 29.4211C17.8804 29.3195 17.8303 29.218 17.7787 29.1133C17.3948 28.3211 17.0667 27.5186 16.7662 26.6908C16.6395 26.3549 16.4946 26.0457 16.3315 25.7265C15.3336 26.0645 14.3357 26.4025 13.3379 26.7408C12.8741 26.898 12.4104 27.0551 11.9466 27.2122C11.7685 27.2725 11.5905 27.3327 11.407 27.3949C11.2293 27.455 11.0516 27.5152 10.8685 27.5772C10.3355 27.7581 9.80291 27.9404 9.27031 28.1226C8.59391 28.3536 7.91578 28.5774 7.23516 28.7956C7.08006 28.8464 6.92495 28.8973 6.76515 28.9497C6.4748 29.0448 6.18367 29.1376 5.89173 29.2278C5.70043 29.2914 5.70043 29.2914 5.50526 29.3562C5.39383 29.3917 5.2824 29.4271 5.1676 29.4636C4.87254 29.6162 4.87254 29.6162 4.80431 30.0073C4.79266 30.1209 4.78102 30.2345 4.76902 30.3515C6.04854 30.8985 7.36792 31.3311 8.68534 31.7757C9.39746 32.0161 10.1091 32.2579 10.8207 32.4998C11.0401 32.5743 11.0401 32.5743 11.264 32.6504C12.7393 33.1526 14.2104 33.6664 15.6811 34.1816C18.4604 35.1545 21.2448 36.1115 24.0341 37.055C24.7439 37.2954 25.4525 37.5388 26.16 37.7857C30.9281 39.4489 35.6228 40.4008 40.6941 39.719C40.8051 39.7044 40.9162 39.6898 41.0307 39.6748C43.5952 39.2815 46.0564 38.4431 48.4988 37.5962C48.8169 37.4869 49.1351 37.3776 49.4532 37.2685C51.7182 36.4904 53.9796 35.7016 56.2397 34.9096C58.1062 34.256 59.9771 33.6159 61.8498 32.9802C65.6067 31.8267 65.6067 31.8267 69.23 30.3515C69.23 30.1608 69.23 29.97 69.23 29.7734C67.049 28.9233 64.829 28.1823 62.6142 27.4263C61.6396 27.0934 60.6652 26.7598 59.6909 26.4261C59.5844 26.3896 59.4779 26.3531 59.3682 26.3155C58.0195 25.8536 56.6724 25.3878 55.3279 24.9141C55.19 24.8656 55.0522 24.8171 54.9102 24.7671C54.2914 24.5489 53.6729 24.3297 53.0549 24.1093C52.843 24.0343 52.6311 23.9593 52.4192 23.8843C52.1517 23.7889 52.1517 23.7889 51.8789 23.6916C51.458 23.5371 51.458 23.5371 51.019 23.5586C50.9551 25.4257 51.6704 27.0515 52.6165 28.6265C53.0272 29.3374 53.116 29.8187 53.0425 30.6406C52.8979 30.9297 52.8979 30.9297 52.6089 31.0742C51.5971 31.1866 51.5971 31.1866 51.1624 30.8484C50.8013 30.4065 50.5524 29.9319 50.3054 29.4211C50.2554 29.319 50.2053 29.2169 50.1537 29.1117C49.0841 26.896 48.668 24.9762 48.562 22.5469C45.896 21.6339 43.2628 20.8102 40.4682 20.3789C40.3661 20.3628 40.264 20.3467 40.1587 20.3302C39.0843 20.1856 37.9999 20.2186 36.9182 20.2253C36.7152 20.2261 36.5123 20.2267 36.3093 20.2273C35.8167 20.229 35.3241 20.2314 34.8315 20.2344ZM7.79702 35.5333C7.55503 35.6138 7.31264 35.6929 7.06984 35.7709C6.72023 35.8832 6.37211 35.9993 6.02407 36.1164C5.91508 36.1506 5.80608 36.1848 5.69378 36.2201C5.35347 36.33 5.35347 36.33 4.91355 36.5664C4.80424 36.9344 4.80424 36.9344 4.76902 37.289C5.71091 37.6754 6.65784 38.0296 7.62295 38.3533C7.75456 38.3978 7.88617 38.4423 8.02176 38.4882C8.30439 38.5839 8.58707 38.6793 8.8698 38.7747C9.63712 39.0335 10.4039 39.2938 11.1707 39.5541C11.327 39.6072 11.4832 39.6602 11.6441 39.7148C12.9561 40.1609 14.2649 40.6154 15.5726 41.0738C16.3325 41.34 17.0929 41.605 17.8532 41.8701C18.4959 42.0942 19.1384 42.3183 19.7808 42.5431C20.9391 42.9486 22.0977 43.3528 23.2573 43.7546C23.7885 43.9387 24.3196 44.1235 24.8501 44.3098C33.3401 47.2891 40.4363 47.3214 48.9324 44.3891C49.2941 44.2653 49.6558 44.1415 50.0176 44.0178C52.3179 43.2304 54.6158 42.4354 56.9086 41.6263C58.356 41.1165 59.8073 40.6201 61.2628 40.1341C62.0472 39.8722 62.8309 39.6083 63.6146 39.3441C64.2828 39.119 64.9518 38.8967 65.6214 38.6761C66.0398 38.5376 66.4574 38.3967 66.8747 38.255C67.0714 38.1888 67.2685 38.1237 67.4659 38.0596C67.7378 37.9713 68.0083 37.879 68.2787 37.7864C68.4317 37.7355 68.5846 37.6845 68.7422 37.6321C69.1234 37.4629 69.1234 37.4629 69.2081 37.0502C69.2189 36.8823 69.2189 36.8823 69.23 36.7109C68.1179 36.2544 66.994 35.8374 65.8606 35.4372C65.6106 35.3463 65.6106 35.3463 65.3556 35.2535C65.1949 35.1969 65.0342 35.1404 64.8686 35.0821C64.7242 35.0306 64.5797 34.979 64.4309 34.9258C63.7576 34.7695 63.1791 35.0064 62.538 35.2239C62.3871 35.2748 62.2363 35.3258 62.0809 35.3783C61.9178 35.4339 61.7548 35.4895 61.5867 35.5468C61.4153 35.6049 61.2438 35.663 61.0672 35.7228C60.6023 35.8805 60.1376 36.0386 59.673 36.1969C59.3833 36.2956 59.0935 36.394 58.8037 36.4924C56.4559 37.2896 54.1112 38.0952 51.7717 38.9164C44.4582 41.4828 44.4582 41.4828 41.769 41.914C41.6708 41.9306 41.5725 41.9471 41.4713 41.9641C38.5193 42.4397 35.3194 42.4276 32.3745 41.914C32.2657 41.8962 32.1568 41.8783 32.0447 41.8599C30.6698 41.6301 29.3404 41.3129 28.0148 40.8814C27.8783 40.8375 27.7417 40.7935 27.601 40.7482C26.0222 40.2373 24.451 39.704 22.8806 39.168C22.5665 39.061 22.2524 38.954 21.9383 38.8471C19.5998 38.0498 17.2654 37.2405 14.9344 36.4216C13.7597 36.0092 12.5839 35.601 11.4039 35.2041C11.2377 35.1477 11.2377 35.1477 11.0681 35.0902C9.85849 34.6861 8.96369 35.1427 7.79702 35.5333ZM7.78611 42.4708C7.54515 42.5513 7.30374 42.6305 7.0619 42.7084C6.71323 42.8206 6.36607 42.9368 6.01899 43.0539C5.85618 43.1052 5.85618 43.1052 5.69007 43.1576C5.3513 43.2675 5.3513 43.2675 4.91355 43.5039C4.75391 43.8765 4.75391 43.8765 4.76902 44.2265C6.04854 44.7735 7.36792 45.2061 8.68534 45.6507C9.39746 45.8911 10.1091 46.1329 10.8207 46.3748C11.0401 46.4493 11.0401 46.4493 11.264 46.5254C12.7393 47.0276 14.2104 47.5414 15.6811 48.0566C18.4604 49.0295 21.2448 49.9865 24.0341 50.93C24.7439 51.1704 25.4525 51.4138 26.16 51.6607C28.583 52.5059 30.9835 53.2408 33.5307 53.6211C33.6347 53.6366 33.7386 53.6522 33.8456 53.6682C39.1051 54.352 44.0135 53.0243 48.9324 51.3266C49.2941 51.2028 49.6558 51.079 50.0176 50.9553C52.3179 50.1679 54.6158 49.3729 56.9086 48.5638C58.356 48.054 59.8073 47.5576 61.2628 47.0716C62.0472 46.8097 62.8309 46.5458 63.6146 46.2816C64.2828 46.0565 64.9518 45.8341 65.6214 45.6136C66.0398 45.4751 66.4574 45.3342 66.8747 45.1925C67.0714 45.1263 67.2685 45.0612 67.4659 44.9971C67.7378 44.9088 68.0083 44.8164 68.2787 44.7239C68.4317 44.673 68.5846 44.622 68.7422 44.5696C69.1234 44.4004 69.1234 44.4004 69.2081 43.9877C69.2189 43.8198 69.2189 43.8198 69.23 43.6484C68.1303 43.2033 67.0275 42.7682 65.9148 42.3567C65.7554 42.2936 65.596 42.2305 65.4318 42.1656C64.2496 41.7352 63.5961 41.7637 62.437 42.2031C62.2171 42.2774 61.9969 42.3506 61.7765 42.423C60.9586 42.6926 60.1441 42.9716 59.3296 43.251C59.0271 43.3542 58.7247 43.4575 58.4222 43.5607C56.6775 44.1571 54.9358 44.7617 53.196 45.3723C51.9415 45.8126 50.6859 46.2496 49.4292 46.6836C49.3148 46.7231 49.2005 46.7626 49.0826 46.8033C41.4976 49.419 34.2541 49.9379 26.5842 47.3611C26.3139 47.2716 26.0435 47.1822 25.7731 47.0928C22.9953 46.1714 20.2341 45.2018 17.4737 44.2297C16.2557 43.801 15.0372 43.3736 13.8183 42.9476C13.3759 42.7928 12.9338 42.6372 12.4917 42.4815C12.2224 42.3874 11.9532 42.2932 11.6839 42.1992C11.5605 42.1555 11.4371 42.1118 11.3099 42.0667C11.1966 42.0274 11.0833 41.988 10.9666 41.9474C10.8682 41.9128 10.7698 41.8783 10.6685 41.8427C9.75633 41.5886 8.65367 42.1789 7.78611 42.4708Z" fill="white" stroke="white" stroke-width="0.8" mask="url(#path-1-inside-1_1675_2323)"/>
</svg>
