<svg width="64" height="64" viewBox="0 0 64 64" fill="none" xmlns="http://www.w3.org/2000/svg">
<g clip-path="url(#clip0_1675_2318)">
<mask id="path-1-inside-1_1675_2318" fill="white">
<path d="M36.5 11.172C37.0765 11.4451 37.3423 11.7337 37.625 12.297C37.6711 12.6512 37.6711 12.6512 37.6701 13.0461C37.6709 13.2714 37.6709 13.2714 37.6717 13.5012C37.6703 13.665 37.669 13.8287 37.6676 13.9974C37.6675 14.1724 37.6675 14.3473 37.6677 14.5223C37.6678 14.9964 37.6656 15.4705 37.663 15.9447C37.6607 16.4405 37.6605 16.9363 37.66 17.4321C37.6588 18.3706 37.6558 19.3091 37.652 20.2476C37.6478 21.3162 37.6458 22.3848 37.6439 23.4534C37.64 25.6513 37.6334 27.8492 37.625 30.047C37.7173 30.0459 37.8096 30.0448 37.9047 30.0437C38.7764 30.0336 39.648 30.026 40.5198 30.0211C40.9679 30.0185 41.416 30.015 41.8641 30.0093C42.2969 30.0039 42.7296 30.0009 43.1625 29.9996C43.4072 29.9982 43.6519 29.9943 43.8965 29.9904C45.2785 29.99 45.2785 29.99 45.875 30.547C46.2661 30.9793 46.4141 31.3263 46.4531 31.8986C46.3897 33.1541 45.2882 34.0852 44.5029 34.986C43.9875 35.5779 43.4941 36.1873 43 36.797C42.3426 37.606 41.6773 38.4072 41.002 39.2013C40.5785 39.7007 40.1684 40.2095 39.7617 40.7228C39.3936 41.1788 39.0132 41.6239 38.6333 42.07C38.2069 42.572 37.7942 43.0834 37.3853 43.5998C37.0836 43.9732 36.7728 44.3384 36.4609 44.7033C35.9853 45.2603 35.5265 45.8273 35.0781 46.4064C34.5188 47.128 33.9302 47.8192 33.3287 48.5059C32.8724 49.0277 32.4338 49.5599 32.0044 50.1042C31.6884 50.499 31.3649 50.8869 31.0391 51.2736C30.9826 51.3411 30.9261 51.4085 30.8679 51.478C29.7732 52.7721 29.7732 52.7721 29.1738 52.8268C27.8416 52.8583 27.8416 52.8583 27.25 52.297C26.9104 51.8241 26.8284 51.502 26.8299 50.923C26.8294 50.7728 26.8289 50.6226 26.8283 50.4678C26.8297 50.3041 26.831 50.1404 26.8324 49.9717C26.8325 49.7967 26.8325 49.6218 26.8323 49.4468C26.8322 48.9727 26.8344 48.4986 26.837 48.0244C26.8393 47.5286 26.8395 47.0328 26.84 46.537C26.8412 45.5985 26.8442 44.66 26.848 43.7215C26.8522 42.6529 26.8542 41.5843 26.8561 40.5156C26.86 38.3178 26.8666 36.1199 26.875 33.922C26.7827 33.9232 26.6904 33.9243 26.5953 33.9254C25.7236 33.9354 24.852 33.943 23.9802 33.9479C23.5321 33.9506 23.084 33.9541 22.6359 33.9598C22.2031 33.9652 21.7704 33.9682 21.3375 33.9695C21.0928 33.9708 20.8481 33.9747 20.6035 33.9787C19.2215 33.979 19.2215 33.979 18.625 33.422C18.2339 32.9898 18.0859 32.6428 18.0469 32.0705C18.1103 30.815 19.2118 29.8838 19.9971 28.9831C20.5125 28.3912 21.0059 27.7818 21.5 27.172C22.1574 26.363 22.8227 25.5619 23.498 24.7678C23.9215 24.2684 24.3316 23.7596 24.7383 23.2463C25.1064 22.7903 25.4868 22.3452 25.8667 21.8991C26.2931 21.3971 26.7058 20.8857 27.1147 20.3693C27.4164 19.9958 27.7272 19.6307 28.0391 19.2658C28.5147 18.7087 28.9735 18.1418 29.4219 17.5627C29.9812 16.8411 30.5698 16.1498 31.1713 15.4632C31.6276 14.9414 32.0662 14.4092 32.4956 13.8649C32.8116 13.4701 33.1351 13.0822 33.4609 12.6955C33.5457 12.5943 33.5457 12.5943 33.6321 12.4911C34.5691 11.3834 35.0371 11.0344 36.5 11.172ZM33.75 18.422C33.5922 18.6034 33.4397 18.7894 33.2891 18.9767C33.1877 19.1019 33.0864 19.2271 32.9819 19.3561C32.9253 19.4262 32.8686 19.4963 32.8102 19.5686C32.4641 19.9954 32.1149 20.4196 31.7656 20.8439C31.6907 20.935 31.6158 21.026 31.5387 21.1198C31.0212 21.7476 30.4976 22.3698 29.9703 22.9894C29.5566 23.4767 29.157 23.9737 28.7603 24.4748C28.4586 24.8482 28.1478 25.2134 27.8359 25.5783C27.3012 26.2046 26.7903 26.8458 26.2863 27.497C25.7594 28.172 25.2001 28.817 24.6329 29.4584C24.2871 29.775 24.2871 29.775 24.125 30.172C24.2846 30.1739 24.4441 30.1757 24.6085 30.1776C25.2014 30.1848 25.7943 30.1945 26.3871 30.2048C26.6435 30.209 26.9 30.2125 27.1564 30.2153C27.5254 30.2195 27.8943 30.2261 28.2632 30.2331C28.3775 30.2339 28.4919 30.2347 28.6097 30.2355C29.2094 30.2493 29.651 30.2641 30.125 30.672C30.6272 31.2743 30.5551 31.9313 30.554 32.6761C30.556 32.8847 30.556 32.8847 30.5579 33.0976C30.5617 33.5568 30.5628 34.016 30.564 34.4753C30.5661 34.7939 30.5683 35.1125 30.5708 35.431C30.5761 36.1836 30.5798 36.9362 30.5827 37.6888C30.5861 38.5458 30.5916 39.4028 30.5972 40.2598C30.6088 42.0222 30.6178 43.7846 30.625 45.547C31.0782 45.0983 31.5047 44.6373 31.9141 44.1486C31.9742 44.0771 32.0344 44.0057 32.0964 43.932C32.5274 43.4185 32.947 42.8967 33.3633 42.3713C33.7314 41.9153 34.1118 41.4702 34.4917 41.0241C34.9181 40.5221 35.3308 40.0107 35.7397 39.4943C36.0414 39.1208 36.3522 38.7557 36.6641 38.3908C37.1988 37.7645 37.7097 37.1233 38.2137 36.4721C38.7406 35.7971 39.2999 35.1521 39.8671 34.5107C40.2129 34.1941 40.2129 34.1941 40.375 33.797C40.2154 33.7952 40.0559 33.7934 39.8915 33.7915C39.2986 33.7843 38.7057 33.7746 38.1129 33.7642C37.8565 33.7601 37.6 33.7566 37.3436 33.7537C36.9746 33.7495 36.6057 33.743 36.2368 33.736C36.1225 33.7352 36.0081 33.7344 35.8903 33.7336C35.2906 33.7198 34.849 33.7049 34.375 33.297C33.8728 32.6948 33.9449 32.0377 33.946 31.293C33.944 31.0844 33.944 31.0844 33.9421 30.8715C33.9383 30.4123 33.9372 29.9531 33.936 29.4938C33.9339 29.1752 33.9317 28.8566 33.9292 28.538C33.9239 27.7855 33.9202 27.0329 33.9173 26.2803C33.9139 25.4233 33.9084 24.5663 33.9028 23.7093C33.8912 21.9469 33.8822 20.1845 33.875 18.422C33.8337 18.422 33.7925 18.422 33.75 18.422Z"/>
</mask>
<path d="M36.5 11.172C37.0765 11.4451 37.3423 11.7337 37.625 12.297C37.6711 12.6512 37.6711 12.6512 37.6701 13.0461C37.6709 13.2714 37.6709 13.2714 37.6717 13.5012C37.6703 13.665 37.669 13.8287 37.6676 13.9974C37.6675 14.1724 37.6675 14.3473 37.6677 14.5223C37.6678 14.9964 37.6656 15.4705 37.663 15.9447C37.6607 16.4405 37.6605 16.9363 37.66 17.4321C37.6588 18.3706 37.6558 19.3091 37.652 20.2476C37.6478 21.3162 37.6458 22.3848 37.6439 23.4534C37.64 25.6513 37.6334 27.8492 37.625 30.047C37.7173 30.0459 37.8096 30.0448 37.9047 30.0437C38.7764 30.0336 39.648 30.026 40.5198 30.0211C40.9679 30.0185 41.416 30.015 41.8641 30.0093C42.2969 30.0039 42.7296 30.0009 43.1625 29.9996C43.4072 29.9982 43.6519 29.9943 43.8965 29.9904C45.2785 29.99 45.2785 29.99 45.875 30.547C46.2661 30.9793 46.4141 31.3263 46.4531 31.8986C46.3897 33.1541 45.2882 34.0852 44.5029 34.986C43.9875 35.5779 43.4941 36.1873 43 36.797C42.3426 37.606 41.6773 38.4072 41.002 39.2013C40.5785 39.7007 40.1684 40.2095 39.7617 40.7228C39.3936 41.1788 39.0132 41.6239 38.6333 42.07C38.2069 42.572 37.7942 43.0834 37.3853 43.5998C37.0836 43.9732 36.7728 44.3384 36.4609 44.7033C35.9853 45.2603 35.5265 45.8273 35.0781 46.4064C34.5188 47.128 33.9302 47.8192 33.3287 48.5059C32.8724 49.0277 32.4338 49.5599 32.0044 50.1042C31.6884 50.499 31.3649 50.8869 31.0391 51.2736C30.9826 51.3411 30.9261 51.4085 30.8679 51.478C29.7732 52.7721 29.7732 52.7721 29.1738 52.8268C27.8416 52.8583 27.8416 52.8583 27.25 52.297C26.9104 51.8241 26.8284 51.502 26.8299 50.923C26.8294 50.7728 26.8289 50.6226 26.8283 50.4678C26.8297 50.3041 26.831 50.1404 26.8324 49.9717C26.8325 49.7967 26.8325 49.6218 26.8323 49.4468C26.8322 48.9727 26.8344 48.4986 26.837 48.0244C26.8393 47.5286 26.8395 47.0328 26.84 46.537C26.8412 45.5985 26.8442 44.66 26.848 43.7215C26.8522 42.6529 26.8542 41.5843 26.8561 40.5156C26.86 38.3178 26.8666 36.1199 26.875 33.922C26.7827 33.9232 26.6904 33.9243 26.5953 33.9254C25.7236 33.9354 24.852 33.943 23.9802 33.9479C23.5321 33.9506 23.084 33.9541 22.6359 33.9598C22.2031 33.9652 21.7704 33.9682 21.3375 33.9695C21.0928 33.9708 20.8481 33.9747 20.6035 33.9787C19.2215 33.979 19.2215 33.979 18.625 33.422C18.2339 32.9898 18.0859 32.6428 18.0469 32.0705C18.1103 30.815 19.2118 29.8838 19.9971 28.9831C20.5125 28.3912 21.0059 27.7818 21.5 27.172C22.1574 26.363 22.8227 25.5619 23.498 24.7678C23.9215 24.2684 24.3316 23.7596 24.7383 23.2463C25.1064 22.7903 25.4868 22.3452 25.8667 21.8991C26.2931 21.3971 26.7058 20.8857 27.1147 20.3693C27.4164 19.9958 27.7272 19.6307 28.0391 19.2658C28.5147 18.7087 28.9735 18.1418 29.4219 17.5627C29.9812 16.8411 30.5698 16.1498 31.1713 15.4632C31.6276 14.9414 32.0662 14.4092 32.4956 13.8649C32.8116 13.4701 33.1351 13.0822 33.4609 12.6955C33.5457 12.5943 33.5457 12.5943 33.6321 12.4911C34.5691 11.3834 35.0371 11.0344 36.5 11.172ZM33.75 18.422C33.5922 18.6034 33.4397 18.7894 33.2891 18.9767C33.1877 19.1019 33.0864 19.2271 32.9819 19.3561C32.9253 19.4262 32.8686 19.4963 32.8102 19.5686C32.4641 19.9954 32.1149 20.4196 31.7656 20.8439C31.6907 20.935 31.6158 21.026 31.5387 21.1198C31.0212 21.7476 30.4976 22.3698 29.9703 22.9894C29.5566 23.4767 29.157 23.9737 28.7603 24.4748C28.4586 24.8482 28.1478 25.2134 27.8359 25.5783C27.3012 26.2046 26.7903 26.8458 26.2863 27.497C25.7594 28.172 25.2001 28.817 24.6329 29.4584C24.2871 29.775 24.2871 29.775 24.125 30.172C24.2846 30.1739 24.4441 30.1757 24.6085 30.1776C25.2014 30.1848 25.7943 30.1945 26.3871 30.2048C26.6435 30.209 26.9 30.2125 27.1564 30.2153C27.5254 30.2195 27.8943 30.2261 28.2632 30.2331C28.3775 30.2339 28.4919 30.2347 28.6097 30.2355C29.2094 30.2493 29.651 30.2641 30.125 30.672C30.6272 31.2743 30.5551 31.9313 30.554 32.6761C30.556 32.8847 30.556 32.8847 30.5579 33.0976C30.5617 33.5568 30.5628 34.016 30.564 34.4753C30.5661 34.7939 30.5683 35.1125 30.5708 35.431C30.5761 36.1836 30.5798 36.9362 30.5827 37.6888C30.5861 38.5458 30.5916 39.4028 30.5972 40.2598C30.6088 42.0222 30.6178 43.7846 30.625 45.547C31.0782 45.0983 31.5047 44.6373 31.9141 44.1486C31.9742 44.0771 32.0344 44.0057 32.0964 43.932C32.5274 43.4185 32.947 42.8967 33.3633 42.3713C33.7314 41.9153 34.1118 41.4702 34.4917 41.0241C34.9181 40.5221 35.3308 40.0107 35.7397 39.4943C36.0414 39.1208 36.3522 38.7557 36.6641 38.3908C37.1988 37.7645 37.7097 37.1233 38.2137 36.4721C38.7406 35.7971 39.2999 35.1521 39.8671 34.5107C40.2129 34.1941 40.2129 34.1941 40.375 33.797C40.2154 33.7952 40.0559 33.7934 39.8915 33.7915C39.2986 33.7843 38.7057 33.7746 38.1129 33.7642C37.8565 33.7601 37.6 33.7566 37.3436 33.7537C36.9746 33.7495 36.6057 33.743 36.2368 33.736C36.1225 33.7352 36.0081 33.7344 35.8903 33.7336C35.2906 33.7198 34.849 33.7049 34.375 33.297C33.8728 32.6948 33.9449 32.0377 33.946 31.293C33.944 31.0844 33.944 31.0844 33.9421 30.8715C33.9383 30.4123 33.9372 29.9531 33.936 29.4938C33.9339 29.1752 33.9317 28.8566 33.9292 28.538C33.9239 27.7855 33.9202 27.0329 33.9173 26.2803C33.9139 25.4233 33.9084 24.5663 33.9028 23.7093C33.8912 21.9469 33.8822 20.1845 33.875 18.422C33.8337 18.422 33.7925 18.422 33.75 18.422Z" fill="white" stroke="white" stroke-width="2" mask="url(#path-1-inside-1_1675_2318)"/>
<path d="M59.6914 38.8555C59.7992 38.8568 59.9085 38.8729 60.0879 38.9023C60.8701 39.3267 61.1741 39.9812 61.5742 40.9639L61.5752 40.9668L61.7236 41.3242C61.8786 41.6978 62.0326 42.072 62.1865 42.4473L62.1875 42.4492C62.3432 42.8259 62.4984 43.2027 62.6543 43.5791L62.9443 44.2803L63.0752 44.6006C63.1133 44.6934 63.1521 44.7862 63.1914 44.8818L63.1934 44.8867C63.253 45.028 63.3176 45.166 63.3838 45.3018C63.4375 45.9199 63.4401 46.3701 63.2422 46.8311C63.0346 47.0402 62.8542 47.1719 62.667 47.2588C62.4679 47.3512 62.2347 47.4075 61.9121 47.4346C61.5517 47.4113 61.2855 47.3002 60.9805 47.0635C60.6469 46.6444 60.4338 46.1791 60.2168 45.6172L59.8184 44.583L59.3066 45.5664C59.2741 45.6289 59.2415 45.6915 59.208 45.7559C58.8287 46.4845 58.446 47.2115 58.0596 47.9365C58.0158 48.0186 57.9718 48.101 57.9268 48.1855C56.923 50.0517 55.6663 51.7414 54.251 53.3408L54.249 53.3428C54.1549 53.4506 54.0608 53.5588 53.9639 53.6699C52.8746 54.9024 51.7313 56.0275 50.4443 57.0273L50.4404 57.0303L50.2256 57.2002C45.5806 60.8689 39.5518 63.453 33.6221 63.4639H33.6201L33.127 63.4668C32.785 63.4683 32.4429 63.4679 32.1006 63.4678H32.0996L31.0596 63.4736C28.9253 63.4945 26.9109 63.4001 24.8613 62.9346L24.8594 62.9336L24.3945 62.8311C24.0419 62.7465 23.6931 62.6525 23.3428 62.5508H23.3418C23.2141 62.5142 23.0856 62.4772 22.9541 62.4395C18.9317 61.2446 15.1754 59.2557 12.0137 56.5137L11.3887 55.9551L10.7725 55.4023C6.92116 52.0352 4.23797 47.3235 2.64746 42.4619V42.46L2.51758 42.0674C2.26117 41.2504 2.12563 40.6688 2.34375 39.998C2.63092 39.5808 2.92349 39.3215 3.35742 39.165C3.83249 39.1264 4.16129 39.2011 4.61621 39.4033C5.09941 39.8318 5.25541 40.4849 5.47852 41.3174L5.48047 41.3252C7.36311 47.923 11.9631 53.5813 17.876 56.9795V56.9805C18.0205 57.0639 18.0213 57.0632 18.1689 57.1484L18.1709 57.1504C24.4136 60.7026 31.8018 61.5268 38.7109 59.6924L38.7168 59.6904C39.422 59.4927 40.113 59.2651 40.7969 59.0166L40.7959 59.0156C40.8818 58.9845 40.9682 58.9549 41.0566 58.9229L41.0605 58.9209C44.2874 57.7265 47.1515 55.9465 49.7061 53.6719C49.771 53.6147 49.8364 53.558 49.9033 53.499V53.498C52.6219 51.0964 55.2902 47.7581 56.4746 44.2051L56.834 43.127L55.7969 43.5908C55.6927 43.6374 55.5878 43.6835 55.4805 43.7314C54.6794 44.0682 54.3684 44.1936 54.1445 44.2266C53.9826 44.2504 53.8783 44.2266 53.4463 44.084C53.1837 43.9504 53.0236 43.8381 52.9082 43.7129C52.7977 43.5929 52.7035 43.4354 52.6143 43.1797C52.5517 42.6766 52.5682 42.3232 52.7354 41.918C53.2897 41.3507 54.0184 41.0188 54.8604 40.6768L54.8643 40.6758C54.9603 40.636 55.0563 40.5957 55.1553 40.5547V40.5557C55.4578 40.4305 55.7612 40.3061 56.0654 40.1816L56.0664 40.1807C56.2703 40.0964 56.4748 40.0122 56.6787 39.9277L56.6777 39.9268C58.1379 39.3238 58.821 39.0439 59.2539 38.9238C59.4551 38.868 59.5804 38.8541 59.6914 38.8555Z" fill="white" stroke="white"/>
<path d="M32.1709 0.5C32.3512 0.500102 32.3521 0.499897 32.5352 0.5C34.502 0.505084 36.3686 0.626988 38.2695 1.03613H38.2715C38.398 1.06275 38.525 1.0888 38.6553 1.11621V1.11719C43.1168 2.08126 47.2095 4.02581 50.8193 6.81738L50.8203 6.81836C50.934 6.90585 51.048 6.99297 51.165 7.08301V7.08398C52.6373 8.25393 54.0506 9.55889 55.2402 10.9912V10.9922C55.2913 11.0535 55.3429 11.1145 55.3955 11.1777C57.9628 14.2855 59.848 17.7973 61.1025 21.6318L61.1035 21.6338C61.1455 21.7605 61.1873 21.8872 61.2305 22.0176V22.0186C61.4882 22.8388 61.6242 23.4217 61.4062 24.0938C61.1182 24.5126 60.8256 24.7722 60.3896 24.9287C59.9161 24.9668 59.588 24.8915 59.1338 24.6895C58.6513 24.261 58.4944 23.6092 58.2715 22.7773L58.2695 22.7695L58.0381 22.0049C56.8198 18.2141 54.7052 14.8431 51.9883 11.9541C51.923 11.8846 51.8582 11.8147 51.791 11.7432L51.7891 11.7412C50.0358 9.8899 48.077 8.3798 45.873 7.11328C45.7297 7.03056 45.7292 7.03022 45.582 6.94531L45.5791 6.94336C39.3802 3.41624 32.0292 2.57096 25.1621 4.36035L25.1553 4.36133C21.7443 5.29914 18.5073 6.86046 15.6943 9.02539C15.5727 9.11828 15.4515 9.21191 15.3262 9.30762L15.3193 9.3125C12.4948 11.5531 10.2775 14.2104 8.48828 17.3213C8.42467 17.4319 8.36046 17.5423 8.29492 17.6562L8.29297 17.6602C7.98679 18.2045 7.70041 18.756 7.51758 19.4131L7.23145 20.4414L8.20508 20.0029C8.32235 19.9501 8.32536 19.9489 8.43945 19.8975C9.17944 19.5798 9.62117 19.4119 10.2061 19.6025C10.4721 19.7207 10.6542 19.8281 10.7949 19.9541C10.9239 20.0696 11.0347 20.2182 11.1387 20.4404C11.2105 20.9832 11.1911 21.3765 11 21.8154C10.4957 22.3337 9.87913 22.6137 9.10645 22.9326L9.10449 22.9336C9.00249 22.9764 8.90001 23.0194 8.79492 23.0635C8.47201 23.1987 8.14865 23.3332 7.82422 23.4678L7.82227 23.4688C7.60522 23.5596 7.38789 23.6502 7.1709 23.7412C6.96157 23.8287 6.75234 23.9165 6.54297 24.0039H6.54199L6.25 24.126C5.11003 24.5987 4.62217 24.7974 4.28906 24.8564C4.04462 24.8997 3.914 24.8663 3.45996 24.707C2.85747 24.2886 2.57007 23.748 2.25586 22.96L2.25391 22.9551L2.13379 22.6611C2.00856 22.3563 1.88476 22.0506 1.76074 21.7432L1.75977 21.7402L1.50586 21.1221H1.50684C1.31699 20.6588 1.12819 20.195 0.94043 19.7305L0.938477 19.7266L0.626953 19.0117C0.460614 18.6031 0.440023 18.2949 0.445312 17.7861V17.7666C0.441719 17.6426 0.440894 17.6377 0.4375 17.5205C0.437702 17.312 0.45015 17.1841 0.477539 17.0762C0.500881 16.9844 0.540421 16.8871 0.620117 16.7549C0.943998 16.4493 1.23565 16.3091 1.65234 16.2861C2.18882 16.3261 2.51126 16.4281 2.85742 16.7422C3.21554 17.3458 3.37161 17.611 3.44629 17.7852C3.49777 17.9053 3.5 17.9406 3.5 18.1719V18.6719H4.62305L4.72949 18.3135C4.77437 18.1619 4.81909 18.0103 4.86523 17.8545C5.08964 17.1838 5.42198 16.5807 5.80078 15.9209V15.9199C5.87255 15.7943 5.94462 15.6685 6.01855 15.5391L6.01758 15.5381C7.01678 13.8146 8.17525 12.2489 9.49902 10.7529L9.50195 10.751C9.59615 10.643 9.68913 10.534 9.78613 10.4229L9.78711 10.4238C10.8764 9.19136 12.0196 8.06631 13.3066 7.06641L13.3105 7.06348C13.3814 7.00741 13.4524 6.95132 13.5254 6.89355L13.5244 6.89258C18.6934 2.81012 24.9821 0.624472 31.5352 0.504883L32.1709 0.5Z" fill="white" stroke="white"/>
</g>
<defs>
<clipPath id="clip0_1675_2318">
<rect width="64" height="64" fill="white"/>
</clipPath>
</defs>
</svg>
