<svg width="67" height="67" viewBox="0 0 67 67" fill="none" xmlns="http://www.w3.org/2000/svg">
<path d="M66.4004 53.0742V65.0918H0.599609V53.0742H66.4004ZM3.45703 62.2344H8.18359L8.30078 61.7871C8.46915 61.1444 8.6376 60.5009 8.80469 59.8574C8.86144 59.6393 8.91838 59.4211 8.97559 59.2031C9.05827 58.8879 9.14018 58.5724 9.22168 58.2578L9.2207 58.2568C9.24611 58.1607 9.27266 58.0649 9.29883 57.9658L9.2998 57.9619C9.42264 57.4844 9.49805 57.0617 9.49805 56.5312V55.9316H3.45703V62.2344ZM12.6475 56.3418C12.4129 57.0454 12.1872 57.7317 12.0029 58.4707C11.9629 58.631 11.9231 58.7918 11.8818 58.957V58.958C11.8415 59.1216 11.8004 59.2855 11.7588 59.4541C11.7185 59.6147 11.6791 59.7753 11.6377 59.9404C11.5325 60.3095 11.4709 60.5251 11.4268 60.7451C11.3826 60.9654 11.3569 61.1867 11.3125 61.5645L11.2334 62.2344H17.3477L17.4629 61.7812L18.0518 59.4512C18.1439 59.0879 18.1432 59.0876 18.2373 58.7168L18.2383 58.7158C18.2866 58.5239 18.3336 58.3316 18.3818 58.1396L18.3828 58.1406C18.4082 58.041 18.4328 57.9415 18.459 57.8389L18.46 57.8359C18.5595 57.438 18.6582 57.0222 18.6582 56.5312V55.9316H12.7842L12.6475 56.3418ZM21.6641 56.3848L21.0752 58.7148C21.0137 58.9571 20.953 59.1996 20.8896 59.4492L20.8887 59.4502L20.7441 60.0254C20.7187 60.125 20.6941 60.2245 20.668 60.3271L20.667 60.3301C20.5675 60.728 20.4688 61.1438 20.4688 61.6348V62.2344H26.6387L26.7539 61.7812L27.3428 59.4512C27.4349 59.0879 27.4343 59.0876 27.5283 58.7168L27.5293 58.7158C27.5776 58.5239 27.6247 58.3316 27.6729 58.1396L27.6738 58.1406C27.6992 58.041 27.7238 57.9415 27.75 57.8389L27.751 57.8359C27.8505 57.438 27.9492 57.0222 27.9492 56.5312V55.9316H21.7793L21.6641 56.3848ZM30.9551 56.3848L30.3662 58.7148C30.3047 58.9571 30.244 59.1996 30.1807 59.4492L30.1797 59.4502L30.0352 60.0254C30.0098 60.125 29.9852 60.2245 29.959 60.3271L29.958 60.3301C29.8585 60.728 29.7598 61.1438 29.7598 61.6348V62.2344H35.9297L36.0449 61.7812L36.6338 59.4512C36.7259 59.0879 36.7253 59.0876 36.8193 58.7168L36.8203 58.7158C36.8686 58.5239 36.9157 58.3316 36.9639 58.1396L36.9648 58.1406C36.9902 58.0411 37.0149 57.9414 37.041 57.8389L37.042 57.8359C37.1415 57.438 37.2402 57.0222 37.2402 56.5312V55.9316H31.0703L30.9551 56.3848ZM40.2461 56.3848L39.6572 58.7148C39.5958 58.9571 39.535 59.1996 39.4717 59.4492L39.4707 59.4502L39.3262 60.0254C39.3008 60.1249 39.2761 60.2246 39.25 60.3271L39.249 60.3301C39.1495 60.728 39.0508 61.1438 39.0508 61.6348V62.2344H45.2207L45.3359 61.7812L45.9248 59.4512C46.017 59.0879 46.0163 59.0876 46.1104 58.7168L46.1113 58.7158C46.1596 58.5239 46.2067 58.3316 46.2549 58.1396L46.2559 58.1406C46.2812 58.0411 46.3059 57.9414 46.332 57.8389L46.333 57.8359C46.4325 57.438 46.5312 57.0222 46.5312 56.5312V55.9316H40.3613L40.2461 56.3848ZM49.5371 56.3848L48.9482 58.7148C48.8868 58.9571 48.826 59.1996 48.7627 59.4492L48.7617 59.4502L48.6172 60.0254C48.5918 60.1249 48.5672 60.2246 48.541 60.3271L48.54 60.3301C48.4405 60.728 48.3418 61.1438 48.3418 61.6348V62.2344H54.5117L54.627 61.7812L55.2158 59.4512C55.308 59.0879 55.3073 59.0876 55.4014 58.7168L55.4023 58.7158C55.4506 58.5239 55.4977 58.3316 55.5459 58.1396L55.5469 58.1406C55.5723 58.0411 55.5969 57.9414 55.623 57.8389L55.624 57.8359C55.7236 57.438 55.8223 57.0222 55.8223 56.5312V55.9316H49.6523L49.5371 56.3848ZM58.8281 56.3838C58.6599 57.0475 58.4924 57.7117 58.3252 58.376C58.2683 58.6015 58.2115 58.8274 58.1543 59.0527L57.9082 60.0254C57.8825 60.1262 57.8575 60.2272 57.8311 60.3311L57.8301 60.334C57.7308 60.7311 57.6328 61.1454 57.6328 61.6348V62.2344H63.543V55.9316H58.9434L58.8281 56.3838Z" fill="white" stroke="white" stroke-width="1.2"/>
<path d="M28.6689 3.57153C30.5817 1.7116 33.9499 1.32609 36.4033 2.38306L36.4141 2.38794L36.4258 2.39185C36.5297 2.43178 36.6336 2.47195 36.7402 2.51294H36.7412C38.3246 3.19633 39.705 4.75806 40.3906 6.3772C41.0819 8.29078 41.0314 10.1298 40.4004 12.0745C40.2779 12.3194 40.1555 12.5652 40.0293 12.8176L39.5957 13.6858H45.752C46.3729 15.6732 46.3844 15.7143 46.6025 16.4934V16.4944C46.6304 16.5929 46.6588 16.6917 46.6875 16.7932L46.959 17.7571C47.025 17.9909 47.0902 18.2254 47.1562 18.4592C47.2971 18.9584 47.4385 19.458 47.5791 19.9573L48.2539 22.3518C48.4895 23.1868 48.7256 24.0217 48.9609 24.8567C49.4938 26.7471 50.0271 28.6377 50.5615 30.5276C50.5974 30.6546 50.6339 30.7815 50.6709 30.9124C50.8149 31.4217 50.9585 31.9313 51.1025 32.4407C51.7268 34.6485 52.351 36.8566 52.9746 39.0647C53.0418 39.3026 53.1086 39.5406 53.1758 39.7786C53.5912 41.2494 54.0071 42.7207 54.4219 44.1917C54.5374 44.6014 54.6528 45.0114 54.7686 45.4211C54.9013 45.8911 55.0336 46.3613 55.166 46.8313L55.3799 47.5881C55.4213 47.7354 55.4631 47.8827 55.5059 48.0344V48.0354C55.51 48.0501 55.5144 48.0647 55.5186 48.0793H11.5146C11.9814 46.3478 12.4489 44.6206 12.9375 42.8987V42.8977C13.0031 42.6659 13.0692 42.4342 13.1348 42.2024C13.2738 41.7107 13.4134 41.2184 13.5527 40.7268C13.7753 39.9415 13.9975 39.1557 14.2197 38.3704C14.4528 37.5468 14.6858 36.7232 14.9189 35.8997C15.4558 34.0036 15.9926 32.1066 16.5283 30.2102C16.5648 30.0811 16.6011 29.9516 16.6387 29.8186C16.7848 29.3013 16.931 28.7841 17.0771 28.2668C17.4996 26.7714 17.9219 25.2759 18.3447 23.7805C18.7227 22.4437 19.1011 21.1059 19.4785 19.7688C19.694 19.0055 19.9092 18.242 20.125 17.4788C20.2459 17.0512 20.3667 16.6233 20.4873 16.1956C20.6156 15.7406 20.7443 15.2853 20.873 14.8303H20.874C20.911 14.6989 20.9482 14.5663 20.9863 14.4309C21.0369 14.2527 21.0363 14.2524 21.0879 14.0706V14.0696C21.1155 13.9719 21.1426 13.8741 21.1709 13.7737L21.1719 13.7747C21.1832 13.7382 21.1937 13.7094 21.2012 13.6858H27.334L26.9873 12.8547C26.7771 12.3501 26.5669 11.8455 26.3506 11.3264C25.8421 9.43254 26.0376 7.42518 26.917 5.6731C27.3223 4.99737 27.8362 4.42204 28.4297 3.82544L28.4346 3.81958L28.4395 3.8147C28.5152 3.73456 28.5911 3.6539 28.6689 3.57153ZM23.3857 16.9319C23.1312 17.6106 22.8981 18.2636 22.6982 18.9749C22.673 19.0643 22.6481 19.1541 22.6221 19.2463C22.5381 19.5439 22.4542 19.842 22.3711 20.1389C22.3106 20.3538 22.25 20.5686 22.1895 20.7834C22.059 21.2465 21.9287 21.71 21.7988 22.1731C21.5923 22.9094 21.3851 23.6457 21.1777 24.3821C20.959 25.159 20.741 25.9361 20.5225 26.7131C19.7547 29.4433 18.9836 32.173 18.2119 34.9026C18.0282 35.5524 17.8437 36.202 17.6602 36.8518C17.5553 37.2231 17.4506 37.5948 17.3457 37.9661C17.2141 38.4317 17.0826 38.8978 16.9512 39.3635C16.6914 40.2836 16.4318 41.2013 16.165 42.1165V42.1174C16.1271 42.248 16.0889 42.3785 16.0498 42.5129C15.9844 42.7373 15.9182 42.9612 15.8516 43.1848L15.8506 43.1887C15.7101 43.6703 15.627 44.0789 15.627 44.6233V45.2229H51.4648L51.3672 44.5383C51.27 43.8577 51.1551 43.2597 50.9668 42.592H50.9678C50.9421 42.5003 50.9161 42.4083 50.8896 42.3137L50.6299 41.3938C50.5675 41.1722 50.5047 40.9503 50.4424 40.7288C50.2718 40.1224 50.1001 39.5161 49.9287 38.9104C49.7479 38.271 49.5681 37.6314 49.3877 36.9915C49.0762 35.8868 48.7634 34.7824 48.4512 33.678C48.0598 32.2938 47.6694 30.9093 47.2793 29.5247C46.876 28.0933 46.4724 26.6618 46.0684 25.2307C45.8933 24.6107 45.7187 23.9905 45.5439 23.3704C45.3368 22.6352 45.1288 21.9002 44.9209 21.1653L44.6914 20.3518C44.5864 19.9786 44.4806 19.6052 44.375 19.2327C44.3304 19.0735 44.3311 19.0724 44.2852 18.9084L44.2842 18.9065L44.1963 18.5989C44.1721 18.5132 44.148 18.4273 44.123 18.3391L44.1201 18.3293L44.1172 18.3186L43.9971 17.9631C43.8728 17.6089 43.738 17.2618 43.6143 16.9319L43.4688 16.5422H23.5312L23.3857 16.9319ZM34.4932 4.76978C32.7967 4.54954 31.2778 4.93103 30.043 6.2561L30.0254 6.27563L30.0098 6.29517C29.2036 7.32297 28.8914 8.4398 28.9756 9.7229L28.9775 9.76001L28.9854 9.79712C29.2459 11.1486 29.8358 12.1629 30.998 12.9729L31.0127 12.9836L31.0283 12.9924C32.2075 13.712 33.4207 13.9107 34.7812 13.5842L34.8125 13.5764L34.8438 13.5647C36.233 13.0652 37.1042 12.2154 37.7188 10.9114L37.7295 10.8889L37.7373 10.8665C38.2124 9.5981 38.0718 8.39637 37.5879 7.22876L37.5742 7.19849L37.5586 7.16919L37.4316 6.95239C36.7731 5.89321 35.7574 5.17522 34.6035 4.79517L34.5498 4.77759L34.4932 4.76978Z" fill="white" stroke="white" stroke-width="1.2"/>
<path d="M35.001 21.5371C35.042 25.2694 35.0827 29.0074 35.125 32.8525L35.1406 34.2783L36.1484 33.2695L36.1543 33.2637C36.1561 33.2619 36.1584 33.2606 36.1602 33.2588L36.2832 33.1357C36.285 33.134 36.2863 33.1317 36.2881 33.1299L36.2998 33.1182C36.3016 33.1164 36.3039 33.1151 36.3057 33.1133L36.4287 32.9902C36.4305 32.9884 36.4318 32.9862 36.4336 32.9844L36.4453 32.9727C36.4471 32.9709 36.4494 32.9696 36.4512 32.9678L36.5801 32.8389C36.5819 32.8371 36.5832 32.8348 36.585 32.833L36.5967 32.8213C36.5985 32.8195 36.6007 32.8182 36.6025 32.8164L36.749 32.6699C36.7508 32.6681 36.7521 32.6659 36.7539 32.6641L36.7656 32.6523C36.7674 32.6506 36.7697 32.6493 36.7715 32.6475L36.9355 32.4834C36.9373 32.4816 36.9386 32.4793 36.9404 32.4775L36.958 32.46C36.9598 32.4582 36.9621 32.4569 36.9639 32.4551L37.1865 32.2324C37.1883 32.2306 37.1896 32.2284 37.1914 32.2266L37.2207 32.1973C37.2225 32.1955 37.2248 32.1942 37.2266 32.1924L37.8828 31.5361C37.8848 31.5342 37.8867 31.5313 37.8887 31.5293L37.9121 31.5059C37.9141 31.5039 37.917 31.502 37.9189 31.5L38.0947 31.3242C38.0967 31.3223 38.0986 31.3193 38.1006 31.3174L38.1123 31.3057C38.1143 31.3037 38.1172 31.3018 38.1191 31.2998L38.2363 31.1826C38.2383 31.1806 38.2402 31.1777 38.2422 31.1758L38.248 31.1699C38.25 31.168 38.2529 31.166 38.2549 31.1641L38.3486 31.0703C38.3506 31.0683 38.3525 31.0654 38.3545 31.0635L38.3604 31.0576C38.3623 31.0556 38.3652 31.0537 38.3672 31.0518L38.4434 30.9756C38.4453 30.9736 38.4472 30.9707 38.4492 30.9688L38.4551 30.9629C38.4571 30.9609 38.4599 30.959 38.4619 30.957L38.5322 30.8867C38.5342 30.8847 38.5361 30.8819 38.5381 30.8799C38.5401 30.8779 38.5429 30.876 38.5449 30.874L38.6094 30.8096C38.6113 30.8076 38.6133 30.8047 38.6152 30.8027C38.6172 30.8008 38.6201 30.7989 38.6221 30.7969L38.6807 30.7383C38.6826 30.7363 38.6846 30.7334 38.6865 30.7314C38.6885 30.7295 38.6914 30.7276 38.6934 30.7256L38.7402 30.6787C38.7422 30.6767 38.7441 30.6739 38.7461 30.6719L38.752 30.666C38.7539 30.664 38.7568 30.6621 38.7588 30.6602L38.8057 30.6133C38.8076 30.6113 38.8095 30.6084 38.8115 30.6064C38.8135 30.6045 38.8164 30.6026 38.8184 30.6006L38.8301 30.5889C38.8315 30.5874 38.8325 30.5854 38.834 30.584C39.0366 30.7165 39.1998 30.8598 39.4258 31.0889L39.4268 31.0898C39.5364 31.2003 39.6469 31.3101 39.7598 31.4238V31.4248C39.9308 31.5991 39.9308 31.5993 40.1055 31.7773L40.1074 31.7793C40.2235 31.8965 40.3394 32.014 40.459 32.1348C40.6425 32.3202 40.8258 32.5064 41.0088 32.6924C40.8437 32.9364 40.6148 33.1606 40.3105 33.4609L40.3076 33.4639C40.1929 33.5786 40.1923 33.5782 40.0752 33.6953C39.8233 33.947 39.5703 34.1984 39.3164 34.4502L39.3154 34.4512C39.1397 34.6265 38.9637 34.8021 38.7881 34.9775C38.3267 35.4379 37.8641 35.8976 37.4014 36.3574C36.9287 36.8274 36.4569 37.2983 35.9854 37.7686C35.1811 38.5704 34.3757 39.371 33.5703 40.1719C32.7701 39.5586 32.0654 38.8387 31.3047 38.0713L30.8145 37.5811H30.8154C30.3902 37.1549 29.9656 36.7273 29.541 36.2998C29.106 35.8621 28.6696 35.4248 28.2344 34.9883C27.5131 34.2646 26.7926 33.5402 26.0723 32.8154C26.3661 32.4743 26.6578 32.1461 26.9697 31.8369L26.9707 31.8359C27.0566 31.7504 27.1419 31.6643 27.2305 31.5762C27.3169 31.4908 27.4041 31.4063 27.4932 31.3184L27.4941 31.3164C27.5842 31.227 27.6748 31.1381 27.7676 31.0459C27.8812 30.933 27.9946 30.8197 28.1084 30.707C28.2683 30.8134 28.4152 30.939 28.584 31.1123L28.5859 31.1143C28.6758 31.2055 28.7659 31.2976 28.8584 31.3916V31.3906C28.9944 31.5307 28.9951 31.5319 29.1357 31.6768L29.1367 31.6777C29.3206 31.8661 29.5049 32.0544 29.6895 32.2422C29.7698 32.3248 29.8499 32.408 29.9326 32.4932L29.9473 32.5078C30.2585 32.8062 30.5974 33.0721 30.9004 33.3145L31.8623 34.083L31.875 32.8525C31.9161 29.115 31.9568 25.3771 31.999 21.5371H35.001Z" fill="white" stroke="white" stroke-width="1.2"/>
</svg>
