<svg width="40" height="40" viewBox="0 0 40 40" fill="none" xmlns="http://www.w3.org/2000/svg">
<path d="M0 24.3678H39.9999V32.4137C39.9999 32.7946 39.6911 33.1034 39.3102 33.1034H0.689686C0.308828 33.1034 0 32.7946 0 32.4137V24.3678Z" fill="#73AF00"/>
<path d="M0.689686 6.89656H39.3103C39.6912 6.89656 40 7.20538 40 7.58624V15.6322H0V7.58616C0 7.20531 0.308828 6.89656 0.689686 6.89656Z" fill="#4D4D4D"/>
<path d="M39.9999 15.632H0V24.3672H39.9999V15.632Z" fill="#C8414B"/>
<path d="M39.9999 15.1726H0V16.5519H39.9999V15.1726Z" fill="#F5F5F5"/>
<path d="M39.9999 23.4484H0V24.8277H39.9999V23.4484Z" fill="#F5F5F5"/>
<path d="M23.6937 14.1888C24.249 13.0438 24.8285 10.3912 24.8285 10.3912C24.8285 10.3912 23.1041 12.4884 22.5487 13.6334C22.4323 13.8734 22.4816 14.1495 22.6498 14.3362L16.3242 27.3779L16.7536 27.5862L23.0791 14.5445C23.3301 14.5609 23.5774 14.4288 23.6937 14.1888Z" fill="#F5F5F5"/>
<path d="M16.3066 14.1888C15.7513 13.0438 15.1719 10.3912 15.1719 10.3912C15.1719 10.3912 16.8962 12.4884 17.4517 13.6334C17.5681 13.8734 17.5187 14.1495 17.3506 14.3362L23.6762 27.3779L23.2468 27.5862L16.9212 14.5445C16.6703 14.5609 16.423 14.4288 16.3066 14.1888Z" fill="#F5F5F5"/>
<path d="M23.4473 20C23.4473 23.8089 20.6339 26.8965 19.9991 26.8965C19.3642 26.8965 16.5508 23.8089 16.5508 20C16.5508 16.1911 19.3642 13.1034 19.9991 13.1034C20.6339 13.1034 23.4473 16.1911 23.4473 20Z" fill="#C8414B"/>
<path d="M22.758 23.3274C23.1642 22.3406 23.4477 21.2071 23.4477 20C23.4477 18.7928 23.1643 17.6594 22.758 16.6725C22.3519 17.6593 22.0684 18.7928 22.0684 20C22.0684 21.2071 22.3519 22.3406 22.758 23.3274Z" fill="#4D4D4D"/>
<path d="M17.2405 16.6726C16.8343 17.6594 16.5508 18.7929 16.5508 20C16.5508 21.2071 16.8342 22.3405 17.2405 23.3274C17.6466 22.3406 17.9302 21.2071 17.9302 20C17.9302 18.7929 17.6466 17.6594 17.2405 16.6726Z" fill="#4D4D4D"/>
<path d="M20.0002 21.0345C20.3811 21.0345 20.6899 20.5714 20.6899 20.0001C20.6899 19.4288 20.3811 18.9656 20.0002 18.9656C19.6193 18.9656 19.3105 19.4288 19.3105 20.0001C19.3105 20.5714 19.6193 21.0345 20.0002 21.0345Z" fill="#F5F5F5"/>
<path d="M20.1035 13.1035V18.9655C20.2916 18.5741 20.6251 17.4175 20.6251 16.0345C20.6251 14.6515 20.2916 13.4949 20.1035 13.1035Z" fill="#F5F5F5"/>
<path d="M19.8966 13.1035C19.7085 13.4949 19.375 14.6515 19.375 16.0345C19.375 17.4176 19.7085 18.5742 19.8966 18.9655V13.1035Z" fill="#F5F5F5"/>
<path d="M20.1035 21.0345V26.8965C20.2916 26.5051 20.6251 25.3485 20.6251 23.9655C20.6251 22.5825 20.2916 21.4259 20.1035 21.0345Z" fill="#F5F5F5"/>
<path d="M19.8966 21.0345C19.7085 21.4259 19.375 22.5825 19.375 23.9655C19.375 25.3485 19.7085 26.5052 19.8966 26.8965V21.0345Z" fill="#F5F5F5"/>
</svg>
