<svg width="27" height="29" viewBox="0 0 27 29" fill="none" xmlns="http://www.w3.org/2000/svg">
<path d="M18.1973 7.69167V7.30709C18.1973 5.98412 17.6743 4.7073 16.7359 3.76892C15.7975 2.83053 14.5207 2.3075 13.1977 2.3075C11.8748 2.3075 10.5979 2.83053 9.65955 3.76892C8.72117 4.7073 8.19813 5.98412 8.19813 7.30709V7.69167H18.1973ZM5.89063 14.9988V9.99917H5.25992C4.26 9.99917 3.4293 10.7683 3.337 11.7683L2.3217 24.0749C2.2294 25.1825 3.10625 26.1517 4.22923 26.1517H22.1662C23.2892 26.1517 24.166 25.1825 24.0737 24.0749L23.0584 11.7683C22.9661 10.7683 22.1354 9.99917 21.1355 9.99917H20.5048V14.9988C20.5048 15.6295 19.9818 16.1525 19.3511 16.1525C18.7203 16.1525 18.1973 15.6295 18.1973 14.9988V9.99917H8.19813V14.9988C8.19813 15.6295 7.6751 16.1525 7.04438 16.1525C6.41367 16.1525 5.89063 15.6295 5.89063 14.9988ZM5.89063 7.30709C5.89063 5.36879 6.6598 3.5074 8.02892 2.13828C9.39803 0.769167 11.2594 0 13.1977 0C15.136 0 16.9974 0.769167 18.3665 2.13828C19.7356 3.5074 20.5048 5.36879 20.5048 7.30709V7.69167H21.1355C23.3353 7.69167 25.166 9.38384 25.3506 11.5683L26.3812 23.8749C26.5812 26.3363 24.6429 28.4592 22.1662 28.4592H4.22923C1.75251 28.4592 -0.185788 26.3363 0.0141957 23.8749L1.04488 11.5683C1.22948 9.38384 3.0601 7.69167 5.25992 7.69167H5.89063V7.30709Z" fill="white"/>
</svg>
