<svg width="27" height="29" viewBox="0 0 27 29" fill="none" xmlns="http://www.w3.org/2000/svg">
<path fill-rule="evenodd" clip-rule="evenodd" d="M2.85929 12.8891C2.85929 7.34978 7.34977 2.85929 12.8891 2.85929C18.4284 2.85929 22.9188 7.34978 22.9188 12.8891C22.9188 18.4284 18.4284 22.9188 12.8891 22.9188C7.34977 22.9188 2.85929 18.4284 2.85929 12.8891ZM12.8891 0C5.77063 0 0 5.77063 0 12.8891C0 20.0075 5.77063 25.7781 12.8891 25.7781C15.5126 25.7781 17.9531 24.9943 19.9891 23.648L24.9748 28.6336L26.9966 26.6118L22.1934 21.8086C24.4137 19.4931 25.7781 16.3504 25.7781 12.8891C25.7781 5.77063 20.0075 0 12.8891 0Z" fill="white"/>
</svg>
