<svg width="29" height="29" viewBox="0 0 29 29" fill="none" xmlns="http://www.w3.org/2000/svg">
<path d="M24.4056 18.4838C22.8485 16.9267 20.9951 15.774 18.9729 15.0762C21.1387 13.5845 22.5616 11.088 22.5616 8.26514C22.5616 3.70775 18.8538 0 14.2965 0C9.73907 0 6.03132 3.70775 6.03132 8.26514C6.03132 11.088 7.45421 13.5845 9.62007 15.0762C7.5979 15.774 5.7445 16.9267 4.18736 18.4838C1.48711 21.1841 0 24.7742 0 28.5929H2.23382C2.23382 21.9415 7.64509 16.5303 14.2965 16.5303C20.9478 16.5303 26.3591 21.9415 26.3591 28.5929H28.5929C28.5929 24.7742 27.1058 21.1841 24.4056 18.4838ZM14.2965 14.2965C10.9708 14.2965 8.26514 11.5909 8.26514 8.26514C8.26514 4.93943 10.9708 2.23382 14.2965 2.23382C17.6221 2.23382 20.3278 4.93943 20.3278 8.26514C20.3278 11.5909 17.6221 14.2965 14.2965 14.2965Z" fill="white"/>
</svg>
