<svg width="905" height="283" viewBox="0 0 905 283" fill="none" xmlns="http://www.w3.org/2000/svg">
<path d="M8.43 65.36V86H7.77V65.36H0.54V64.76H15.66V65.36H8.43ZM17.4538 75.83C17.6538 75.19 17.9338 74.62 18.2938 74.12C18.6738 73.62 19.1038 73.2 19.5838 72.86C20.0638 72.5 20.5838 72.23 21.1438 72.05C21.7038 71.87 22.2838 71.78 22.8838 71.78C23.8438 71.78 24.6438 71.95 25.2838 72.29C25.9238 72.63 26.4338 73.08 26.8138 73.64C27.1938 74.2 27.4638 74.83 27.6238 75.53C27.7838 76.23 27.8638 76.94 27.8638 77.66V86H27.2038V77.72C27.2038 77.16 27.1438 76.56 27.0238 75.92C26.9038 75.28 26.6738 74.7 26.3338 74.18C26.0138 73.66 25.5738 73.23 25.0138 72.89C24.4538 72.53 23.7438 72.35 22.8838 72.35C22.1238 72.35 21.4038 72.51 20.7238 72.83C20.0638 73.13 19.4838 73.57 18.9838 74.15C18.5038 74.73 18.1138 75.44 17.8138 76.28C17.5338 77.1 17.3938 78.04 17.3938 79.1V86H16.7338V63.32H17.3938V75.83H17.4538ZM31.2739 78.95C31.2739 79.79 31.3939 80.62 31.6339 81.44C31.8939 82.26 32.2739 83 32.7739 83.66C33.2939 84.3 33.9439 84.82 34.7239 85.22C35.5039 85.62 36.4239 85.82 37.4839 85.82C38.5639 85.82 39.5239 85.61 40.3639 85.19C41.2039 84.75 41.9339 84.12 42.5539 83.3L43.0339 83.72C42.3539 84.6 41.5539 85.27 40.6339 85.73C39.7339 86.19 38.6839 86.42 37.4839 86.42C36.4639 86.42 35.5339 86.24 34.6939 85.88C33.8539 85.5 33.1239 84.98 32.5039 84.32C31.9039 83.66 31.4339 82.87 31.0939 81.95C30.7739 81.03 30.6139 80.03 30.6139 78.95C30.6139 77.91 30.7839 76.95 31.1239 76.07C31.4639 75.19 31.9239 74.43 32.5039 73.79C33.1039 73.15 33.8039 72.66 34.6039 72.32C35.4039 71.96 36.2639 71.78 37.1839 71.78C38.2639 71.78 39.2039 71.97 40.0039 72.35C40.8039 72.73 41.4639 73.23 41.9839 73.85C42.5239 74.47 42.9239 75.18 43.1839 75.98C43.4439 76.76 43.5739 77.56 43.5739 78.38V78.95H31.2739ZM42.9439 78.38C42.9239 77.48 42.7639 76.66 42.4639 75.92C42.1839 75.18 41.7939 74.55 41.2939 74.03C40.7939 73.49 40.1939 73.08 39.4939 72.8C38.7939 72.5 38.0139 72.35 37.1539 72.35C36.1139 72.35 35.2239 72.57 34.4839 73.01C33.7439 73.43 33.1339 73.96 32.6539 74.6C32.1939 75.22 31.8539 75.88 31.6339 76.58C31.4139 77.26 31.3039 77.86 31.3039 78.38H42.9439ZM49.2238 74.69L49.8838 71.06H52.2538L52.9438 67.1H57.6238L56.9338 71.06H60.1138L59.4538 74.69H56.3638L55.2838 80.54C55.2638 80.68 55.2438 80.83 55.2238 80.99C55.2238 81.13 55.2238 81.25 55.2238 81.35C55.2238 81.85 55.3638 82.19 55.6438 82.37C55.9238 82.55 56.3038 82.64 56.7838 82.64C57.0238 82.64 57.2538 82.62 57.4738 82.58C57.7138 82.54 57.9238 82.5 58.1038 82.46L57.6538 85.91C57.3738 86.03 56.9738 86.13 56.4538 86.21C55.9538 86.31 55.4738 86.36 55.0138 86.36C53.5738 86.36 52.4338 86.07 51.5938 85.49C50.7738 84.91 50.3638 83.99 50.3638 82.73C50.3638 82.49 50.3738 82.22 50.3938 81.92C50.4338 81.6 50.4838 81.3 50.5438 81.02L51.6838 74.69H49.2238ZM58.1816 86L60.7916 71.06H65.6216L62.9516 86H58.1816ZM66.6416 66.05C66.6416 66.45 66.5716 66.82 66.4316 67.16C66.2916 67.5 66.0916 67.81 65.8316 68.09C65.5916 68.35 65.3016 68.56 64.9616 68.72C64.6216 68.86 64.2516 68.93 63.8516 68.93C63.0916 68.93 62.4616 68.71 61.9616 68.27C61.4816 67.81 61.2416 67.23 61.2416 66.53C61.2416 65.71 61.5116 65.03 62.0516 64.49C62.6116 63.93 63.2916 63.65 64.0916 63.65C64.8316 63.65 65.4416 63.88 65.9216 64.34C66.4016 64.8 66.6416 65.37 66.6416 66.05ZM68.4499 93.2H63.6499L67.5499 71.06H72.1099L71.7499 73.13H71.8399C72.3999 72.37 73.0999 71.78 73.9399 71.36C74.7999 70.92 75.7299 70.7 76.7299 70.7C77.7099 70.7 78.5899 70.86 79.3699 71.18C80.1499 71.5 80.8099 71.95 81.3499 72.53C81.8899 73.09 82.2999 73.77 82.5799 74.57C82.8599 75.35 82.9999 76.2 82.9999 77.12C82.9999 78.4 82.7899 79.61 82.3699 80.75C81.9699 81.87 81.3999 82.85 80.6599 83.69C79.9199 84.53 79.0399 85.2 78.0199 85.7C77.0199 86.18 75.9199 86.42 74.7199 86.42C73.6199 86.42 72.6699 86.22 71.8699 85.82C71.0699 85.4 70.4699 84.84 70.0699 84.14H70.0099L68.4499 93.2ZM78.1999 77.75C78.1999 76.85 77.9399 76.1 77.4199 75.5C76.8999 74.88 76.1399 74.57 75.1399 74.57C74.5399 74.57 73.9799 74.7 73.4599 74.96C72.9399 75.22 72.4899 75.57 72.1099 76.01C71.7299 76.45 71.4299 76.96 71.2099 77.54C70.9899 78.12 70.8799 78.73 70.8799 79.37C70.8799 80.29 71.1599 81.05 71.7199 81.65C72.2799 82.23 73.0499 82.52 74.0299 82.52C74.6699 82.52 75.2399 82.4 75.7399 82.16C76.2599 81.9 76.6999 81.56 77.0599 81.14C77.4199 80.7 77.6999 80.19 77.8999 79.61C78.0999 79.03 78.1999 78.41 78.1999 77.75ZM96.0767 86.42C94.9967 86.42 93.9867 86.27 93.0467 85.97C92.1267 85.67 91.3267 85.24 90.6467 84.68C89.9867 84.1 89.4567 83.41 89.0567 82.61C88.6767 81.79 88.4867 80.87 88.4867 79.85C88.4867 78.61 88.6967 77.43 89.1167 76.31C89.5367 75.19 90.1367 74.21 90.9167 73.37C91.7167 72.53 92.6767 71.86 93.7967 71.36C94.9167 70.86 96.1867 70.61 97.6067 70.61C98.7067 70.61 99.7267 70.76 100.667 71.06C101.607 71.36 102.417 71.8 103.097 72.38C103.777 72.94 104.307 73.63 104.687 74.45C105.087 75.25 105.287 76.16 105.287 77.18C105.287 78.44 105.077 79.63 104.657 80.75C104.237 81.87 103.627 82.85 102.827 83.69C102.027 84.53 101.057 85.2 99.9167 85.7C98.7967 86.18 97.5167 86.42 96.0767 86.42ZM100.547 77.69C100.547 76.79 100.267 76.04 99.7067 75.44C99.1667 74.84 98.3967 74.54 97.3967 74.54C96.7567 74.54 96.1767 74.67 95.6567 74.93C95.1367 75.19 94.6967 75.54 94.3367 75.98C93.9767 76.42 93.6967 76.93 93.4967 77.51C93.2967 78.09 93.1967 78.7 93.1967 79.34C93.1967 80.24 93.4667 80.99 94.0067 81.59C94.5467 82.17 95.3167 82.46 96.3167 82.46C96.9567 82.46 97.5367 82.34 98.0567 82.1C98.5767 81.84 99.0167 81.49 99.3767 81.05C99.7567 80.61 100.047 80.1 100.247 79.52C100.447 78.94 100.547 78.33 100.547 77.69ZM117.086 66.89C116.706 66.73 116.286 66.65 115.826 66.65C115.386 66.65 115.016 66.73 114.716 66.89C114.436 67.05 114.196 67.27 113.996 67.55C113.796 67.81 113.636 68.11 113.516 68.45C113.416 68.79 113.336 69.13 113.276 69.47L113.006 71.06H116.366L115.736 74.66H112.436L110.426 86H105.716L107.726 74.66H104.996L105.626 71.06H108.266L108.566 69.53C108.726 68.67 108.956 67.83 109.256 67.01C109.556 66.19 109.976 65.47 110.516 64.85C111.076 64.21 111.776 63.7 112.616 63.32C113.456 62.94 114.486 62.75 115.706 62.75C116.106 62.75 116.506 62.78 116.906 62.84C117.306 62.88 117.656 62.95 117.956 63.05L117.086 66.89ZM134.828 75.44C134.828 75.72 134.808 76.02 134.768 76.34C134.748 76.66 134.708 76.97 134.648 77.27L133.628 83.09C133.528 83.61 133.448 84.14 133.388 84.68C133.348 85.22 133.328 85.66 133.328 86H129.068C129.068 85.78 129.078 85.53 129.098 85.25C129.118 84.95 129.148 84.67 129.188 84.41H129.128C128.028 85.71 126.508 86.36 124.568 86.36C124.048 86.36 123.508 86.29 122.948 86.15C122.408 86.03 121.908 85.82 121.448 85.52C121.008 85.2 120.648 84.79 120.368 84.29C120.088 83.77 119.948 83.14 119.948 82.4C119.948 81.2 120.248 80.22 120.848 79.46C121.448 78.7 122.228 78.11 123.188 77.69C124.168 77.27 125.268 76.98 126.488 76.82C127.728 76.66 128.968 76.58 130.208 76.58C130.248 76.4 130.268 76.26 130.268 76.16C130.268 76.06 130.268 75.97 130.268 75.89C130.268 75.31 130.058 74.89 129.638 74.63C129.238 74.35 128.668 74.21 127.928 74.21C127.248 74.21 126.558 74.34 125.858 74.6C125.178 74.86 124.558 75.2 123.998 75.62L122.018 72.86C122.918 72.14 123.948 71.59 125.108 71.21C126.288 70.81 127.448 70.61 128.588 70.61C129.488 70.61 130.318 70.71 131.078 70.91C131.838 71.09 132.488 71.38 133.028 71.78C133.588 72.18 134.028 72.68 134.348 73.28C134.668 73.88 134.828 74.6 134.828 75.44ZM129.518 79.46C128.918 79.46 128.308 79.49 127.688 79.55C127.068 79.59 126.508 79.69 126.008 79.85C125.528 80.01 125.128 80.23 124.808 80.51C124.488 80.79 124.328 81.16 124.328 81.62C124.328 82.22 124.528 82.63 124.928 82.85C125.348 83.05 125.808 83.15 126.308 83.15C127.228 83.15 127.998 82.87 128.618 82.31C129.238 81.73 129.628 81.02 129.788 80.18L129.938 79.46H129.518ZM142.036 81.23C142.416 81.79 142.916 82.22 143.536 82.52C144.176 82.8 144.826 82.94 145.486 82.94C146.126 82.94 146.636 82.82 147.016 82.58C147.416 82.34 147.616 82.01 147.616 81.59C147.616 81.19 147.436 80.88 147.076 80.66C146.716 80.44 146.186 80.22 145.486 80C144.786 79.8 144.166 79.58 143.626 79.34C143.106 79.08 142.666 78.79 142.306 78.47C141.946 78.13 141.676 77.75 141.496 77.33C141.316 76.89 141.226 76.38 141.226 75.8C141.226 74.98 141.406 74.25 141.766 73.61C142.146 72.97 142.636 72.43 143.236 71.99C143.856 71.53 144.576 71.19 145.396 70.97C146.216 70.73 147.076 70.61 147.976 70.61C149.136 70.61 150.216 70.81 151.216 71.21C152.236 71.59 153.046 72.16 153.646 72.92L150.616 75.47C150.336 75.07 149.946 74.74 149.446 74.48C148.966 74.22 148.386 74.09 147.706 74.09C147.186 74.09 146.706 74.19 146.266 74.39C145.846 74.59 145.636 74.93 145.636 75.41C145.636 75.75 145.796 76.02 146.116 76.22C146.436 76.4 146.926 76.58 147.586 76.76C148.986 77.14 150.086 77.67 150.886 78.35C151.706 79.01 152.116 79.98 152.116 81.26C152.116 82.16 151.916 82.95 151.516 83.63C151.136 84.29 150.626 84.84 149.986 85.28C149.366 85.7 148.646 86.01 147.826 86.21C147.026 86.43 146.206 86.54 145.366 86.54C143.986 86.54 142.756 86.31 141.676 85.85C140.596 85.39 139.716 84.76 139.036 83.96L142.036 81.23ZM155.692 93.2H150.892L154.792 71.06H159.352L158.992 73.13H159.082C159.642 72.37 160.342 71.78 161.182 71.36C162.042 70.92 162.972 70.7 163.972 70.7C164.952 70.7 165.832 70.86 166.612 71.18C167.392 71.5 168.052 71.95 168.592 72.53C169.132 73.09 169.542 73.77 169.822 74.57C170.102 75.35 170.242 76.2 170.242 77.12C170.242 78.4 170.032 79.61 169.612 80.75C169.212 81.87 168.642 82.85 167.902 83.69C167.162 84.53 166.282 85.2 165.262 85.7C164.262 86.18 163.162 86.42 161.962 86.42C160.862 86.42 159.912 86.22 159.112 85.82C158.312 85.4 157.712 84.84 157.312 84.14H157.252L155.692 93.2ZM165.442 77.75C165.442 76.85 165.182 76.1 164.662 75.5C164.142 74.88 163.382 74.57 162.382 74.57C161.782 74.57 161.222 74.7 160.702 74.96C160.182 75.22 159.732 75.57 159.352 76.01C158.972 76.45 158.672 76.96 158.452 77.54C158.232 78.12 158.122 78.73 158.122 79.37C158.122 80.29 158.402 81.05 158.962 81.65C159.522 82.23 160.292 82.52 161.272 82.52C161.912 82.52 162.482 82.4 162.982 82.16C163.502 81.9 163.942 81.56 164.302 81.14C164.662 80.7 164.942 80.19 165.142 79.61C165.342 79.03 165.442 78.41 165.442 77.75ZM174.729 79.82C174.709 79.9 174.699 79.99 174.699 80.09C174.699 80.51 174.789 80.89 174.969 81.23C175.169 81.55 175.419 81.83 175.719 82.07C176.039 82.29 176.389 82.46 176.769 82.58C177.169 82.7 177.579 82.76 177.999 82.76C178.759 82.76 179.429 82.62 180.009 82.34C180.589 82.06 181.109 81.68 181.569 81.2L184.599 83.57C183.639 84.59 182.569 85.33 181.389 85.79C180.209 86.23 178.939 86.45 177.579 86.45C176.539 86.45 175.569 86.3 174.669 86C173.789 85.72 173.019 85.3 172.359 84.74C171.699 84.16 171.179 83.45 170.799 82.61C170.419 81.77 170.229 80.81 170.229 79.73C170.229 78.45 170.449 77.26 170.889 76.16C171.349 75.04 171.969 74.07 172.749 73.25C173.549 72.43 174.499 71.79 175.599 71.33C176.699 70.85 177.909 70.61 179.229 70.61C180.209 70.61 181.099 70.75 181.899 71.03C182.719 71.31 183.419 71.72 183.999 72.26C184.579 72.78 185.029 73.43 185.349 74.21C185.669 74.99 185.829 75.89 185.829 76.91C185.829 77.27 185.789 77.73 185.709 78.29C185.649 78.83 185.559 79.34 185.439 79.82H174.729ZM181.539 76.88C181.559 76.78 181.569 76.68 181.569 76.58C181.569 76.48 181.569 76.38 181.569 76.28C181.569 75.62 181.329 75.07 180.849 74.63C180.389 74.19 179.719 73.97 178.839 73.97C178.299 73.97 177.809 74.07 177.369 74.27C176.949 74.45 176.579 74.68 176.259 74.96C175.939 75.24 175.679 75.55 175.479 75.89C175.279 76.23 175.139 76.56 175.059 76.88H181.539ZM200.151 75.44C200.151 75.72 200.131 76.02 200.091 76.34C200.071 76.66 200.031 76.97 199.971 77.27L198.951 83.09C198.851 83.61 198.771 84.14 198.711 84.68C198.671 85.22 198.651 85.66 198.651 86H194.391C194.391 85.78 194.401 85.53 194.421 85.25C194.441 84.95 194.471 84.67 194.511 84.41H194.451C193.351 85.71 191.831 86.36 189.891 86.36C189.371 86.36 188.831 86.29 188.271 86.15C187.731 86.03 187.231 85.82 186.771 85.52C186.331 85.2 185.971 84.79 185.691 84.29C185.411 83.77 185.271 83.14 185.271 82.4C185.271 81.2 185.571 80.22 186.171 79.46C186.771 78.7 187.551 78.11 188.511 77.69C189.491 77.27 190.591 76.98 191.811 76.82C193.051 76.66 194.291 76.58 195.531 76.58C195.571 76.4 195.591 76.26 195.591 76.16C195.591 76.06 195.591 75.97 195.591 75.89C195.591 75.31 195.381 74.89 194.961 74.63C194.561 74.35 193.991 74.21 193.251 74.21C192.571 74.21 191.881 74.34 191.181 74.6C190.501 74.86 189.881 75.2 189.321 75.62L187.341 72.86C188.241 72.14 189.271 71.59 190.431 71.21C191.611 70.81 192.771 70.61 193.911 70.61C194.811 70.61 195.641 70.71 196.401 70.91C197.161 71.09 197.811 71.38 198.351 71.78C198.911 72.18 199.351 72.68 199.671 73.28C199.991 73.88 200.151 74.6 200.151 75.44ZM194.841 79.46C194.241 79.46 193.631 79.49 193.011 79.55C192.391 79.59 191.831 79.69 191.331 79.85C190.851 80.01 190.451 80.23 190.131 80.51C189.811 80.79 189.651 81.16 189.651 81.62C189.651 82.22 189.851 82.63 190.251 82.85C190.671 83.05 191.131 83.15 191.631 83.15C192.551 83.15 193.321 82.87 193.941 82.31C194.561 81.73 194.951 81.02 195.111 80.18L195.261 79.46H194.841ZM206.988 73.25C207.468 72.49 208.038 71.87 208.698 71.39C209.378 70.91 210.188 70.67 211.128 70.67C211.308 70.67 211.488 70.68 211.668 70.7C211.868 70.72 212.028 70.75 212.148 70.79L211.368 75.05C211.148 74.99 210.938 74.95 210.738 74.93C210.538 74.91 210.348 74.9 210.168 74.9C209.468 74.9 208.878 75.02 208.398 75.26C207.918 75.5 207.518 75.8 207.198 76.16C206.898 76.5 206.668 76.87 206.508 77.27C206.368 77.67 206.268 78.02 206.208 78.32L204.858 86H200.058L202.188 74.15C202.268 73.77 202.348 73.28 202.428 72.68C202.528 72.08 202.598 71.54 202.638 71.06H207.198C207.198 71.16 207.188 71.31 207.168 71.51C207.148 71.69 207.118 71.89 207.078 72.11C207.058 72.31 207.028 72.52 206.988 72.74C206.968 72.94 206.948 73.11 206.928 73.25H206.988Z" fill="white"/>
<path d="M1 139.928L290.809 193.297L355.715 283L905 135.542L355.715 0L280.698 95.698L507.683 139.928H1Z" fill="white"/>
</svg>
