<svg width="904" height="283" viewBox="0 0 904 283" fill="none" xmlns="http://www.w3.org/2000/svg">
<path d="M16.5 64.96H10.34V94H7.26V64.96H1.1V62.32H16.5V64.96ZM22.6772 72.66V94H19.8172V62.32H22.6772V70.988L25.0092 68.92H30.0252C31.9612 69.624 33.4572 70.856 33.4572 74.2V94H30.5972V72.66L29.2772 71.34H24.4372L22.6772 72.66ZM40.7241 72.66V79.04H48.6441V72.66L47.3241 71.34H42.0441L40.7241 72.66ZM51.5041 88.72C51.5041 92.064 50.0081 93.296 48.0721 94H41.2961C39.3601 93.296 37.8641 92.064 37.8641 88.72V74.2C37.8641 70.856 39.3601 69.624 41.2961 68.92H48.0721C50.0081 69.624 51.5041 70.856 51.5041 74.2V81.46H40.7241V90.26L42.0441 91.58H47.3241L48.6441 90.26V84.936H51.5041V88.72ZM74.1001 74.42H71.2401L67.8081 94H61.2081L64.6401 74.42H62.2201L63.2321 68.92H65.6521L66.4441 64.212H73.0441L72.2521 68.92H75.1121L74.1001 74.42ZM77.1715 67.16L78.0075 62.32H84.6075L83.7715 67.16H77.1715ZM72.4195 94L76.8635 68.92H83.4635L79.0195 94H72.4195ZM88.7081 88.94H90.9081L91.4361 88.5L93.9001 74.42L93.5481 73.98H91.3481L88.7081 88.94ZM89.5881 94L88.1361 92.24L86.9041 99.28H80.3041L85.6721 68.92H92.2721L91.9201 70.68L94.0321 68.92H97.9921C99.8841 69.36 101.028 71.56 100.632 73.76L97.9041 89.204C97.4641 91.8 96.3641 93.12 93.7681 94H89.5881ZM122.699 88.72C122.127 92.064 120.851 93.296 118.343 94H109.367C107.563 93.296 106.331 91.624 106.859 88.72L109.411 74.2C110.027 70.856 111.303 69.624 113.811 68.92H122.787C124.591 69.624 125.779 71.296 125.251 74.2L122.699 88.72ZM115.967 74.42L113.503 88.5L113.855 88.94H115.615L116.143 88.5L118.607 74.42L118.255 73.98H116.495L115.967 74.42ZM138.854 74.42H135.862L132.43 94H125.83L129.262 74.42H126.974L127.986 68.92H130.274L130.494 67.6C131.066 64.256 132.342 63.024 134.85 62.32H140.57L139.734 67.16H137.622L137.094 67.6L136.874 68.92H139.866L138.854 74.42ZM151.843 88.5H154.043L156.551 74.464L156.507 74.42H154.307L153.823 74.86L151.491 88.06L151.843 88.5ZM153.075 94L153.471 91.8L150.875 94H147.135C145.331 93.12 144.319 91.36 144.671 89.204L147.399 73.76C147.883 71.12 149.291 69.36 151.799 68.92H155.759L157.167 70.68H157.211L157.519 68.92H164.119L159.675 94H153.075ZM173.646 82.384C170.786 81.02 170.698 80.272 171.226 77.324L171.754 74.2C172.37 70.856 173.646 69.624 176.154 68.92H184.69C186.494 69.624 187.682 71.296 187.154 74.2L186.626 77.324H180.026L180.51 74.42L180.158 73.98H178.838L178.31 74.42L177.826 77.368L177.914 77.544L182.886 79.7C185.13 80.668 185.834 81.68 185.306 84.76L184.602 88.72C184.03 92.064 182.754 93.296 180.246 94H171.71C169.906 93.296 168.674 91.624 169.202 88.72L169.862 84.936H176.462L175.846 88.5L176.198 88.94H177.518L178.046 88.5L178.662 84.892L178.574 84.716L173.646 82.384ZM193.165 88.94H195.365L195.893 88.5L198.357 74.42L198.005 73.98H195.805L193.165 88.94ZM194.045 94L192.593 92.24L191.361 99.28H184.761L190.129 68.92H196.729L196.377 70.68L198.489 68.92H202.449C204.341 69.36 205.485 71.56 205.089 73.76L202.361 89.204C201.921 91.8 200.821 93.12 198.225 94H194.045ZM213.807 74.42L213.059 78.82H215.699L216.447 74.42L216.095 73.98H214.335L213.807 74.42ZM220.539 88.72C219.967 92.064 218.691 93.296 216.183 94H207.207C205.403 93.296 204.171 91.624 204.699 88.72L207.251 74.2C207.867 70.856 209.143 69.624 211.651 68.92H220.627C222.431 69.624 223.619 71.296 223.091 74.2L221.551 83H212.311L211.343 88.5L211.695 88.94H213.455L213.983 88.5L214.599 84.936H221.199L220.539 88.72ZM229.874 88.5H232.074L234.582 74.464L234.538 74.42H232.338L231.854 74.86L229.522 88.06L229.874 88.5ZM231.106 94L231.502 91.8L228.906 94H225.166C223.362 93.12 222.35 91.36 222.702 89.204L225.43 73.76C225.914 71.12 227.322 69.36 229.83 68.92H233.79L235.198 70.68H235.242L235.55 68.92H242.15L237.706 94H231.106ZM249.064 79.48L246.512 94H239.912L244.356 68.92H250.956L250.604 70.724C251.396 69.8 252.408 69.272 253.508 68.92H256.324L255.092 75.74H250.164L249.636 76.18L249.064 79.48Z" fill="#4D4D4D"/>
<path d="M0 139.928L289.809 193.297L354.715 283L904 135.542L354.715 0L279.698 95.698L506.683 139.928H0Z" fill="#4D4D4D"/>
</svg>
