<svg width="80" height="80" viewBox="0 0 80 80" fill="none" xmlns="http://www.w3.org/2000/svg">
<path d="M19.3757 11.7188C20.2744 12.384 20.8188 13.0823 21.0749 14.1798C21.0914 14.6097 21.0825 14.9116 20.9382 15.3126C21.0767 15.3287 21.2153 15.3448 21.3581 15.3614C22.4266 15.5832 23.3223 16.3278 23.9753 17.1876C24.4927 18.05 24.6281 18.9828 24.7873 19.9641C25.2329 23.2675 25.2329 23.2675 27.1546 25.8558C29.5916 27.532 32.5875 27.8834 35.4694 27.8126C35.5244 27.6575 35.5794 27.5024 35.636 27.3426C37.2508 22.8643 37.2508 22.8643 39.0827 21.7286C41.0175 21.0465 43.1271 21.8347 44.8957 22.6466C46.5546 23.4426 48.0456 24.1592 48.7244 25.9724C48.9374 26.6912 49.0785 27.4186 49.2084 28.1562C49.2345 28.3018 49.2606 28.4474 49.2874 28.5974C49.339 28.8901 49.3882 29.1833 49.4349 29.4768C49.5757 30.2878 49.722 30.7973 50.3131 31.4063C50.5595 31.899 50.5241 32.4309 50.4694 32.9688C50.3715 33.1848 50.3715 33.1848 50.2716 33.4052C50.1265 34.039 50.262 34.2478 50.5912 34.7837C50.6573 34.8841 50.7235 34.9845 50.7917 35.088C50.8536 35.189 50.9155 35.29 50.9793 35.3941C51.3721 36.0177 51.8026 36.5261 52.3444 37.0313C52.6569 37.3438 52.6569 37.3438 52.7155 37.848C52.827 38.5214 53.0471 38.8793 53.4381 39.4337C53.6073 39.6772 53.6073 39.6772 53.7799 39.9256C54.0284 40.2858 54.0284 40.2858 54.2194 40.4688C54.3419 40.4624 54.4643 40.4559 54.5905 40.4493C55.0006 40.4688 55.0006 40.4688 55.2594 40.6605C55.5282 41.0152 55.5018 41.2007 55.4889 41.6407C55.5672 42.8791 56.5075 43.6945 57.3444 44.5313C57.5249 44.5281 57.7053 44.5249 57.8913 44.5216C58.0717 44.5248 58.2522 44.528 58.4381 44.5313C58.7506 45.0001 58.7506 45.0001 58.7311 45.6055C58.8266 46.7311 59.7981 47.4553 60.5555 48.2085C60.8347 48.491 61.0925 48.7881 61.3483 49.0919C63.1607 51.1657 65.1667 52.5169 67.5568 53.8215C71.0332 55.7198 71.0332 55.7198 72.5006 57.0313C72.6656 57.1691 72.6656 57.1691 72.8339 57.3096C74.3328 58.6547 75.0012 60.4343 75.1441 62.3988C75.1658 63.3668 75.0623 64.0414 74.5319 64.8536C74.2194 65.1563 74.2194 65.1563 73.9069 65.1563C73.8839 65.2415 73.861 65.3267 73.8373 65.4145C73.338 67.0934 72.4306 68.3135 70.9168 69.1901C69.2279 70.1005 67.5397 70.5369 65.6256 70.6251C65.4142 70.6375 65.4142 70.6375 65.1984 70.6501C59.7542 70.8157 54.1692 68.9733 49.1315 67.1094C48.9287 67.0347 48.9287 67.0347 48.7218 66.9585C45.2125 65.6216 41.8798 63.852 38.5282 62.1698C37.9794 61.8945 37.4302 61.6199 36.881 61.3454C36.3423 61.076 35.8038 60.8063 35.2654 60.5365C35.0127 60.41 34.76 60.2835 34.5073 60.1571C33.025 59.4152 31.5509 58.6596 30.0863 57.8829C29.0238 57.3199 27.9501 56.7807 26.8726 56.2471C25.3207 55.4784 23.775 54.7015 22.2474 53.8856C21.0409 53.2452 19.8171 52.6398 18.5944 52.0313C16.8701 51.173 15.1545 50.3024 13.4561 49.3937C13.1077 49.2093 12.7572 49.0294 12.406 48.8502C11.2099 48.2367 10.0557 47.6421 9.06315 46.7188C8.96627 46.6302 8.86939 46.5416 8.76957 46.4503C8.02778 45.6941 7.67195 44.8521 7.27787 43.8789C6.61602 42.2458 5.77513 40.7425 4.8151 39.2677C4.08367 38.1431 3.51327 37.074 3.12565 35.7813C3.09504 35.6863 3.06442 35.5912 3.03288 35.4932C2.68161 33.6288 2.97543 31.9125 3.8776 30.2637C5.12262 28.7341 6.84925 28.0514 8.75065 27.6563C8.90534 27.6563 9.06003 27.6563 9.2194 27.6563C9.21295 27.5047 9.20651 27.353 9.19987 27.1967C9.207 23.6433 11.5756 20.0628 13.9417 17.6051C14.7719 16.8064 15.6373 16.1828 16.7194 15.7813C16.4311 15.0537 15.9936 14.8893 15.3125 14.5661C14.8114 14.3616 14.3092 14.2045 13.7897 14.0528C12.7962 13.7598 12.2002 13.5022 11.5143 12.7052C11.1855 12.0597 11.0609 11.5052 11.0944 10.7813C11.3544 10.117 11.7107 9.84046 12.3444 9.53132C14.7197 8.76875 17.4674 10.4652 19.3757 11.7188ZM13.1257 11.2501C13.1945 11.5595 13.1945 11.5595 13.4382 11.8751C13.8566 12.0577 14.2551 12.2053 14.6882 12.3438C16.0973 12.8018 17.4718 13.2583 18.2624 14.5899C18.3439 14.7513 18.3439 14.7513 18.4272 14.9158C18.4824 14.9952 18.5375 15.0746 18.5944 15.1563C18.7491 15.1563 18.9038 15.1563 19.0632 15.1563C19.2273 14.8219 19.2273 14.8219 19.2194 14.3751C18.2862 12.8097 16.0897 11.8963 14.4202 11.3398C13.9793 11.229 13.5777 11.2012 13.1257 11.2501ZM14.1925 21.5947C12.8351 23.5643 11.6047 25.9762 11.7194 28.4376C11.8523 28.4664 11.9853 28.4952 12.1222 28.5249C14.6488 29.1296 16.9681 30.2849 19.2194 31.5626C18.9931 30.7868 18.6572 30.1449 18.2526 29.4532C17.7749 28.6192 17.3095 27.7817 16.8757 26.9239C16.7886 26.7525 16.7016 26.5811 16.612 26.4045C16.0162 25.048 16.2294 23.8907 16.6803 22.5239C17.2078 21.1936 18.1352 20.374 19.3757 19.6876C20.3945 19.2543 21.3982 18.9911 22.5007 18.9063C22.2567 18.0525 21.7061 17.6083 20.9522 17.1705C18.2514 16.0195 15.5589 19.6922 14.1925 21.5947ZM18.7507 22.5001C18.1577 23.2421 17.9103 24.0584 17.9694 25.0001C18.2218 26.0943 18.8613 27.0305 19.4429 27.9755C19.884 28.6967 20.2866 29.4295 20.6647 30.1856C20.7177 30.2904 20.7708 30.3952 20.8254 30.5032C21.1305 31.1196 21.3543 31.7264 21.5632 32.3829C22.0533 33.6075 23.1676 34.2319 24.2213 34.9448C24.6466 35.2344 25.0582 35.5406 25.4694 35.8497C25.618 35.9613 25.7667 36.0729 25.9198 36.1878C28.2175 37.9557 30.4261 39.8372 32.5537 41.8055C32.8932 42.1175 33.2359 42.4232 33.5846 42.7247C34.1459 43.211 34.6906 43.7139 35.235 44.2188C35.8771 44.8142 36.5236 45.4018 37.1863 45.9742C37.5735 46.314 37.9516 46.6631 38.3307 47.0118C39.0327 47.6519 39.7536 48.2596 40.4932 48.8557C40.8755 49.1677 41.2501 49.4869 41.623 49.81C50.1103 57.1325 61.6723 62.8658 72.9694 63.7501C73.3518 62.5424 73.2751 61.6507 72.8131 60.4688C71.5023 58.0203 69.0381 56.8195 66.6889 55.5626C63.8674 54.0494 61.4381 52.3188 59.3756 49.8438C59.1523 49.5823 58.9276 49.3219 58.7018 49.0626C58.5993 48.9433 58.4968 48.8241 58.3911 48.7012C58.1511 48.4009 58.1511 48.4009 57.8131 48.4376C57.7358 48.5471 57.6585 48.6567 57.5788 48.7696C57.0383 49.3912 56.3899 49.8431 55.6256 50.1563C55.2051 50.1331 55.2051 50.1331 54.8444 50.0001C54.5319 49.5313 54.5319 49.5313 54.5124 49.17C54.7902 48.5063 55.3612 48.2151 55.9381 47.8126C56.3364 47.5197 56.3364 47.5197 56.5631 47.1876C56.5409 46.3963 56.0605 45.9571 55.5378 45.42C55.4565 45.3341 55.3752 45.2482 55.2915 45.1597C55.0917 44.9489 54.8901 44.7399 54.6881 44.5313C54.586 44.622 54.586 44.622 54.4818 44.7144C52.9241 46.0766 52.9241 46.0766 52.0514 46.1329C51.8903 46.12 51.7292 46.1071 51.5631 46.0938C51.46 45.7844 51.3569 45.4751 51.2506 45.1563C51.7684 44.6229 52.3028 44.1409 52.8833 43.6762C53.1528 43.4108 53.2877 43.1573 53.4381 42.8126C53.2662 42.5615 53.0935 42.311 52.9206 42.0606C52.8245 41.921 52.7284 41.7815 52.6294 41.6376C52.3948 41.3187 52.165 41.0494 51.8756 40.7813C51.7945 40.8661 51.7133 40.9509 51.6297 41.0383C50.2229 42.4815 50.2229 42.4815 49.2487 42.5294C49.0843 42.5197 48.92 42.51 48.7506 42.5001C48.6475 42.1907 48.5444 41.8813 48.4381 41.5626C48.9916 40.9918 49.5698 40.4853 50.1929 39.9909C50.588 39.5575 50.7142 39.343 50.7819 38.7501C50.5408 38.1442 50.2065 37.6041 49.8639 37.0509C49.7731 36.8986 49.6823 36.7463 49.5887 36.5894C49.3642 36.2141 49.1369 35.8408 48.9069 35.4688C48.835 35.5357 48.763 35.6026 48.6889 35.6715C48.5929 35.7579 48.4968 35.8443 48.3979 35.9333C48.2561 36.0626 48.2561 36.0626 48.1115 36.1946C47.6511 36.5213 47.2622 36.4823 46.7194 36.4063C46.5631 36.2501 46.5631 36.2501 46.4753 35.7716C46.6037 34.8728 47.1451 34.4804 47.8131 33.9063C47.6414 33.6292 47.4687 33.3526 47.2956 33.0762C47.1995 32.9222 47.1034 32.7681 47.0044 32.6093C46.9104 32.4701 46.8163 32.331 46.7194 32.1876C46.6562 32.0937 46.5929 31.9999 46.5277 31.9031C46.0634 31.5943 45.5317 31.641 44.9909 31.6309C43.7905 31.6024 43.7905 31.6024 43.4381 31.2501C43.4738 30.2696 43.4738 30.2696 43.9167 29.8536C44.0166 29.7988 44.1165 29.744 44.2194 29.6876C42.344 28.6845 40.3674 29.069 38.3405 29.3751C33.8773 30.0114 29.4358 29.7491 25.5866 27.1583C23.9022 25.4356 23.2997 23.1085 22.9694 20.7813C21.1936 20.6479 19.9658 21.1997 18.7507 22.5001ZM39.3756 23.9063C38.6588 24.7931 37.6569 26.5025 37.6569 27.6563C37.8382 27.6338 38.0194 27.6112 38.2062 27.588C40.9167 27.261 43.6188 26.9674 45.9497 28.675C46.4363 29.0779 46.8149 29.4894 47.1881 30.0001C47.2913 30.0001 47.3944 30.0001 47.5006 30.0001C47.4431 29.121 47.3289 28.2571 47.1588 27.3927C47.112 27.15 47.112 27.15 47.0642 26.9025C46.6476 25.8062 45.9199 25.2262 44.8767 24.7395C44.7501 24.6837 44.6234 24.6279 44.4928 24.5704C44.3686 24.5122 44.2443 24.454 44.1162 24.394C41.7249 23.2627 41.7249 23.2627 39.3756 23.9063ZM8.12565 30.6251C8.18165 31.7451 8.87048 32.4036 9.56669 33.2197C10.7278 34.5941 11.5976 35.8573 11.5729 37.7052C11.5715 37.8431 11.5701 37.9811 11.5686 38.1232C11.5668 38.227 11.565 38.3307 11.5632 38.4376C10.6171 38.4681 10.6171 38.4681 10.3132 38.4376C9.94233 38.0668 9.95081 37.9286 9.88346 37.4219C9.5858 35.8502 8.61477 34.8251 7.5446 33.6921C7.08964 33.1678 6.82803 32.6695 6.56315 32.0313C6.08267 32.1449 6.08267 32.1449 5.84049 32.5001C5.50812 33.2253 5.30722 33.9317 5.59086 34.7071C5.79366 35.0786 6.01691 35.4285 6.25065 35.7813C6.43733 36.0768 6.62277 36.3731 6.80729 36.67C6.91384 36.8408 7.02039 37.0116 7.13017 37.1876C7.50909 37.8132 7.85036 38.4575 8.19409 39.103C10.3318 43.1115 13.3138 45.0737 17.2181 47.2001C18.4374 47.8642 19.6452 48.5434 20.8352 49.2591C21.2503 49.5564 21.2503 49.5564 21.7194 49.6876C21.8883 47.1115 20.2679 44.9622 18.7311 43.0274C17.5427 41.5312 16.1138 39.5375 16.026 37.5782C16.0486 37.3977 16.0712 37.2173 16.0944 37.0313C16.5632 36.7188 16.5632 36.7188 16.9538 36.7091C17.3444 36.8751 17.3444 36.8751 17.5696 37.3597C17.651 37.5627 17.7321 37.7657 17.8132 37.9688C18.5368 39.5853 19.3893 40.9634 20.4743 42.3615C23.5965 46.3981 23.5965 46.3981 23.4068 48.2794C23.3782 48.4396 23.3782 48.4396 23.349 48.603C23.229 49.3934 23.2006 50.0632 23.5944 50.7813C24.6763 51.7587 26.0849 52.3618 27.3881 52.994C28.219 53.3994 29.0152 53.8635 29.8151 54.3262C30.1062 54.491 30.3976 54.6554 30.6891 54.8194C31.2884 55.1574 31.8873 55.496 32.486 55.835C33.241 56.2626 33.9964 56.6894 34.7522 57.1156C35.0022 57.2565 35.252 57.3977 35.5017 57.5391C51.3275 66.6688 51.3275 66.6688 68.9069 67.8126C70.0555 67.3577 71.1788 66.5978 71.7194 65.4688C71.5522 65.4328 71.3849 65.3967 71.2126 65.3596C61.3884 63.2332 51.9946 60.0589 43.9069 53.9063C43.8081 53.8312 43.7093 53.7561 43.6075 53.6787C42.4316 52.7794 41.294 51.8385 40.1691 50.8765C39.7324 50.504 39.2865 50.1441 38.8385 49.7852C37.9501 49.0631 37.1199 48.2842 36.2854 47.5013C35.8099 47.0556 35.3242 46.6236 34.831 46.1976C34.2025 45.6512 33.5876 45.0894 32.9694 44.5313C32.5787 44.1796 32.1879 43.828 31.7969 43.4766C31.5378 43.2431 31.2794 43.0087 31.0218 42.7735C30.2303 42.0533 29.4205 41.3654 28.5883 40.6928C28.1729 40.3514 27.7661 40.0026 27.3608 39.6493C23.0236 35.8763 16.2085 30.0898 10.1819 30.1197C9.45625 30.1735 8.80492 30.3726 8.12565 30.6251Z" fill="white"/>
<path d="M74.0624 49.375C74.2227 49.3799 74.2227 49.3799 74.3863 49.3848C74.7244 49.3951 75.0623 49.4089 75.4003 49.4238C75.5622 49.429 75.5622 49.429 75.7273 49.4343C76.1748 49.4589 76.4931 49.4829 76.8657 49.743C77.1277 50.1499 77.0899 50.4673 77.0312 50.9375C76.8542 51.1987 76.8542 51.1987 76.5624 51.4062C75.836 51.4905 75.1047 51.4355 74.3749 51.4062C74.2145 51.4014 74.2145 51.4014 74.0509 51.3964C73.7323 51.3863 73.414 51.3726 73.0956 51.3574C72.9033 51.3483 72.7109 51.3393 72.5127 51.3299C72.0312 51.25 72.0312 51.25 71.7345 51.0382C71.4598 50.628 71.4926 50.3221 71.5624 49.8437C72.2795 49.1382 73.1233 49.333 74.0624 49.375Z" fill="white"/>
<path d="M73.1252 43.4374C73.4084 43.6132 73.4084 43.6132 73.5939 43.9062C73.6537 44.3444 73.6537 44.3444 73.5939 44.8437C72.8273 45.7836 71.6051 46.8699 70.4689 47.3437C69.9808 47.2974 69.7568 47.2476 69.3849 46.9237C69.2189 46.5624 69.2189 46.5624 69.2867 46.1376C69.6325 45.4132 70.1531 45.0422 70.7814 44.5605C70.8966 44.4691 71.0118 44.3778 71.1305 44.2837C72.3067 43.3576 72.3067 43.3576 73.1252 43.4374Z" fill="white"/>
<path d="M68.4369 40.3127C68.7067 40.5635 68.7067 40.5635 68.9056 40.9377C68.8902 42.1749 68.5607 43.3812 68.1244 44.5314C67.0892 44.7267 67.0892 44.7267 66.5619 44.3752C66.2715 43.646 66.5283 42.9084 66.6791 42.1681C66.7057 42.0245 66.7322 41.8809 66.7596 41.7329C66.787 41.5958 66.8144 41.4586 66.8426 41.3173C66.8797 41.1293 66.8797 41.1293 66.9176 40.9376C67.1766 40.2219 67.7794 40.2305 68.4369 40.3127Z" fill="white"/>
<path d="M45.8321 44.8865L32.8975 39.7492L32.8518 36.9919L32.8475 36.7955L32.7114 36.654L30.8135 34.6819L37.9514 39.8851L38.6094 39.1382L34.6401 34.9299L36.8124 34.3636L45.8321 44.8865Z" fill="white" stroke="white"/>
</svg>
