<svg width="62" height="62" viewBox="0 0 62 62" fill="none" xmlns="http://www.w3.org/2000/svg">
<g clip-path="url(#clip0_1300_389)">
<path d="M41.9448 0.66266C42.8343 1.28558 43.4762 2.19979 43.7139 3.26949C43.7169 3.55202 43.7173 3.83461 43.7139 4.11714C43.8296 4.12027 43.9453 4.12339 44.0645 4.1266C45.7417 4.20018 47.0113 4.56899 48.1954 5.82901C48.5706 6.27879 48.8121 6.66667 48.9929 7.22472C49.041 7.37219 49.041 7.37219 49.0901 7.52263C49.1142 7.59765 49.1383 7.67266 49.1632 7.74996C49.2386 7.74888 49.3139 7.7478 49.3916 7.7467C50.1834 7.7359 50.9752 7.72864 51.767 7.72335C52.0617 7.72093 52.3563 7.71763 52.651 7.71342C55.0965 7.6793 56.9965 7.78873 58.8809 9.52852C60.0503 10.7675 60.6809 12.3506 60.683 14.0445C60.6834 14.1875 60.6839 14.3306 60.6844 14.478C60.6843 14.634 60.6842 14.7901 60.6841 14.9509C60.6844 15.1192 60.6848 15.2876 60.6852 15.4559C60.6861 15.9179 60.6864 16.3799 60.6865 16.8418C60.6867 17.3404 60.6876 17.8389 60.6884 18.3374C60.69 19.4272 60.6908 20.5171 60.6913 21.607C60.6916 22.2879 60.6922 22.9688 60.6927 23.6496C60.6942 25.5358 60.6954 27.4219 60.6958 29.3081C60.6959 29.4288 60.6959 29.5494 60.6959 29.6738C60.6959 29.7947 60.696 29.9157 60.696 30.0403C60.696 30.2854 60.6961 30.5305 60.6962 30.7757C60.6962 30.8972 60.6962 31.0188 60.6962 31.1441C60.6967 33.1131 60.6988 35.0822 60.7017 37.0513C60.7045 39.0742 60.706 41.0971 60.7062 43.12C60.7063 44.2552 60.707 45.3905 60.7092 46.5257C60.711 47.4926 60.7117 48.4595 60.7107 49.4264C60.7102 49.9193 60.7103 50.4122 60.712 50.9051C60.7136 51.3573 60.7134 51.8094 60.7119 52.2616C60.7116 52.5007 60.713 52.7398 60.7145 52.9789C60.7034 55.0017 60.173 56.784 58.7296 58.2461C57.3898 59.3501 56.0006 59.9573 54.2463 59.9559C54.1635 59.956 54.0808 59.9561 53.9956 59.9562C53.7201 59.9564 53.4446 59.9558 53.169 59.9551C52.9709 59.9551 52.7727 59.9551 52.5746 59.9552C52.0377 59.9552 51.5009 59.9545 50.964 59.9536C50.4026 59.9529 49.8411 59.9528 49.2797 59.9527C48.2169 59.9523 47.1543 59.9513 46.0915 59.9501C44.8815 59.9487 43.6714 59.9481 42.4614 59.9475C39.9727 59.9462 37.4839 59.9441 34.9952 59.9414C34.9398 60.1138 34.9398 60.1138 34.8834 60.2897C34.7652 60.6326 34.666 60.8347 34.4351 61.1069C34.3811 61.1734 34.3271 61.2399 34.2715 61.3084C33.3018 62.1283 32.28 62.0715 31.0753 62.0643C30.8807 62.0646 30.6861 62.0651 30.4915 62.0657C30.084 62.0664 29.6766 62.0654 29.2692 62.0631C28.753 62.0604 28.2369 62.0619 27.7207 62.0648C27.3185 62.0666 26.9163 62.066 26.5141 62.0648C26.3242 62.0644 26.1343 62.0648 25.9443 62.066C22.6323 62.0816 20.1232 60.7335 17.3769 59.0225C16.8698 58.7069 16.3595 58.3976 15.8468 58.0914C14.472 57.2679 13.1361 56.4672 11.9874 55.3398C11.8937 55.248 11.8001 55.1562 11.7036 55.0617C10.9939 54.317 10.4217 53.4754 9.8375 52.6322C9.42996 52.0456 9.00706 51.4709 8.58162 50.8972C8.04559 50.1731 7.51427 49.4464 6.99235 48.7121C6.58879 48.1443 6.18183 47.5791 5.77376 47.0146C5.67423 46.8769 5.67423 46.8769 5.5727 46.7364C5.43733 46.5492 5.30196 46.362 5.16658 46.1748C4.96729 45.8991 4.76811 45.6234 4.56897 45.3477C4.50416 45.2579 4.43935 45.1682 4.37258 45.0757C4.24244 44.8955 4.11234 44.7152 3.98228 44.535C3.64317 44.065 3.30327 43.5957 2.96211 43.1273C2.89179 43.0305 2.82147 42.9337 2.74902 42.834C2.61573 42.6506 2.4822 42.4674 2.34837 42.2844C1.52252 41.1466 0.950875 40.3229 1.08894 38.8711C1.31017 37.7717 2.035 37.0985 2.90535 36.4492C2.98527 36.4492 3.0652 36.4492 3.14754 36.4492C3.1605 36.3654 3.17345 36.2815 3.1868 36.1952C3.69741 34.0022 5.5297 32.2504 7.37287 31.0989C9.59092 29.7654 12.6326 28.634 15.2569 28.8203C15.8918 29.2848 16.4799 30.1303 16.6476 30.9091C16.6729 31.5782 16.3875 31.9642 16.0355 32.5009C15.5664 33.2304 15.2605 33.7837 15.4324 34.6716C15.647 35.4231 16.0046 35.8197 16.6192 36.2978C17.1474 36.5379 17.7078 36.5703 18.2843 36.5703C18.2839 36.4504 18.2836 36.3306 18.2832 36.2071C18.2752 33.2882 18.2692 30.3692 18.2654 27.4503C18.2636 26.0387 18.261 24.6271 18.2569 23.2155C18.2532 21.9849 18.2509 20.7542 18.2501 19.5236C18.2496 18.8722 18.2485 18.2209 18.2458 17.5696C18.2434 16.9558 18.2426 16.3421 18.2432 15.7283C18.2431 15.5038 18.2424 15.2792 18.241 15.0546C18.2284 12.9275 18.5348 11.2028 20.0548 9.60515C21.1379 8.54871 22.4597 7.73251 24.0143 7.73621C24.1428 7.73622 24.2712 7.73623 24.4036 7.73624C24.5415 7.73686 24.6794 7.73749 24.8214 7.73813C24.9632 7.7383 25.105 7.73847 25.251 7.73865C25.7038 7.73933 26.1566 7.74085 26.6095 7.74239C26.9164 7.74299 27.2234 7.74355 27.5304 7.74404C28.283 7.74538 29.0356 7.74741 29.7882 7.74996C29.8059 7.65549 29.8236 7.56102 29.8418 7.46369C30.0468 6.49363 30.7197 5.68657 31.4835 5.08589C32.3723 4.52604 33.2316 4.2423 34.2686 4.11714C34.4377 4.09211 34.6067 4.06691 34.7757 4.04146C34.8881 4.02647 35.0005 4.01149 35.1163 3.99605C35.132 3.886 35.132 3.886 35.148 3.77373C35.3915 2.32143 35.9733 1.35448 37.1749 0.484331C38.6036 -0.426436 40.5639 -0.188047 41.9448 0.66266ZM37.296 2.42183C36.8802 2.97713 36.7919 3.40708 36.6905 4.11714C38.5287 4.11714 40.3669 4.11714 42.2608 4.11714C41.9793 2.99094 41.621 2.35361 40.6866 1.69527C39.4552 1.11886 38.2212 1.49662 37.296 2.42183ZM31.5667 7.2197C30.5307 8.80799 30.9991 11.8933 30.9991 13.3203C36.5537 13.3203 42.1082 13.3203 47.8311 13.3203C48.1336 9.76282 48.1336 9.76282 47.1424 6.93257C46.1612 5.97784 45.1752 5.65468 43.8363 5.65618C43.7306 5.65537 43.625 5.65455 43.5161 5.65372C43.1688 5.65143 42.8215 5.65094 42.4742 5.65068C42.2312 5.6499 41.9883 5.64909 41.7453 5.64824C41.2367 5.64679 40.728 5.64634 40.2194 5.64648C39.57 5.64651 38.9206 5.6432 38.2712 5.63903C37.7695 5.63633 37.2678 5.63585 36.7662 5.63598C36.5269 5.63569 36.2875 5.63463 36.0482 5.63275C34.2328 5.61981 32.7864 5.71332 31.5667 7.2197ZM20.6953 11.1926C19.6228 12.6357 19.7024 14.4049 19.7099 16.1223C19.71 16.342 19.7099 16.5617 19.7098 16.7814C19.7097 17.3743 19.7111 17.9672 19.7128 18.56C19.7143 19.1809 19.7145 19.8019 19.7148 20.4228C19.7155 21.597 19.7175 22.7712 19.7199 23.9453C19.7227 25.2828 19.724 26.6203 19.7252 27.9577C19.7277 30.7075 19.732 33.4572 19.7374 36.207C20.1476 36.0593 20.548 35.8952 20.9483 35.7226C21.036 35.6905 21.1236 35.6584 21.214 35.6254C21.4979 35.486 21.6245 35.3856 21.796 35.1171C21.9222 34.4571 21.9052 33.8021 21.8956 33.1334C21.8958 32.9277 21.8963 32.722 21.8972 32.5163C21.8984 32.0735 21.8968 31.6308 21.8932 31.188C21.8876 30.4872 21.888 29.7864 21.8892 29.0856C21.8907 27.8499 21.8869 26.6144 21.8821 25.3788C21.8748 23.5208 21.8719 21.6628 21.8734 19.8048C21.8738 19.1088 21.8715 18.413 21.8672 17.7171C21.865 17.2829 21.8647 16.8488 21.8649 16.4146C21.8646 16.2142 21.8634 16.0138 21.8614 15.8134C21.8487 14.5366 21.9451 13.5269 22.6663 12.4348C23.2992 11.83 24.0792 11.3766 24.9682 11.3579C25.07 11.3555 25.1717 11.3531 25.2766 11.3506C25.4407 11.3476 25.4407 11.3476 25.6081 11.3445C25.7766 11.3407 25.7766 11.3407 25.9486 11.3368C26.3076 11.3289 26.6667 11.3218 27.0257 11.3147C27.2691 11.3094 27.5125 11.3041 27.7558 11.2988C28.3525 11.2858 28.9492 11.2736 29.546 11.2617C29.546 10.5823 29.546 9.903 29.546 9.20308C28.7943 9.19404 28.0427 9.18748 27.291 9.18313C27.0358 9.18131 26.7806 9.17884 26.5254 9.17568C26.1565 9.17122 25.7877 9.1692 25.4189 9.1676C25.3065 9.16573 25.1942 9.16385 25.0785 9.16192C23.2753 9.16147 21.859 9.81745 20.6953 11.1926ZM49.4053 9.20308C49.4053 9.88242 49.4053 10.5618 49.4053 11.2617C49.5531 11.2622 49.7008 11.2627 49.853 11.2632C50.406 11.2658 50.9589 11.2724 51.5118 11.2802C51.7502 11.2829 51.9886 11.2847 52.227 11.2854C54.7003 11.2935 54.7003 11.2935 55.7022 11.9882C55.8325 12.0508 55.8325 12.0508 55.9654 12.1146C56.2555 12.2665 56.3051 12.4164 56.4288 12.7148C56.4702 12.7933 56.5115 12.8718 56.5541 12.9527C56.5952 13.0316 56.6362 13.1104 56.6785 13.1916C56.7199 13.2701 56.7613 13.3486 56.8039 13.4295C57.0202 13.9323 57.0495 14.4269 57.0502 14.9691C57.0506 15.1054 57.0511 15.2417 57.0516 15.3821C57.0515 15.5312 57.0514 15.6803 57.0513 15.834C57.0516 15.9929 57.052 16.1518 57.0524 16.3155C57.0533 16.7563 57.0536 17.1972 57.0536 17.6381C57.0539 18.1136 57.0548 18.5892 57.0556 19.0647C57.0572 20.1046 57.058 21.1444 57.0585 22.1842C57.0588 22.8336 57.0593 23.483 57.0599 24.1324C57.0614 25.9309 57.0626 27.7294 57.063 29.5279C57.0631 29.7005 57.0631 29.7005 57.0631 29.8766C57.0631 29.992 57.0632 30.1073 57.0632 30.2262C57.0632 30.4599 57.0633 30.6937 57.0633 30.9274C57.0634 31.1014 57.0634 31.1014 57.0634 31.2788C57.0639 33.1573 57.066 35.0358 57.0688 36.9142C57.0717 38.8434 57.0732 40.7726 57.0734 42.7017C57.0735 43.7846 57.0742 44.8676 57.0764 45.9505C57.0782 46.8727 57.0788 47.7949 57.0779 48.7171C57.0774 49.1874 57.0775 49.6577 57.0792 50.128C57.081 50.6385 57.08 51.1489 57.0788 51.6594C57.0802 51.881 57.0802 51.881 57.0817 52.1072C57.075 53.271 56.923 54.3137 56.1715 55.24C55.3352 56.0536 54.4695 56.3214 53.3288 56.3277C53.2502 56.3283 53.1715 56.3289 53.0905 56.3295C52.828 56.3314 52.5655 56.3324 52.3029 56.3334C52.1143 56.3346 51.9258 56.3358 51.7372 56.337C51.2258 56.3403 50.7145 56.3429 50.2031 56.3453C49.6685 56.3479 49.1339 56.3512 48.5993 56.3545C47.5872 56.3605 46.5751 56.366 45.563 56.3712C44.4106 56.3772 43.2583 56.3838 42.1059 56.3905C39.7357 56.4043 37.3654 56.4172 34.9952 56.4296C35.0352 57.069 35.0751 57.7084 35.1163 58.3671C37.7142 58.3784 40.3121 58.387 42.91 58.3922C44.1164 58.3947 45.3227 58.3981 46.529 58.4037C47.5809 58.4085 48.6327 58.4116 49.6845 58.4127C50.2411 58.4133 50.7977 58.4148 51.3543 58.4184C51.879 58.4217 52.4036 58.4227 52.9284 58.4219C53.1201 58.4221 53.3119 58.423 53.5037 58.4249C55.054 58.4392 56.3449 58.2354 57.5186 57.1562C58.5284 56.1589 59.0939 55.057 59.124 53.6275C59.1256 53.3233 59.126 53.0192 59.1252 52.715C59.1257 52.5454 59.1262 52.3758 59.1269 52.2062C59.1284 51.7413 59.1283 51.2763 59.1281 50.8114C59.128 50.3095 59.1293 49.8076 59.1305 49.3057C59.1325 48.3228 59.1332 47.3399 59.1333 46.357C59.1334 45.5579 59.1339 44.7588 59.1347 43.9597C59.1368 41.6931 59.1379 39.4265 59.1378 37.1599C59.1377 36.9767 59.1377 36.9767 59.1377 36.7898C59.1377 36.6063 59.1377 36.6063 59.1377 36.4191C59.1376 34.4374 59.1399 32.4557 59.1433 30.4739C59.1468 28.4381 59.1485 26.4024 59.1483 24.3666C59.1482 23.2241 59.1489 22.0815 59.1515 20.939C59.1537 19.9661 59.1542 18.9933 59.1526 18.0204C59.1518 17.5244 59.1517 17.0283 59.1539 16.5322C59.1558 16.0775 59.1554 15.6227 59.1533 15.168C59.1528 14.9269 59.1546 14.6858 59.1565 14.4448C59.1451 12.9503 58.7166 11.6776 57.6894 10.5696C56.5174 9.48588 55.1176 9.16247 53.5679 9.17943C53.3886 9.17994 53.3886 9.17994 53.2056 9.18047C52.8268 9.18182 52.4481 9.18485 52.0694 9.18794C51.8113 9.18916 51.5532 9.19026 51.2951 9.19126C50.6652 9.19391 50.0353 9.19809 49.4053 9.20308ZM23.6124 13.6835C23.1254 14.6329 23.2002 15.6835 23.2079 16.7201C23.208 16.916 23.2079 17.1118 23.2077 17.3076C23.2076 17.8364 23.2097 18.3652 23.2123 18.8941C23.2145 19.4478 23.2148 20.0015 23.2152 20.5551C23.2163 21.6024 23.2193 22.6497 23.2229 23.6969C23.227 24.8897 23.229 26.0825 23.2308 27.2753C23.2346 29.7278 23.241 32.1803 23.2491 34.6328C23.3328 34.6481 23.4165 34.6634 23.5027 34.6791C23.6122 34.6999 23.7217 34.7207 23.8345 34.7421C23.9431 34.7624 24.0518 34.7827 24.1637 34.8036C24.5243 34.8904 24.7375 35.0205 25.005 35.2761C25.0811 35.3455 25.1573 35.415 25.2358 35.4866C25.6771 36.0263 25.7245 36.6324 25.7793 37.3058C25.7923 37.4533 25.7923 37.4533 25.8055 37.6038C25.8244 37.819 25.8429 38.0343 25.861 38.2497C25.891 38.5974 25.9238 38.9447 25.9572 39.2921C26.0737 40.5322 26.1652 41.7681 26.2105 43.0129C26.1552 47.0075 26.1552 47.0075 27.9491 50.3598C28.4164 50.743 28.897 51.0508 29.4249 51.3437C29.554 51.4177 29.6831 51.4917 29.8161 51.568C30.4263 51.9087 31.0398 52.2157 31.6826 52.4898C32.6073 52.9029 33.2822 53.3642 33.7579 54.2696C34.038 54.6743 34.1814 54.8305 34.6593 54.9671C35.1675 55.0092 35.6633 55.0124 36.1725 55.0025C36.3667 55.0032 36.5609 55.0043 36.7551 55.006C37.2812 55.0089 37.8069 55.0043 38.3329 54.9981C38.8842 54.9928 39.4354 54.9939 39.9868 54.9941C40.9126 54.9936 41.8384 54.9883 42.7642 54.98C43.8332 54.9705 44.9021 54.9673 45.9712 54.9678C47.1111 54.9682 48.2509 54.964 49.3907 54.9584C49.7184 54.9571 50.046 54.9567 50.3736 54.9565C50.8894 54.9558 51.4051 54.9521 51.9209 54.9461C52.1097 54.9443 52.2985 54.9436 52.4873 54.9439C53.7589 54.9566 53.7589 54.9566 54.905 54.4621C55.6558 53.6315 55.6503 52.9037 55.6418 51.8204C55.6423 51.6588 55.643 51.4973 55.6439 51.3357C55.6456 50.8931 55.6444 50.4505 55.6427 50.0078C55.6413 49.53 55.6428 49.0521 55.6439 48.5742C55.6456 47.6387 55.6446 46.7031 55.6428 45.7675C55.6408 44.678 55.6412 43.5885 55.6416 42.4989C55.6423 40.555 55.6406 38.6112 55.6376 36.6673C55.6347 34.7809 55.6339 32.8946 55.6351 31.0083C55.6365 28.9541 55.6368 26.8999 55.635 24.8457C55.6348 24.6266 55.6346 24.4076 55.6345 24.1886C55.6344 24.0809 55.6343 23.9731 55.6342 23.8621C55.6336 23.1026 55.6338 22.3431 55.6343 21.5835C55.6349 20.6581 55.6342 19.7327 55.6318 18.8072C55.6306 18.335 55.63 17.8628 55.631 17.3906C55.632 16.8789 55.6302 16.3673 55.6281 15.8556C55.6288 15.7061 55.6295 15.5566 55.6303 15.4026C55.6286 14.4298 55.6286 14.4298 55.2178 13.5625C54.4577 12.8354 53.8789 12.6775 52.8466 12.6911C52.6987 12.6917 52.6987 12.6917 52.5478 12.6922C52.2344 12.6935 51.9211 12.6966 51.6077 12.6997C51.3946 12.7009 51.1815 12.702 50.9685 12.703C50.4474 12.7056 49.9264 12.7098 49.4053 12.7148C49.4053 12.9146 49.4053 13.1144 49.4053 13.3203C49.4756 13.3367 49.5458 13.353 49.6182 13.3699C50.369 13.5768 50.8011 13.8702 51.2218 14.5312C51.4307 15.158 51.3703 15.8201 51.3731 16.4763C51.3769 16.696 51.3769 16.696 51.3807 16.9202C51.3816 17.1297 51.3816 17.1297 51.3826 17.3433C51.3837 17.4716 51.3848 17.6 51.386 17.7322C51.3718 17.8347 51.3575 17.9373 51.3428 18.0429C50.9014 18.3372 50.5759 18.3197 50.0657 18.3175C49.9248 18.3183 49.9248 18.3183 49.7811 18.3192C49.4654 18.3207 49.1497 18.3205 48.834 18.3203C48.608 18.321 48.3821 18.3218 48.1561 18.3228C47.5417 18.3249 46.9272 18.3255 46.3127 18.3256C45.8002 18.3258 45.2877 18.3267 44.7752 18.3276C43.5664 18.3296 42.3576 18.3302 41.1488 18.33C39.9006 18.3298 38.6525 18.3324 37.4044 18.3362C36.3338 18.3394 35.2631 18.3407 34.1924 18.3405C33.5525 18.3405 32.9127 18.3412 32.2728 18.3437C31.6712 18.3461 31.0696 18.3461 30.468 18.3443C30.2469 18.3441 30.0259 18.3447 29.8048 18.3461C29.5035 18.348 29.2023 18.3469 28.901 18.345C28.8132 18.3462 28.7253 18.3475 28.6348 18.3488C28.2208 18.3431 28.0073 18.3126 27.6753 18.0562C27.4535 17.7546 27.4265 17.6024 27.4273 17.2312C27.4272 17.1224 27.4272 17.0136 27.4271 16.9015C27.4295 16.7887 27.4319 16.6758 27.4344 16.5595C27.4335 16.4485 27.4327 16.3376 27.4318 16.2232C27.4399 15.3532 27.5713 14.6588 28.108 13.9484C28.5565 13.6072 29.0063 13.4649 29.546 13.3203C29.546 13.1205 29.546 12.9207 29.546 12.7148C28.9234 12.7058 28.3009 12.6992 27.6783 12.6948C27.4667 12.693 27.2552 12.6905 27.0437 12.6874C26.7386 12.683 26.4335 12.6809 26.1284 12.6793C26.0348 12.6774 25.9411 12.6756 25.8447 12.6736C24.9188 12.6734 24.2028 12.9291 23.6124 13.6835ZM28.9405 15.2578C28.9405 15.7773 28.9405 16.2968 28.9405 16.832C35.8937 16.832 42.8469 16.832 50.0108 16.832C50.1561 15.4717 50.1561 15.4717 49.6475 14.8945C49.2729 14.8214 49.2729 14.8214 48.834 14.8338C48.7093 14.8328 48.7093 14.8328 48.5821 14.8318C48.3029 14.8301 48.0238 14.8319 47.7446 14.8337C47.5447 14.8333 47.3448 14.8326 47.1449 14.8318C46.6015 14.8301 46.0581 14.8314 45.5147 14.8334C44.9466 14.8351 44.3785 14.8343 43.8105 14.8339C42.8564 14.8336 41.9024 14.8352 40.9483 14.838C39.8445 14.8412 38.7407 14.8414 37.6369 14.84C36.5761 14.8387 35.5153 14.8394 34.4544 14.8412C34.0025 14.8419 33.5506 14.8418 33.0987 14.8413C32.5667 14.8407 32.0348 14.8419 31.5028 14.8445C31.3073 14.8452 31.1118 14.8453 30.9163 14.8447C30.65 14.8439 30.3837 14.8455 30.1174 14.8475C29.8935 14.848 29.8935 14.848 29.6652 14.8484C29.2618 14.8624 29.2618 14.8624 28.9405 15.2578ZM6.78035 33.5429C6.6726 33.668 6.56632 33.7943 6.46136 33.9218C6.36682 34.0365 6.27228 34.1513 6.17488 34.2695C6.24204 34.3702 6.3092 34.4708 6.3784 34.5746C6.6302 34.9525 6.88089 35.3311 7.13127 35.71C7.23926 35.8731 7.34754 36.0359 7.45612 36.1986C8.34645 37.5331 9.1053 38.6728 9.10384 40.3242C9.10395 40.4603 9.10395 40.4603 9.10407 40.5992C9.09682 41.3715 9.00197 42.1117 8.83894 42.8671C9.69169 42.7973 10.4539 42.4946 11.2537 42.2044C11.4833 42.1226 11.713 42.0407 11.9426 41.9589C12.5061 41.7579 13.0689 41.5551 13.6317 41.3523C13.9485 41.2381 14.2656 41.1246 14.5829 41.0117C14.8809 40.9056 15.1787 40.7985 15.476 40.6903C15.6114 40.6422 15.7468 40.5941 15.8863 40.5446C16.0047 40.5019 16.1232 40.4593 16.2452 40.4153C16.6202 40.3159 16.9293 40.2916 17.3155 40.3242C17.7439 40.8126 17.9143 41.5328 18.1253 42.1406C18.1641 42.2483 18.2029 42.356 18.2429 42.467C18.2795 42.5716 18.3161 42.6761 18.3538 42.7839C18.387 42.8783 18.4202 42.9728 18.4544 43.0701C18.5363 43.3899 18.5729 43.6288 18.5264 43.957C18.1793 44.2704 17.8252 44.4201 17.3868 44.5727C17.2559 44.6188 17.1251 44.6648 16.9902 44.7122C16.7794 44.7849 16.7794 44.7849 16.5643 44.859C16.4199 44.9096 16.2754 44.9601 16.1266 45.0122C15.7438 45.146 15.3607 45.2791 14.9775 45.4118C14.5861 45.5475 14.1949 45.6843 13.8038 45.8209C13.0372 46.0885 12.2702 46.3552 11.503 46.6211C11.6562 47.0166 11.8092 47.3475 12.0631 47.6882C12.2054 47.8793 12.2054 47.8793 12.3507 48.0742C12.7564 48.0005 13.1331 47.9013 13.5208 47.7615C13.6292 47.7227 13.7375 47.6839 13.8492 47.644C13.9648 47.6022 14.0805 47.5605 14.1997 47.5174C14.4472 47.4295 14.6946 47.3416 14.9421 47.2537C15.3306 47.1154 15.7189 46.9767 16.1067 46.8367C16.4822 46.7015 16.8583 46.5682 17.2346 46.4352C17.3496 46.3932 17.4645 46.3512 17.5829 46.3079C18.2513 46.0735 18.7868 45.9696 19.4952 46.0156C19.8304 46.6238 20.0867 47.2438 20.3126 47.9001C20.3644 48.0501 20.4162 48.2001 20.4696 48.3547C20.5899 48.8196 20.6521 49.1718 20.585 49.6484C20.0764 50.0373 19.46 50.2129 18.8609 50.418C18.7009 50.4737 18.7009 50.4737 18.5377 50.5305C18.1986 50.6483 17.8592 50.7652 17.5199 50.882C17.2892 50.962 17.0586 51.042 16.8281 51.1221C16.2642 51.3178 15.7001 51.5126 15.1358 51.707C15.4732 52.0568 15.787 52.3705 16.2067 52.6171C16.3406 52.6966 16.3406 52.6966 16.4773 52.7778C16.5741 52.834 16.6709 52.8903 16.7706 52.9482C16.9254 53.0396 16.9254 53.0396 17.0833 53.1328C17.3141 53.2688 17.5451 53.4043 17.7764 53.5395C18.1234 53.7423 18.4699 53.9459 18.8162 54.1499C20.0314 54.8656 20.0314 54.8656 21.2495 55.5761C21.54 55.7447 21.8285 55.9162 22.1163 56.0893C22.2621 56.1757 22.4079 56.262 22.5538 56.3483C22.6816 56.425 22.8095 56.5017 22.9412 56.5807C24.1672 57.1873 25.3198 57.2052 26.6596 57.1917C26.8588 57.191 27.0579 57.1905 27.2571 57.1901C27.7775 57.1887 28.2979 57.1852 28.8182 57.1812C29.3508 57.1774 29.8833 57.1758 30.4159 57.1739C31.458 57.1701 32.5 57.1639 33.5421 57.1562C33.506 56.9815 33.4692 56.807 33.4321 56.6326C33.4117 56.5354 33.3913 56.4382 33.3703 56.338C33.2815 55.9955 33.1364 55.7462 32.929 55.4609C32.8652 55.371 32.8013 55.2811 32.7356 55.1884C32.5874 54.9853 32.5874 54.9853 32.4522 54.8554C32.1434 54.8405 31.8374 54.8329 31.5284 54.8299C31.3334 54.8265 31.1385 54.823 30.9435 54.8195C30.6375 54.8145 30.3316 54.8101 30.0255 54.8068C28.3276 54.7872 26.5351 54.7619 25.0125 53.917C24.9324 53.8745 24.8522 53.832 24.7696 53.7883C23.554 53.1275 22.5669 52.258 21.796 51.1015C21.7648 50.7752 21.7852 50.4615 21.796 50.1328C21.8974 50.1224 21.9989 50.112 22.1034 50.1013C22.4794 50.0627 22.8554 50.0236 23.2313 49.9842C23.3941 49.9673 23.5569 49.9505 23.7197 49.9338C23.9536 49.9099 24.1874 49.8854 24.4213 49.8608C24.6324 49.8389 24.6324 49.8389 24.8479 49.8166C25.1803 49.7888 25.1803 49.7888 25.4288 49.6484C25.3489 48.8492 25.2689 48.05 25.1866 47.2265C25.0058 47.2192 24.8251 47.2118 24.6388 47.2043C24.4026 47.1941 24.1664 47.1838 23.9303 47.1735C23.811 47.1688 23.6917 47.164 23.5689 47.1591C23.4549 47.154 23.341 47.149 23.2236 47.1437C23.1183 47.1393 23.013 47.1349 22.9046 47.1303C22.6436 47.1054 22.6436 47.1054 22.4014 46.9843C22.4014 46.6646 22.4014 46.345 22.4014 46.0156C22.6859 45.8733 22.8799 45.8702 23.1971 45.8562C23.3056 45.8511 23.414 45.846 23.5258 45.8408C23.6393 45.836 23.7528 45.8313 23.8697 45.8264C23.9841 45.8211 24.0985 45.8159 24.2164 45.8105C24.4994 45.7977 24.7825 45.7853 25.0655 45.7734C25.0484 45.5211 25.0306 45.2688 25.0125 45.0166C25.0027 44.8761 24.9929 44.7356 24.9827 44.5908C24.9522 44.18 24.9522 44.18 24.8233 43.7148C24.0241 43.6748 23.2249 43.6349 22.4014 43.5937C22.4014 42.5039 22.4014 42.5039 22.5225 42.3828C22.6848 42.3639 22.848 42.3524 23.0112 42.3445C23.1091 42.3394 23.2071 42.3343 23.308 42.3291C23.4109 42.3243 23.5139 42.3196 23.62 42.3147C23.7234 42.3094 23.8268 42.3042 23.9333 42.2988C24.1896 42.2859 24.4459 42.2737 24.7022 42.2617C24.6623 41.5823 24.6223 40.903 24.5811 40.2031C23.8618 40.1631 23.1425 40.1232 22.4014 40.082C22.4014 38.9921 22.4014 38.9921 22.5225 38.8711C22.8486 38.8424 23.1722 38.82 23.4989 38.8029C23.5907 38.7977 23.6826 38.7925 23.7772 38.7871C24.0048 38.7742 24.2324 38.762 24.46 38.75C24.4494 38.4596 24.4365 38.1697 24.4222 37.8796C24.4195 37.798 24.4167 37.7165 24.4139 37.6324C24.3854 37.1018 24.2948 36.7544 23.9757 36.3281C23.6693 36.0957 23.5308 36.0823 23.145 36.1176C22.738 36.2133 22.5493 36.3331 22.2274 36.593C20.663 37.7415 18.7483 38.1852 16.8311 38.0234C15.9567 37.8271 15.2313 37.3743 14.6514 36.6914C13.9883 35.606 13.7738 34.563 13.9249 33.3007C14.1512 32.5023 14.5176 31.7839 15.0147 31.1211C14.8605 30.8742 14.6986 30.632 14.5304 30.3945C11.9155 30.3945 8.65523 31.7499 6.78035 33.5429ZM5.08504 35.6015C5.04945 35.7099 5.01386 35.8182 4.97719 35.9298C4.57796 37.0059 4.14907 37.579 3.22133 38.2552C2.77542 38.6116 2.69015 38.8572 2.57991 39.4084C2.60478 40.1614 3.14056 40.7232 3.57627 41.2994C3.76701 41.5538 3.95265 41.8114 4.13757 42.0701C4.5311 42.6206 4.92827 43.1683 5.32723 43.7148C5.38426 43.793 5.44129 43.8712 5.50006 43.9518C5.65118 44.1584 5.80307 44.3643 5.9554 44.57C6.03954 44.6838 6.12367 44.7976 6.21036 44.9149C6.39691 45.1785 6.39691 45.1785 6.65926 45.289C6.81947 44.676 6.97677 44.0623 7.13154 43.4479C7.18446 43.2395 7.23813 43.0313 7.2926 42.8233C7.70893 41.2307 7.97921 39.9676 7.16255 38.4524C6.31565 36.8289 6.31565 36.8289 5.08504 35.6015ZM15.4715 42.2058C15.3455 42.2495 15.2195 42.2931 15.0896 42.3381C14.9544 42.3864 14.8192 42.4347 14.6798 42.4845C14.5407 42.533 14.4017 42.5816 14.2584 42.6316C13.8138 42.7871 13.3698 42.9444 12.9259 43.1018C12.6247 43.2074 12.3236 43.313 12.0224 43.4185C11.2837 43.6773 10.5455 43.9378 9.8077 44.1992C10.0075 44.5588 10.2073 44.9185 10.4132 45.289C11.1729 45.2151 11.8451 44.9871 12.5621 44.7323C12.6845 44.6894 12.807 44.6466 12.9331 44.6025C13.322 44.4662 13.7105 44.3289 14.099 44.1916C14.3634 44.0987 14.6279 44.006 14.8925 43.9132C15.539 43.6864 16.1851 43.4587 16.8311 43.2304C16.7512 42.8708 16.6713 42.5111 16.5889 42.1406C16.0706 42.011 15.954 42.036 15.4715 42.2058ZM8.23348 44.9257C7.74867 46.1265 7.74867 46.1265 7.84926 47.3715C8.16671 47.9064 8.58209 48.3605 9.00137 48.8172C9.29752 49.15 9.54768 49.509 9.80013 49.8754C9.898 50.0135 9.99608 50.1515 10.0943 50.2893C10.145 50.3607 10.1957 50.4321 10.248 50.5057C12.1139 53.1323 13.7922 55.0092 16.572 56.6838C16.9837 56.9331 17.3933 57.1856 17.8027 57.4386C20.718 59.2367 23.1397 60.56 26.644 60.5714C26.7251 60.5718 26.8063 60.5721 26.8899 60.5725C27.3186 60.5743 27.7474 60.5754 28.1761 60.5759C28.6174 60.5766 29.0586 60.5795 29.4998 60.5829C29.8408 60.5852 30.1819 60.5858 30.523 60.586C30.7643 60.5866 31.0056 60.5888 31.247 60.5911C31.3945 60.5907 31.542 60.5904 31.694 60.59C31.8878 60.5907 31.8878 60.5907 32.0855 60.5913C32.6075 60.528 33.0133 60.3377 33.3983 59.9792C33.544 59.6954 33.577 59.5105 33.6116 59.1973C33.6371 58.9662 33.6371 58.9662 33.6632 58.7304C33.5567 58.73 33.4503 58.7295 33.3406 58.7291C32.329 58.7245 31.3174 58.7176 30.3058 58.7082C29.786 58.7034 29.2661 58.6995 28.7463 58.6976C28.2429 58.6958 27.7397 58.6915 27.2364 58.6858C27.046 58.6841 26.8556 58.6831 26.6653 58.683C24.0808 58.6802 22.1439 57.8778 19.9465 56.5332C19.4775 56.2476 19.0039 55.9702 18.5293 55.6941C18.4532 55.6498 18.3771 55.6054 18.2987 55.5598C17.989 55.3794 17.6793 55.1991 17.3691 55.0195C14.8337 53.5516 13.2698 52.1208 11.649 49.6853C11.224 49.0484 10.7953 48.414 10.3657 47.7801C10.2656 47.6322 10.1656 47.4843 10.0657 47.3364C9.23973 46.1098 9.23973 46.1098 8.35457 44.9257C8.31461 44.9257 8.27465 44.9257 8.23348 44.9257ZM17.9371 47.7416C17.8409 47.7747 17.7447 47.8079 17.6456 47.8421C17.4897 47.8966 17.4897 47.8966 17.3306 47.9521C17.224 47.9892 17.1175 48.0262 17.0076 48.0644C16.782 48.143 16.5564 48.2218 16.3309 48.3008C15.9852 48.4217 15.639 48.5415 15.2929 48.6612C15.074 48.7376 14.8551 48.8141 14.6363 48.8906C14.5324 48.9264 14.4284 48.9623 14.3213 48.9992C14.2252 49.0331 14.129 49.067 14.0299 49.102C13.9451 49.1316 13.8603 49.1612 13.773 49.1916C13.5366 49.281 13.5366 49.281 13.3194 49.5273C13.5592 49.847 13.7989 50.1667 14.046 50.4961C14.9845 50.2226 15.911 49.9189 16.8353 49.6013C17.076 49.5188 17.3171 49.4373 17.5582 49.3558C17.7119 49.3032 17.8657 49.2504 18.0194 49.1976C18.1575 49.1505 18.2957 49.1033 18.438 49.0547C18.7796 48.9425 18.7796 48.9425 19.0108 48.6796C18.8909 48.32 18.7711 47.9604 18.6475 47.5898C18.3748 47.5898 18.1947 47.6523 17.9371 47.7416ZM25.0125 51.2226C24.9124 51.2342 24.8123 51.2457 24.7091 51.2576C24.4646 51.2859 24.2201 51.3147 23.9757 51.3437C24.9898 52.4027 26.4827 53.2357 27.9814 53.2904C28.2735 53.2931 28.5652 53.2918 28.8573 53.2888C28.9585 53.2882 29.0597 53.2877 29.164 53.2871C29.4124 53.2857 29.6608 53.2835 29.9093 53.2812C29.5564 52.9999 29.2007 52.7994 28.7967 52.6001C28.1612 52.2649 27.7368 51.8624 27.2774 51.3144C26.6819 50.8524 25.7269 51.1374 25.0125 51.2226Z" fill="white"/>
<path d="M26.8876 28.7605C26.9995 28.76 27.1115 28.7594 27.2268 28.7588C27.6026 28.7574 27.9784 28.7595 28.3543 28.7616C28.6234 28.7613 28.8925 28.7609 29.1616 28.7602C29.8932 28.759 30.6247 28.7609 31.3562 28.7633C32.1208 28.7655 32.8854 28.765 33.65 28.7649C34.934 28.7652 36.218 28.7673 37.502 28.7706C38.8236 28.774 40.1451 28.7757 41.4667 28.7755C41.5481 28.7755 41.6296 28.7755 41.7134 28.7755C41.8353 28.7755 41.8353 28.7755 41.9597 28.7755C43.3875 28.7753 44.8152 28.7766 46.2429 28.7786C46.8513 28.7794 47.4597 28.7799 48.0682 28.78C48.7841 28.7802 49.5 28.7817 50.2159 28.7842C50.4792 28.7849 50.7425 28.7852 51.0057 28.785C51.364 28.7849 51.7223 28.7863 52.0807 28.788C52.2383 28.7875 52.2383 28.7875 52.3991 28.7869C53.1186 28.7928 53.1186 28.7928 53.5233 29.0626C53.6444 29.4032 53.6444 29.4032 53.6444 29.7892C53.3326 30.1922 53.1496 30.3738 52.643 30.4691C52.4161 30.4683 52.4161 30.4683 52.1846 30.4674C52.1 30.468 52.0155 30.4685 51.9283 30.469C51.6456 30.47 51.3632 30.4667 51.0805 30.4634C50.8776 30.4632 50.6747 30.4633 50.4718 30.4636C49.9214 30.4638 49.3711 30.4603 48.8207 30.456C48.2453 30.4522 47.67 30.4519 47.0946 30.4512C46.0053 30.4493 44.916 30.4443 43.8267 30.4382C42.5865 30.4315 41.3463 30.4281 40.1061 30.4251C37.5551 30.4188 35.004 30.408 32.453 30.3946C32.453 31.5135 32.453 32.6324 32.453 33.7853C32.8432 33.7836 32.8432 33.7836 33.2413 33.782C35.6879 33.7721 38.1345 33.7649 40.5812 33.7602C41.8391 33.7577 43.0971 33.7543 44.355 33.7487C45.4512 33.7439 46.5473 33.7408 47.6435 33.7397C48.2242 33.7391 48.8048 33.7376 49.3855 33.734C49.9316 33.7308 50.4777 33.7297 51.0239 33.7305C51.2247 33.7303 51.4255 33.7294 51.6263 33.7275C51.8998 33.7251 52.1732 33.7257 52.4467 33.727C52.6766 33.7263 52.6766 33.7263 52.9112 33.7257C53.2811 33.7853 53.2811 33.7853 53.5164 34.0074C53.6971 34.3775 53.6334 34.6069 53.5233 34.9962C53.2811 35.2384 53.2811 35.2384 52.9261 35.2682C52.7727 35.268 52.6193 35.2677 52.4613 35.2675C52.376 35.2677 52.2908 35.2679 52.2029 35.2681C51.9158 35.2685 51.6288 35.2672 51.3417 35.2659C51.1365 35.2658 50.9312 35.2658 50.726 35.266C50.1676 35.2661 49.6092 35.2646 49.0508 35.2629C48.4677 35.2614 47.8846 35.2613 47.3015 35.261C46.1967 35.2602 45.092 35.2583 43.9872 35.2558C42.7297 35.2531 41.4723 35.2518 40.2148 35.2506C37.6275 35.248 35.0403 35.2437 32.453 35.2384C32.453 36.3973 32.453 37.5561 32.453 38.7501C32.8432 38.7485 32.8432 38.7485 33.2413 38.7468C35.6879 38.737 38.1345 38.7297 40.5812 38.725C41.8391 38.7225 43.0971 38.7191 44.355 38.7136C45.4512 38.7087 46.5473 38.7056 47.6435 38.7045C48.2242 38.7039 48.8048 38.7024 49.3855 38.6989C49.9316 38.6956 50.4777 38.6946 51.0239 38.6953C51.2247 38.6952 51.4255 38.6942 51.6263 38.6924C51.8998 38.69 52.1732 38.6905 52.4467 38.6919C52.6766 38.6912 52.6766 38.6912 52.9112 38.6905C53.2811 38.7501 53.2811 38.7501 53.5159 38.9723C53.6988 39.3453 53.6423 39.5701 53.5233 39.961C53.0774 40.2583 52.8622 40.2331 52.3302 40.2324C52.2454 40.2326 52.1605 40.2328 52.0731 40.233C51.788 40.2334 51.503 40.232 51.218 40.2307C51.0139 40.2307 50.8098 40.2307 50.6058 40.2308C50.0511 40.2309 49.4965 40.2295 48.9419 40.2278C48.3625 40.2263 47.7831 40.2261 47.2037 40.2258C46.1062 40.2251 45.0088 40.2231 43.9113 40.2207C42.6621 40.218 41.4128 40.2166 40.1635 40.2154C37.5933 40.2129 35.0232 40.2086 32.453 40.2032C32.453 41.3221 32.453 42.441 32.453 43.5939C32.8379 43.5918 32.8379 43.5918 33.2305 43.5898C35.6449 43.5774 38.0594 43.5684 40.4739 43.5625C41.7153 43.5594 42.9566 43.5551 44.198 43.5482C45.2799 43.5421 46.3618 43.5382 47.4437 43.5369C48.0167 43.5361 48.5896 43.5342 49.1625 43.5298C49.7017 43.5257 50.2409 43.5245 50.7801 43.5254C50.9781 43.5252 51.176 43.524 51.3739 43.5217C51.6443 43.5187 51.9143 43.5194 52.1846 43.521C52.3359 43.5205 52.4871 43.5199 52.643 43.5193C53.1482 43.6144 53.3312 43.7998 53.6444 44.1993C53.6444 44.5468 53.5832 44.7189 53.386 45.0017C53.042 45.255 52.7534 45.2127 52.3302 45.2118C52.2454 45.2121 52.1605 45.2124 52.0731 45.2127C51.788 45.2133 51.503 45.2113 51.218 45.2093C51.0139 45.2092 50.8098 45.2093 50.6058 45.2095C50.0511 45.2096 49.4965 45.2074 48.9419 45.2049C48.3625 45.2026 47.7831 45.2024 47.2037 45.202C46.1062 45.2009 45.0088 45.1979 43.9113 45.1942C42.6621 45.1902 41.4128 45.1882 40.1635 45.1864C37.5933 45.1826 35.0232 45.1762 32.453 45.1681C32.4556 45.2615 32.4581 45.355 32.4607 45.4513C32.4708 45.8741 32.4771 46.2968 32.4833 46.7196C32.4894 46.9403 32.4894 46.9403 32.4956 47.1654C32.4972 47.3063 32.4987 47.4472 32.5003 47.5923C32.5029 47.7223 32.5054 47.8523 32.508 47.9862C32.453 48.3165 32.453 48.3165 32.2273 48.5406C31.9072 48.7129 31.7218 48.735 31.3632 48.6798C31.1125 48.4883 31.0115 48.3813 30.9552 48.0676C30.9557 47.9234 30.9557 47.9234 30.9562 47.7763C30.9557 47.6658 30.9552 47.5552 30.9547 47.4414C30.956 47.3204 30.9573 47.1994 30.9587 47.0747C30.9586 46.9471 30.9586 46.8195 30.9585 46.688C30.9587 46.2654 30.9616 45.8428 30.9644 45.4202C30.9651 45.1275 30.9656 44.8348 30.966 44.5421C30.9674 43.7711 30.9709 43.0001 30.975 42.229C30.9787 41.4425 30.9803 40.656 30.9822 39.8695C30.9861 38.3258 30.9922 36.7821 30.9999 35.2384C30.8404 35.2403 30.6809 35.2422 30.5166 35.2441C29.9255 35.2507 29.3345 35.2549 28.7434 35.2583C28.4875 35.2602 28.2315 35.2626 27.9756 35.2658C27.608 35.2702 27.2404 35.2723 26.8728 35.2739C26.7008 35.2767 26.7008 35.2767 26.5253 35.2795C26.3653 35.2796 26.3653 35.2796 26.2021 35.2796C26.1083 35.2804 26.0144 35.2812 25.9177 35.2821C25.604 35.2263 25.498 35.1277 25.3085 34.8751C25.2306 34.2523 25.2306 34.2523 25.4598 33.9468C25.727 33.7432 25.8686 33.7412 26.2021 33.744C26.3088 33.744 26.4154 33.7441 26.5253 33.7441C26.64 33.746 26.7546 33.7478 26.8728 33.7498C26.9905 33.7503 27.1083 33.7508 27.2296 33.7513C27.6059 33.7534 27.9822 33.7579 28.3585 33.7626C28.6136 33.7644 28.8686 33.766 29.1237 33.7675C29.7491 33.7712 30.3744 33.7783 30.9999 33.7853C30.9999 32.6664 30.9999 31.5474 30.9999 30.3946C30.6384 30.3974 30.2769 30.4003 29.9044 30.4031C29.5541 30.405 29.2038 30.4065 28.8536 30.4079C28.6102 30.4092 28.3668 30.4108 28.1234 30.4129C27.7736 30.4158 27.4237 30.4172 27.0738 30.4183C26.9651 30.4195 26.8563 30.4208 26.7443 30.4221C26.6425 30.4221 26.5407 30.4221 26.4358 30.4221C26.3019 30.4229 26.3019 30.4229 26.1653 30.4238C25.8673 30.3892 25.6792 30.319 25.4296 30.1524C25.3085 29.7438 25.3085 29.7438 25.3085 29.3048C25.7115 28.6882 26.2189 28.7526 26.8876 28.7605Z" fill="white"/>
<path d="M26.4191 20.2834C26.5394 20.2834 26.6597 20.2833 26.7836 20.2832C26.9085 20.2856 27.0335 20.288 27.1622 20.2905C27.2858 20.2897 27.4093 20.2888 27.5366 20.2879C28.4332 20.2955 29.0486 20.3987 29.7582 20.9793C30.2269 21.5521 30.4319 22.0333 30.3864 22.773C30.3119 23.3171 30.1361 23.6654 29.7885 24.0974C29.7085 24.2173 29.6286 24.3372 29.5463 24.4607C29.6228 24.5661 29.6228 24.5661 29.7009 24.6736C30.4078 25.6814 30.4078 25.6814 30.3939 26.2771C30.2265 26.6213 30.0973 26.7309 29.7506 26.8901C29.3646 26.8812 29.1843 26.768 28.9001 26.5122C28.5409 26.0931 28.2733 25.61 27.999 25.1324C27.7453 24.7806 27.7453 24.7806 27.2753 24.7199C27.1456 24.7143 27.0159 24.7087 26.8822 24.7029C26.8864 24.8008 26.8906 24.8986 26.895 24.9995C26.8983 25.1289 26.9015 25.2583 26.9049 25.3916C26.9091 25.5195 26.9133 25.6473 26.9177 25.779C26.8777 26.2042 26.7753 26.4233 26.5189 26.7615C26.1672 26.8967 25.9957 26.9123 25.641 26.7842C25.4291 26.6404 25.4291 26.6404 25.308 26.3982C25.2947 26.2215 25.2887 26.0442 25.2866 25.8671C25.285 25.7571 25.2834 25.6472 25.2818 25.5339C25.2809 25.4148 25.2801 25.2958 25.2791 25.1731C25.2782 25.0509 25.2772 24.9288 25.2762 24.8029C25.2745 24.5442 25.2732 24.2854 25.2722 24.0266C25.2702 23.6306 25.2648 23.2347 25.2595 22.8387C25.2583 22.5875 25.2572 22.3364 25.2564 22.0852C25.2543 21.9666 25.2522 21.848 25.25 21.7258C25.2526 20.913 25.2526 20.913 25.5142 20.5109C25.8434 20.3128 26.0363 20.2826 26.4191 20.2834ZM26.8822 21.9177C26.8822 22.3573 26.8822 22.7969 26.8822 23.2498C27.092 23.2548 27.3018 23.2598 27.5179 23.2649C27.636 23.2677 27.754 23.2705 27.8755 23.2734C28.222 23.2492 28.4143 23.2043 28.6986 23.0076C28.8297 22.6552 28.8297 22.6552 28.8197 22.281C28.6969 22.0608 28.6969 22.0608 28.4564 21.9177C28.0688 21.8737 28.0688 21.8737 27.6466 21.895C27.5038 21.8983 27.3609 21.9016 27.2138 21.905C27.0497 21.9113 27.0497 21.9113 26.8822 21.9177Z" fill="white"/>
<path d="M38.8649 20.3379C39.341 20.5016 39.5466 20.7709 39.8252 21.169C39.8763 21.2386 39.9274 21.3083 39.98 21.38C40.4804 22.0687 40.9532 22.7773 41.4145 23.4925C41.4157 23.41 41.4168 23.3275 41.418 23.2426C41.4245 22.8692 41.4346 22.4959 41.4448 22.1226C41.4474 21.9279 41.4474 21.9279 41.45 21.7293C41.4539 21.6048 41.4578 21.4803 41.4618 21.3521C41.4644 21.2373 41.4669 21.1225 41.4695 21.0042C41.5356 20.7073 41.5356 20.7073 41.7588 20.484C42.1279 20.2862 42.3517 20.3535 42.7466 20.4651C43.0451 20.7637 43.0206 20.8515 43.0259 21.2626C43.0278 21.3778 43.0297 21.493 43.0317 21.6116C43.0324 21.7364 43.033 21.8612 43.0337 21.9897C43.0353 22.1814 43.0353 22.1814 43.037 22.377C43.0388 22.6477 43.0398 22.9183 43.0403 23.189C43.0417 23.6039 43.0477 24.0187 43.0538 24.4336C43.0549 24.6962 43.0558 24.9588 43.0564 25.2214C43.0588 25.3459 43.0611 25.4704 43.0636 25.5987C43.0615 25.9173 43.0548 26.2082 42.9888 26.5198C42.7037 26.7846 42.7037 26.7846 42.3833 26.8831C41.9653 26.8448 41.7444 26.736 41.4594 26.4269C41.2471 26.1513 41.0495 25.8694 40.8545 25.5813C40.7867 25.4846 40.719 25.3878 40.6492 25.2881C40.2915 24.7752 39.943 24.2562 39.5981 23.7347C39.5974 23.8584 39.5974 23.8584 39.5966 23.9846C39.5926 24.358 39.5841 24.7312 39.5754 25.1045C39.5747 25.2343 39.574 25.3641 39.5733 25.4979C39.5698 25.6223 39.5663 25.7468 39.5626 25.8751C39.5607 25.9899 39.5588 26.1047 39.5569 26.2229C39.477 26.5198 39.477 26.5198 39.1935 26.7474C38.8716 26.8831 38.8716 26.8831 38.478 26.7923C38.145 26.6409 38.145 26.6409 38.0239 26.5198C38.0101 26.3397 38.0046 26.1589 38.0025 25.9783C38.0009 25.8631 37.9994 25.7479 37.9978 25.6292C37.9969 25.5038 37.996 25.3785 37.9951 25.2493C37.9941 25.1213 37.9931 24.9933 37.9921 24.8615C37.9904 24.5901 37.9891 24.3187 37.9882 24.0473C37.9861 23.6313 37.9808 23.2154 37.9754 22.7995C37.9742 22.5363 37.9732 22.2732 37.9723 22.01C37.9702 21.8851 37.9681 21.7603 37.9659 21.6316C37.9663 21.5156 37.9666 21.3997 37.967 21.2802C37.9663 21.1781 37.9656 21.076 37.9648 20.9709C38.0239 20.7073 38.0239 20.7073 38.2474 20.4903C38.5083 20.344 38.5083 20.344 38.8649 20.3379Z" fill="white"/>
<path d="M32.5973 20.3438C32.9378 20.4648 32.9378 20.4648 33.18 20.8281C33.209 21.2044 33.209 21.2044 33.2089 21.6635C33.2108 21.8306 33.2127 21.9978 33.2148 22.1649C33.2168 22.4274 33.2179 22.6899 33.217 22.9525C33.2167 23.2066 33.2201 23.4604 33.224 23.7145C33.2244 23.8663 33.2247 24.0181 33.2251 24.1745C33.3213 24.6901 33.4939 24.8727 33.9066 25.1875C34.3517 25.209 34.3517 25.209 34.7543 25.0664C35.0513 24.6208 35.0255 24.3988 35.0253 23.8678C35.0272 23.7006 35.0291 23.5335 35.0312 23.3664C35.0332 23.1038 35.0343 22.8413 35.0334 22.5788C35.0331 22.3247 35.0365 22.0708 35.0404 21.8167C35.0408 21.665 35.0412 21.5132 35.0415 21.3568C35.1374 20.8425 35.3135 20.6598 35.723 20.3438C36.109 20.3438 36.109 20.3438 36.4496 20.4648C36.7406 20.9014 36.7308 21.2252 36.7324 21.7302C36.7332 21.8188 36.734 21.9073 36.7349 21.9986C36.7361 22.1862 36.7367 22.3738 36.7366 22.5614C36.7372 22.8458 36.7415 23.13 36.7461 23.4144C36.7548 24.5614 36.7139 25.384 35.8819 26.2546C35.1583 26.7325 34.4477 26.9884 33.576 26.8464C32.8796 26.6318 32.2844 26.2258 31.9085 25.5962C31.5447 24.7776 31.5709 23.9789 31.5634 23.096C31.5614 22.9214 31.5581 22.7467 31.5535 22.5721C31.5468 22.3189 31.5442 22.0658 31.5424 21.8125C31.54 21.6615 31.5376 21.5105 31.5352 21.3549C31.6434 20.7332 31.9461 20.3438 32.5973 20.3438Z" fill="white"/>
<path d="M49.8678 25.2558C49.9603 25.2552 50.0527 25.2546 50.1479 25.2539C50.3432 25.2531 50.5385 25.2533 50.7339 25.2543C51.0324 25.2554 51.3306 25.2519 51.6291 25.248C51.8191 25.2478 52.009 25.2479 52.1989 25.2483C52.288 25.2469 52.377 25.2455 52.4688 25.2441C52.8879 25.2498 53.1211 25.2792 53.4624 25.5311C53.6449 25.7927 53.6449 25.7927 53.6525 26.1636C53.5238 26.5193 53.5238 26.5193 53.267 26.7204C52.8385 26.9197 52.527 26.9277 52.0551 26.9265C51.9738 26.9266 51.8925 26.9267 51.8087 26.9267C51.6376 26.9264 51.4665 26.9253 51.2955 26.9233C51.0342 26.9204 50.7731 26.9208 50.5119 26.9216C49.0848 26.9158 49.0848 26.9158 48.6801 26.6404C48.5106 26.3015 48.5284 26.0464 48.559 25.6716C48.8615 25.1817 49.3508 25.2538 49.8678 25.2558Z" fill="white"/>
<path d="M45.8416 25.2556C45.9345 25.2548 46.0275 25.2539 46.1232 25.253C46.79 25.2606 46.79 25.2606 47.105 25.4671C47.3187 25.8271 47.2843 26.1153 47.2266 26.5196C46.7541 26.9037 46.3624 26.929 45.7659 26.9207C45.6196 26.9202 45.4733 26.9197 45.3226 26.9193C44.9528 26.8853 44.739 26.8583 44.4414 26.6407C44.3203 26.232 44.3203 26.232 44.3203 25.793C44.7184 25.1953 45.1864 25.2385 45.8416 25.2556Z" fill="white"/>
</g>
<defs>
<clipPath id="clip0_1300_389">
<rect width="62" height="62" fill="white"/>
</clipPath>
</defs>
</svg>
