<svg width="85" height="85" viewBox="0 0 85 85" fill="none" xmlns="http://www.w3.org/2000/svg">
<mask id="path-1-inside-1_1300_401" fill="white">
<path d="M53.6226 11.9531C54.0179 12.3484 54.0119 12.4689 54.0272 13.0115C54.0107 13.5809 53.9825 13.7415 53.633 14.2151C52.9126 14.5385 52.3915 14.4107 51.6304 14.2773C51.3302 14.2313 51.0292 14.1899 50.7277 14.1528C50.5909 14.1331 50.4542 14.1134 50.3133 14.0931C48.5197 14.1571 46.8533 15.1996 45.2803 15.979C45.0277 16.103 44.775 16.2268 44.5222 16.3506C44.0269 16.5932 43.5329 16.8381 43.0394 17.0843C42.5854 17.3101 42.1288 17.5265 41.6665 17.7348C41.5621 17.7832 41.4576 17.8316 41.35 17.8815C41.0715 18.0103 40.7915 18.1357 40.5114 18.2609C39.1166 19.1855 38.6909 20.6434 38.1896 22.1721C38.1167 22.3896 38.0437 22.6071 37.9706 22.8245C37.8186 23.278 37.6684 23.7321 37.5195 24.1866C37.3297 24.7653 37.1356 25.3423 36.94 25.919C36.7887 26.3671 36.6397 26.8159 36.4914 27.265C36.3868 27.5805 36.2802 27.8953 36.1736 28.2101C35.6735 29.7517 35.4393 31.0436 35.9977 32.6006C36.0641 32.7897 36.1305 32.9787 36.1989 33.1734C36.2716 33.3715 36.3443 33.5697 36.4192 33.7738C36.4946 33.984 36.5697 34.1943 36.6447 34.4046C36.8002 34.839 36.9574 35.2726 37.1159 35.7059C37.3479 36.341 37.5731 36.9784 37.7979 37.6161C37.9399 38.0129 38.0821 38.4096 38.2246 38.8061C38.3211 39.0798 38.3211 39.0798 38.4194 39.3589C39.1336 41.3097 39.9493 42.4316 41.711 43.5479C41.8588 43.6465 42.0067 43.745 42.1591 43.8466C43.9187 44.992 45.3852 45.4352 47.48 45.4883C47.681 45.4968 47.8819 45.5054 48.0889 45.5142C50.7345 45.5811 53.2768 44.8587 55.8221 44.2089C56.3042 44.0863 56.7869 43.9668 57.2697 43.8472C57.5798 43.7686 57.8898 43.6898 58.1997 43.6109C58.3424 43.5759 58.485 43.5409 58.632 43.5049C60.5216 43.0138 61.4331 41.9097 62.402 40.2879C62.6388 39.8817 62.8726 39.4737 63.1062 39.0655C63.2929 38.7423 63.4799 38.4193 63.667 38.0963C63.7918 37.8808 63.9166 37.6652 64.0411 37.4495C64.6742 36.3551 65.3286 35.2739 65.9921 34.1978C66.067 34.0748 66.1419 33.9518 66.219 33.825C66.316 33.6675 66.316 33.6675 66.4149 33.5069C67.1435 32.0965 66.6773 30.2529 66.4343 28.7719C66.4027 28.5751 66.3711 28.3784 66.3386 28.1756C66.2717 27.7618 66.2041 27.3482 66.1359 26.9346C66.0325 26.3048 65.9327 25.6744 65.8332 25.044C65.7675 24.6403 65.7015 24.2366 65.6354 23.8329C65.5915 23.5527 65.5915 23.5527 65.5467 23.2669C65.2711 21.63 64.8646 20.353 63.5835 19.2578C63.4892 19.1743 63.3949 19.0909 63.2977 19.0049C61.6831 17.5951 60.1398 16.4333 58.0531 15.8545C57.4148 15.6678 56.9728 15.5337 56.6109 14.9414C56.4911 14.2096 56.5245 13.9022 56.9533 13.2916C57.5675 12.8603 57.8624 12.9036 58.6031 12.9492C60.7615 13.3714 62.2922 14.3137 63.9486 15.7124C64.2591 15.9736 64.5744 16.2292 64.8941 16.479C67.3396 18.3959 68.0928 20.3415 68.564 23.3252C68.6063 23.585 68.6488 23.8447 68.6915 24.1045C68.7765 24.6241 68.8604 25.1439 68.9435 25.6639C69.0483 26.3165 69.1597 26.9678 69.2734 27.6189C70.2929 33.5217 68.1583 36.966 64.9116 41.8359C65.2237 41.764 65.2237 41.764 65.542 41.6906C65.8161 41.6284 66.0902 41.5661 66.3643 41.5039C66.5012 41.4722 66.6382 41.4405 66.7793 41.4079C66.912 41.3779 67.0447 41.348 67.1814 41.3171C67.3031 41.2893 67.4248 41.2615 67.5502 41.2328C67.8999 41.1719 67.8999 41.1719 68.564 41.1719C68.5787 41.0636 68.5934 40.9553 68.6085 40.8437C68.7715 40.1704 69.0536 39.5781 69.3461 38.952C69.4379 38.7528 69.4379 38.7528 69.5316 38.5496C69.727 38.1263 69.9237 37.7036 70.1204 37.2809C70.2515 36.9972 70.3825 36.7135 70.5134 36.4297C71.1724 35.0041 71.1724 35.0041 71.4026 34.5184C71.5366 34.2325 71.6641 33.9436 71.7907 33.6544C72.4521 32.5047 73.7798 32.052 74.927 31.4959C75.2551 31.3361 75.5811 31.1724 75.9073 31.0086C76.1184 30.9054 76.3298 30.8025 76.5412 30.6999C76.7306 30.6068 76.9201 30.5136 77.1153 30.4176C77.8168 30.1721 78.2842 30.16 79.023 30.2148C79.438 30.4638 79.438 30.4638 79.687 30.8789C79.7778 31.3404 79.8082 31.7508 79.687 32.207C79.1956 32.7946 78.7557 33.0047 78.0347 33.2401C75.6901 34.1188 74.2238 34.993 73.1477 37.3301C72.723 38.3151 72.338 39.314 71.9727 40.3224C70.971 43.0639 70.971 43.0639 70.2241 43.6621C69.7362 43.8306 69.7362 43.8306 69.13 43.9818C69.019 44.01 68.9081 44.0382 68.7937 44.0673C68.4247 44.1607 68.055 44.2515 67.6853 44.3424C67.4246 44.4077 67.164 44.4732 66.9034 44.5389C66.3502 44.6779 65.7968 44.8159 65.2431 44.953C64.3837 45.166 63.525 45.382 62.6664 45.5983C60.2844 46.1977 57.9016 46.7913 55.5104 47.3527C55.2003 47.4264 54.8902 47.5002 54.5802 47.5741C54.0425 47.7022 53.504 47.8249 52.9642 47.9442C51.6716 48.2426 50.7763 48.5465 49.9702 49.6386C49.8662 49.7527 49.7622 49.8668 49.6551 49.9843C49.5742 50.0791 49.4933 50.1739 49.4099 50.2716C48.9664 50.7857 48.5163 51.293 48.0611 51.7968C47.6177 52.288 47.1774 52.7812 46.7433 53.2806C46.137 53.9769 45.5139 54.6575 44.8918 55.3396C44.4631 55.8128 44.0424 56.2923 43.6234 56.7741C42.9082 57.5904 42.1763 58.392 41.449 59.1975C40.8788 59.8298 40.3099 60.4628 39.7499 61.1041C39.6125 61.2614 39.6125 61.2614 39.4723 61.4219C39.256 61.6698 39.0398 61.918 38.8238 62.1663C38.7049 62.302 38.5859 62.4377 38.4633 62.5775C38.2999 62.7646 38.2999 62.7646 38.1332 62.9556C37.7524 63.3557 37.6023 63.4155 37.0447 63.4319C36.7402 63.4275 36.7402 63.4275 36.4295 63.423C36.1969 63.4204 35.9642 63.4178 35.7316 63.4152C35.6078 63.4136 35.4839 63.4121 35.3563 63.4104C34.5539 63.4018 33.7516 63.4028 32.9492 63.4019C32.2485 63.4005 31.5482 63.3961 30.8476 63.3844C26.7532 63.3014 26.7532 63.3014 22.991 64.7656C21.6785 65.484 20.4667 65.5541 19.0025 65.5197C18.8906 65.5175 18.7788 65.5153 18.6636 65.513C17.6269 65.4892 16.5919 65.4401 15.5567 65.3801C13.0243 65.1397 13.0243 65.1397 10.6933 65.8527C9.97733 66.5276 9.49122 67.3038 9.02708 68.1646C8.51734 69.0557 7.97527 69.892 7.04482 70.3491C6.36205 70.3987 6.04305 70.2692 5.47805 69.8925C5.20599 69.3484 5.20802 68.8187 5.31203 68.2324C5.57174 67.7304 5.91503 67.3156 6.277 66.8835C6.37414 66.7627 6.47129 66.6419 6.57138 66.5174C6.77137 66.2688 6.97253 66.0211 7.17485 65.7743C7.45557 65.4282 7.7276 65.0772 7.99682 64.7221C8.07797 64.6156 8.15911 64.5092 8.24272 64.3995C8.39508 64.1995 8.54689 63.9991 8.69805 63.7982C9.07297 63.3148 9.37841 62.9676 9.96047 62.7539C9.87829 62.5724 9.79612 62.3909 9.71145 62.2039C9.31192 61.122 9.26808 59.9708 9.68032 58.8836C10.3531 57.543 11.4798 56.0974 12.6167 55.1172C13.2921 55.0189 13.6576 55.0553 14.2665 55.3662C14.6622 55.8459 14.6871 56.1404 14.6706 56.7527C14.561 57.3861 14.2027 57.8192 13.81 58.313C13.735 58.4123 13.6599 58.5116 13.5827 58.6139C13.2774 59.0167 12.9649 59.4133 12.6504 59.809C12.3729 60.21 12.3653 60.4517 12.4507 60.9277C12.7061 61.2645 12.7061 61.2645 13.1148 61.4258C13.635 61.4405 13.635 61.4405 14.1109 61.2597C14.227 61.0412 14.3371 60.8194 14.4429 60.5957C14.6828 60.3175 14.6828 60.3175 14.9617 60.0457C15.0511 59.9574 15.1406 59.869 15.2328 59.7779C16.0195 59.0501 16.8296 58.3514 17.6624 57.6769C20.8454 55.0803 23.6789 52.6846 24.1839 48.4239C24.2912 47.1898 24.3596 45.9482 24.342 44.7091C24.3372 43.7727 24.4292 43.2385 25.0679 42.5C25.8159 41.9352 26.3577 41.6294 27.2961 41.7017C27.4391 41.7112 27.582 41.7207 27.7293 41.7305C28.0277 41.7522 28.326 41.7746 28.6243 41.798C30.2949 41.9061 31.2585 41.4242 32.5697 40.4352C32.7014 40.3379 32.8332 40.2406 32.9689 40.1404C33.446 39.7875 33.9216 39.4339 34.3864 39.0648C34.6968 38.8476 34.6968 38.8476 35.0288 38.8476C34.8645 38.245 34.7001 37.6424 34.5308 37.0215C34.2965 37.1897 34.2965 37.1897 34.0574 37.3613C33.8486 37.5109 33.6398 37.6605 33.4309 37.81C33.3284 37.8837 33.2259 37.9573 33.1203 38.0331C30.5136 39.8989 28.5832 39.8115 25.4865 39.3129C24.7506 39.2077 24.2062 39.1425 23.4836 39.3424C22.6591 40.0201 22.4975 41.0864 22.3098 42.0947C22.2631 42.336 22.2163 42.5774 22.1694 42.8187C22.0987 43.1911 22.0287 43.5635 21.9598 43.9362C21.2875 47.5465 19.9803 50.7515 17.4312 53.457C16.9101 53.7175 16.5117 53.6815 15.937 53.623C15.3987 53.2336 15.1547 52.9841 14.9928 52.3364C15.1984 51.3648 15.8386 50.646 16.4357 49.8708C18.1991 47.5487 18.7312 44.9013 19.2677 42.0875C19.3099 41.8673 19.3099 41.8673 19.353 41.6427C19.405 41.3663 19.4552 41.0896 19.5032 40.8126C19.78 39.3167 20.3319 38.1051 21.4156 37.0215C21.3314 36.9008 21.3314 36.9008 21.2456 36.7776C20.3915 35.4939 20.0708 34.2505 20.2534 32.7051C20.644 31.1138 21.3337 29.8718 22.7333 28.9905C24.206 28.1828 25.6189 27.9868 27.2469 28.4094C28.6325 28.8742 29.8541 29.8941 30.5464 31.1895C31.1401 32.6081 31.1513 34.0644 30.7124 35.5273C30.6073 35.7514 30.4982 35.9737 30.3804 36.1914C30.6955 35.9844 31.0101 35.7767 31.3246 35.5688C31.4999 35.4533 31.6751 35.3377 31.8557 35.2186C32.3233 34.8972 32.7649 34.5598 33.2027 34.1992C33.1806 34.101 33.1586 34.0027 33.1359 33.9015C33.0919 33.7048 33.0919 33.7048 33.047 33.504C33.0181 33.375 32.9892 33.2459 32.9595 33.113C32.9155 32.911 32.9155 32.911 32.8706 32.7051C32.8407 32.5717 32.8107 32.4384 32.7798 32.301C32.2662 29.3918 33.5959 26.4479 34.4989 23.7344C34.6763 23.1999 34.851 22.6647 35.0256 22.1293C35.1402 21.7834 35.255 21.4376 35.3699 21.0917C35.4208 20.9347 35.4717 20.7776 35.5241 20.6158C36.2999 18.3115 37.3767 16.5292 39.5793 15.3963C39.7315 15.3215 39.8836 15.2467 40.0404 15.1697C40.2025 15.0877 40.3645 15.0058 40.5314 14.9213C41.0752 14.648 41.6211 14.3794 42.1675 14.1113C42.3754 14.0085 42.5832 13.9056 42.791 13.8027C43.433 13.485 44.0762 13.17 44.72 12.8558C44.8221 12.8058 44.9242 12.7557 45.0295 12.7041C47.7244 11.387 50.802 10.2608 53.6226 11.9531ZM23.5011 32.1759C23.0922 33.0101 22.9844 33.573 23.2625 34.469C23.6621 35.1884 24.0786 35.666 24.7877 36.0876C25.4144 36.2334 25.9547 36.2243 26.562 36.0254C27.2397 35.5952 27.7553 35.1188 28.0562 34.3652C28.1764 33.5962 28.1308 33.0176 27.776 32.3211C27.1219 31.561 26.6312 31.0993 25.586 31.0183C24.6926 31.0858 24.0748 31.514 23.5011 32.1759ZM35.3771 41.9468C35.2428 42.0404 35.1085 42.1341 34.9701 42.2305C34.6896 42.4271 34.4094 42.6242 34.1297 42.822C32.8044 43.7433 31.4418 44.6843 29.7786 44.6789C29.6498 44.6794 29.5209 44.6798 29.3882 44.6802C28.6644 44.6484 27.9463 44.5694 27.2261 44.4922C27.1998 44.6911 27.1998 44.6911 27.173 44.894C27.0149 46.0902 26.8555 47.2862 26.6944 48.482C26.6021 49.1692 26.5125 49.8568 26.4246 50.5446C26.384 50.8513 26.3433 51.1581 26.3026 51.4648C26.2857 51.6032 26.2687 51.7416 26.2512 51.8842C26.1453 52.664 25.9665 53.2626 25.5659 53.9551C25.8061 54.1117 25.8061 54.1117 26.051 54.2715C26.263 54.4149 26.4748 54.5584 26.6865 54.7021C26.7918 54.7702 26.8971 54.8382 27.0056 54.9083C27.7965 55.4521 28.2853 56.0091 28.5542 56.9433C28.6171 57.5219 28.6031 58.0852 28.575 58.6657C28.5636 58.961 28.5536 59.2563 28.5451 59.5516C28.5392 59.6805 28.5332 59.8094 28.5271 59.9422C28.5228 60.3036 28.5228 60.3036 28.8863 60.5957C29.3138 60.5683 29.3138 60.5683 29.7163 60.4297C29.9159 60.0305 29.9325 59.7216 29.9712 59.2766C29.9856 59.1114 30.0001 58.9462 30.015 58.776C30.0294 58.6026 30.0439 58.4293 30.0587 58.2507C30.0738 58.0812 30.0889 57.9117 30.1045 57.7371C30.3562 56.0588 30.3562 56.0588 29.9135 54.5361C29.2939 54.0099 28.6103 53.5521 27.9446 53.0867C27.5581 52.7929 27.5581 52.7929 27.3921 52.4609C27.3173 51.2824 27.3173 51.2824 27.5581 50.8008C28.0954 50.5321 28.6367 50.5493 29.2183 50.6347C29.6595 50.8304 30.0217 51.0963 30.4011 51.3922C30.502 51.4679 30.6028 51.5436 30.7068 51.6216C31.7014 52.3851 32.6273 53.1634 32.8706 54.4531C32.925 55.8568 32.8267 57.2474 32.7046 58.645C32.6809 58.9284 32.6809 58.9284 32.6566 59.2176C32.618 59.677 32.5787 60.1364 32.5386 60.5957C34.7136 60.9253 34.7136 60.9253 36.7635 60.3564C37.4735 59.7551 38.036 59.0442 38.5823 58.2948C39.0231 57.7035 39.5169 57.1598 40.0093 56.6113C40.1411 56.4641 40.273 56.3168 40.4088 56.1651C40.5235 56.0384 40.6382 55.9118 40.7564 55.7812C41.1997 55.29 41.6401 54.7969 42.0741 54.2975C42.6804 53.6012 43.3035 52.9206 43.9256 52.2385C44.3528 51.7669 44.7724 51.2896 45.1889 50.8085C45.418 50.5481 45.6508 50.2911 45.8853 50.0355C46.0212 49.8874 46.1571 49.7393 46.2971 49.5868C46.4234 49.4504 46.5497 49.3141 46.6798 49.1737C47.0128 48.8161 47.0128 48.8161 47.148 48.3105C46.9534 48.2943 46.7589 48.278 46.5585 48.2612C46.295 48.2363 46.0315 48.2112 45.768 48.186C45.6407 48.1757 45.5135 48.1655 45.3824 48.1549C43.5438 47.9718 42.0854 47.2417 40.58 46.2042C40.428 46.1004 40.2761 45.9967 40.1195 45.8898C38.3066 44.6358 37.0615 43.5953 36.1909 41.5039C35.8781 41.5039 35.6232 41.7732 35.3771 41.9468ZM23.4077 55.9472C23.2554 56.1015 23.103 56.2558 22.946 56.4148C22.7402 56.6221 22.5344 56.8294 22.3286 57.0367C22.2289 57.1378 22.1292 57.2389 22.0264 57.3431C21.5129 57.8594 20.9924 58.3574 20.4402 58.8324C19.6495 59.515 18.9148 60.2498 18.1782 60.99C18.0417 61.1259 17.9052 61.2617 17.7645 61.4018C17.6357 61.5308 17.5068 61.6598 17.3741 61.7928C17.2574 61.9097 17.1406 62.0267 17.0204 62.1471C16.7484 62.3799 16.7484 62.3799 16.7671 62.5879C19.4489 62.78 21.3633 62.6122 23.706 61.2749C24.3505 60.9557 25.038 60.7765 25.732 60.5957C26.0691 58.8204 26.0691 58.8204 25.6113 57.1677C25.2186 56.8669 24.8529 56.6519 24.4038 56.4453C24.2226 56.3543 24.0413 56.2634 23.8546 56.1697C23.7071 56.0963 23.5597 56.0229 23.4077 55.9472Z"/>
</mask>
<path d="M53.6226 11.9531C54.0179 12.3484 54.0119 12.4689 54.0272 13.0115C54.0107 13.5809 53.9825 13.7415 53.633 14.2151C52.9126 14.5385 52.3915 14.4107 51.6304 14.2773C51.3302 14.2313 51.0292 14.1899 50.7277 14.1528C50.5909 14.1331 50.4542 14.1134 50.3133 14.0931C48.5197 14.1571 46.8533 15.1996 45.2803 15.979C45.0277 16.103 44.775 16.2268 44.5222 16.3506C44.0269 16.5932 43.5329 16.8381 43.0394 17.0843C42.5854 17.3101 42.1288 17.5265 41.6665 17.7348C41.5621 17.7832 41.4576 17.8316 41.35 17.8815C41.0715 18.0103 40.7915 18.1357 40.5114 18.2609C39.1166 19.1855 38.6909 20.6434 38.1896 22.1721C38.1167 22.3896 38.0437 22.6071 37.9706 22.8245C37.8186 23.278 37.6684 23.7321 37.5195 24.1866C37.3297 24.7653 37.1356 25.3423 36.94 25.919C36.7887 26.3671 36.6397 26.8159 36.4914 27.265C36.3868 27.5805 36.2802 27.8953 36.1736 28.2101C35.6735 29.7517 35.4393 31.0436 35.9977 32.6006C36.0641 32.7897 36.1305 32.9787 36.1989 33.1734C36.2716 33.3715 36.3443 33.5697 36.4192 33.7738C36.4946 33.984 36.5697 34.1943 36.6447 34.4046C36.8002 34.839 36.9574 35.2726 37.1159 35.7059C37.3479 36.341 37.5731 36.9784 37.7979 37.6161C37.9399 38.0129 38.0821 38.4096 38.2246 38.8061C38.3211 39.0798 38.3211 39.0798 38.4194 39.3589C39.1336 41.3097 39.9493 42.4316 41.711 43.5479C41.8588 43.6465 42.0067 43.745 42.1591 43.8466C43.9187 44.992 45.3852 45.4352 47.48 45.4883C47.681 45.4968 47.8819 45.5054 48.0889 45.5142C50.7345 45.5811 53.2768 44.8587 55.8221 44.2089C56.3042 44.0863 56.7869 43.9668 57.2697 43.8472C57.5798 43.7686 57.8898 43.6898 58.1997 43.6109C58.3424 43.5759 58.485 43.5409 58.632 43.5049C60.5216 43.0138 61.4331 41.9097 62.402 40.2879C62.6388 39.8817 62.8726 39.4737 63.1062 39.0655C63.2929 38.7423 63.4799 38.4193 63.667 38.0963C63.7918 37.8808 63.9166 37.6652 64.0411 37.4495C64.6742 36.3551 65.3286 35.2739 65.9921 34.1978C66.067 34.0748 66.1419 33.9518 66.219 33.825C66.316 33.6675 66.316 33.6675 66.4149 33.5069C67.1435 32.0965 66.6773 30.2529 66.4343 28.7719C66.4027 28.5751 66.3711 28.3784 66.3386 28.1756C66.2717 27.7618 66.2041 27.3482 66.1359 26.9346C66.0325 26.3048 65.9327 25.6744 65.8332 25.044C65.7675 24.6403 65.7015 24.2366 65.6354 23.8329C65.5915 23.5527 65.5915 23.5527 65.5467 23.2669C65.2711 21.63 64.8646 20.353 63.5835 19.2578C63.4892 19.1743 63.3949 19.0909 63.2977 19.0049C61.6831 17.5951 60.1398 16.4333 58.0531 15.8545C57.4148 15.6678 56.9728 15.5337 56.6109 14.9414C56.4911 14.2096 56.5245 13.9022 56.9533 13.2916C57.5675 12.8603 57.8624 12.9036 58.6031 12.9492C60.7615 13.3714 62.2922 14.3137 63.9486 15.7124C64.2591 15.9736 64.5744 16.2292 64.8941 16.479C67.3396 18.3959 68.0928 20.3415 68.564 23.3252C68.6063 23.585 68.6488 23.8447 68.6915 24.1045C68.7765 24.6241 68.8604 25.1439 68.9435 25.6639C69.0483 26.3165 69.1597 26.9678 69.2734 27.6189C70.2929 33.5217 68.1583 36.966 64.9116 41.8359C65.2237 41.764 65.2237 41.764 65.542 41.6906C65.8161 41.6284 66.0902 41.5661 66.3643 41.5039C66.5012 41.4722 66.6382 41.4405 66.7793 41.4079C66.912 41.3779 67.0447 41.348 67.1814 41.3171C67.3031 41.2893 67.4248 41.2615 67.5502 41.2328C67.8999 41.1719 67.8999 41.1719 68.564 41.1719C68.5787 41.0636 68.5934 40.9553 68.6085 40.8437C68.7715 40.1704 69.0536 39.5781 69.3461 38.952C69.4379 38.7528 69.4379 38.7528 69.5316 38.5496C69.727 38.1263 69.9237 37.7036 70.1204 37.2809C70.2515 36.9972 70.3825 36.7135 70.5134 36.4297C71.1724 35.0041 71.1724 35.0041 71.4026 34.5184C71.5366 34.2325 71.6641 33.9436 71.7907 33.6544C72.4521 32.5047 73.7798 32.052 74.927 31.4959C75.2551 31.3361 75.5811 31.1724 75.9073 31.0086C76.1184 30.9054 76.3298 30.8025 76.5412 30.6999C76.7306 30.6068 76.9201 30.5136 77.1153 30.4176C77.8168 30.1721 78.2842 30.16 79.023 30.2148C79.438 30.4638 79.438 30.4638 79.687 30.8789C79.7778 31.3404 79.8082 31.7508 79.687 32.207C79.1956 32.7946 78.7557 33.0047 78.0347 33.2401C75.6901 34.1188 74.2238 34.993 73.1477 37.3301C72.723 38.3151 72.338 39.314 71.9727 40.3224C70.971 43.0639 70.971 43.0639 70.2241 43.6621C69.7362 43.8306 69.7362 43.8306 69.13 43.9818C69.019 44.01 68.9081 44.0382 68.7937 44.0673C68.4247 44.1607 68.055 44.2515 67.6853 44.3424C67.4246 44.4077 67.164 44.4732 66.9034 44.5389C66.3502 44.6779 65.7968 44.8159 65.2431 44.953C64.3837 45.166 63.525 45.382 62.6664 45.5983C60.2844 46.1977 57.9016 46.7913 55.5104 47.3527C55.2003 47.4264 54.8902 47.5002 54.5802 47.5741C54.0425 47.7022 53.504 47.8249 52.9642 47.9442C51.6716 48.2426 50.7763 48.5465 49.9702 49.6386C49.8662 49.7527 49.7622 49.8668 49.6551 49.9843C49.5742 50.0791 49.4933 50.1739 49.4099 50.2716C48.9664 50.7857 48.5163 51.293 48.0611 51.7968C47.6177 52.288 47.1774 52.7812 46.7433 53.2806C46.137 53.9769 45.5139 54.6575 44.8918 55.3396C44.4631 55.8128 44.0424 56.2923 43.6234 56.7741C42.9082 57.5904 42.1763 58.392 41.449 59.1975C40.8788 59.8298 40.3099 60.4628 39.7499 61.1041C39.6125 61.2614 39.6125 61.2614 39.4723 61.4219C39.256 61.6698 39.0398 61.918 38.8238 62.1663C38.7049 62.302 38.5859 62.4377 38.4633 62.5775C38.2999 62.7646 38.2999 62.7646 38.1332 62.9556C37.7524 63.3557 37.6023 63.4155 37.0447 63.4319C36.7402 63.4275 36.7402 63.4275 36.4295 63.423C36.1969 63.4204 35.9642 63.4178 35.7316 63.4152C35.6078 63.4136 35.4839 63.4121 35.3563 63.4104C34.5539 63.4018 33.7516 63.4028 32.9492 63.4019C32.2485 63.4005 31.5482 63.3961 30.8476 63.3844C26.7532 63.3014 26.7532 63.3014 22.991 64.7656C21.6785 65.484 20.4667 65.5541 19.0025 65.5197C18.8906 65.5175 18.7788 65.5153 18.6636 65.513C17.6269 65.4892 16.5919 65.4401 15.5567 65.3801C13.0243 65.1397 13.0243 65.1397 10.6933 65.8527C9.97733 66.5276 9.49122 67.3038 9.02708 68.1646C8.51734 69.0557 7.97527 69.892 7.04482 70.3491C6.36205 70.3987 6.04305 70.2692 5.47805 69.8925C5.20599 69.3484 5.20802 68.8187 5.31203 68.2324C5.57174 67.7304 5.91503 67.3156 6.277 66.8835C6.37414 66.7627 6.47129 66.6419 6.57138 66.5174C6.77137 66.2688 6.97253 66.0211 7.17485 65.7743C7.45557 65.4282 7.7276 65.0772 7.99682 64.7221C8.07797 64.6156 8.15911 64.5092 8.24272 64.3995C8.39508 64.1995 8.54689 63.9991 8.69805 63.7982C9.07297 63.3148 9.37841 62.9676 9.96047 62.7539C9.87829 62.5724 9.79612 62.3909 9.71145 62.2039C9.31192 61.122 9.26808 59.9708 9.68032 58.8836C10.3531 57.543 11.4798 56.0974 12.6167 55.1172C13.2921 55.0189 13.6576 55.0553 14.2665 55.3662C14.6622 55.8459 14.6871 56.1404 14.6706 56.7527C14.561 57.3861 14.2027 57.8192 13.81 58.313C13.735 58.4123 13.6599 58.5116 13.5827 58.6139C13.2774 59.0167 12.9649 59.4133 12.6504 59.809C12.3729 60.21 12.3653 60.4517 12.4507 60.9277C12.7061 61.2645 12.7061 61.2645 13.1148 61.4258C13.635 61.4405 13.635 61.4405 14.1109 61.2597C14.227 61.0412 14.3371 60.8194 14.4429 60.5957C14.6828 60.3175 14.6828 60.3175 14.9617 60.0457C15.0511 59.9574 15.1406 59.869 15.2328 59.7779C16.0195 59.0501 16.8296 58.3514 17.6624 57.6769C20.8454 55.0803 23.6789 52.6846 24.1839 48.4239C24.2912 47.1898 24.3596 45.9482 24.342 44.7091C24.3372 43.7727 24.4292 43.2385 25.0679 42.5C25.8159 41.9352 26.3577 41.6294 27.2961 41.7017C27.4391 41.7112 27.582 41.7207 27.7293 41.7305C28.0277 41.7522 28.326 41.7746 28.6243 41.798C30.2949 41.9061 31.2585 41.4242 32.5697 40.4352C32.7014 40.3379 32.8332 40.2406 32.9689 40.1404C33.446 39.7875 33.9216 39.4339 34.3864 39.0648C34.6968 38.8476 34.6968 38.8476 35.0288 38.8476C34.8645 38.245 34.7001 37.6424 34.5308 37.0215C34.2965 37.1897 34.2965 37.1897 34.0574 37.3613C33.8486 37.5109 33.6398 37.6605 33.4309 37.81C33.3284 37.8837 33.2259 37.9573 33.1203 38.0331C30.5136 39.8989 28.5832 39.8115 25.4865 39.3129C24.7506 39.2077 24.2062 39.1425 23.4836 39.3424C22.6591 40.0201 22.4975 41.0864 22.3098 42.0947C22.2631 42.336 22.2163 42.5774 22.1694 42.8187C22.0987 43.1911 22.0287 43.5635 21.9598 43.9362C21.2875 47.5465 19.9803 50.7515 17.4312 53.457C16.9101 53.7175 16.5117 53.6815 15.937 53.623C15.3987 53.2336 15.1547 52.9841 14.9928 52.3364C15.1984 51.3648 15.8386 50.646 16.4357 49.8708C18.1991 47.5487 18.7312 44.9013 19.2677 42.0875C19.3099 41.8673 19.3099 41.8673 19.353 41.6427C19.405 41.3663 19.4552 41.0896 19.5032 40.8126C19.78 39.3167 20.3319 38.1051 21.4156 37.0215C21.3314 36.9008 21.3314 36.9008 21.2456 36.7776C20.3915 35.4939 20.0708 34.2505 20.2534 32.7051C20.644 31.1138 21.3337 29.8718 22.7333 28.9905C24.206 28.1828 25.6189 27.9868 27.2469 28.4094C28.6325 28.8742 29.8541 29.8941 30.5464 31.1895C31.1401 32.6081 31.1513 34.0644 30.7124 35.5273C30.6073 35.7514 30.4982 35.9737 30.3804 36.1914C30.6955 35.9844 31.0101 35.7767 31.3246 35.5688C31.4999 35.4533 31.6751 35.3377 31.8557 35.2186C32.3233 34.8972 32.7649 34.5598 33.2027 34.1992C33.1806 34.101 33.1586 34.0027 33.1359 33.9015C33.0919 33.7048 33.0919 33.7048 33.047 33.504C33.0181 33.375 32.9892 33.2459 32.9595 33.113C32.9155 32.911 32.9155 32.911 32.8706 32.7051C32.8407 32.5717 32.8107 32.4384 32.7798 32.301C32.2662 29.3918 33.5959 26.4479 34.4989 23.7344C34.6763 23.1999 34.851 22.6647 35.0256 22.1293C35.1402 21.7834 35.255 21.4376 35.3699 21.0917C35.4208 20.9347 35.4717 20.7776 35.5241 20.6158C36.2999 18.3115 37.3767 16.5292 39.5793 15.3963C39.7315 15.3215 39.8836 15.2467 40.0404 15.1697C40.2025 15.0877 40.3645 15.0058 40.5314 14.9213C41.0752 14.648 41.6211 14.3794 42.1675 14.1113C42.3754 14.0085 42.5832 13.9056 42.791 13.8027C43.433 13.485 44.0762 13.17 44.72 12.8558C44.8221 12.8058 44.9242 12.7557 45.0295 12.7041C47.7244 11.387 50.802 10.2608 53.6226 11.9531ZM23.5011 32.1759C23.0922 33.0101 22.9844 33.573 23.2625 34.469C23.6621 35.1884 24.0786 35.666 24.7877 36.0876C25.4144 36.2334 25.9547 36.2243 26.562 36.0254C27.2397 35.5952 27.7553 35.1188 28.0562 34.3652C28.1764 33.5962 28.1308 33.0176 27.776 32.3211C27.1219 31.561 26.6312 31.0993 25.586 31.0183C24.6926 31.0858 24.0748 31.514 23.5011 32.1759ZM35.3771 41.9468C35.2428 42.0404 35.1085 42.1341 34.9701 42.2305C34.6896 42.4271 34.4094 42.6242 34.1297 42.822C32.8044 43.7433 31.4418 44.6843 29.7786 44.6789C29.6498 44.6794 29.5209 44.6798 29.3882 44.6802C28.6644 44.6484 27.9463 44.5694 27.2261 44.4922C27.1998 44.6911 27.1998 44.6911 27.173 44.894C27.0149 46.0902 26.8555 47.2862 26.6944 48.482C26.6021 49.1692 26.5125 49.8568 26.4246 50.5446C26.384 50.8513 26.3433 51.1581 26.3026 51.4648C26.2857 51.6032 26.2687 51.7416 26.2512 51.8842C26.1453 52.664 25.9665 53.2626 25.5659 53.9551C25.8061 54.1117 25.8061 54.1117 26.051 54.2715C26.263 54.4149 26.4748 54.5584 26.6865 54.7021C26.7918 54.7702 26.8971 54.8382 27.0056 54.9083C27.7965 55.4521 28.2853 56.0091 28.5542 56.9433C28.6171 57.5219 28.6031 58.0852 28.575 58.6657C28.5636 58.961 28.5536 59.2563 28.5451 59.5516C28.5392 59.6805 28.5332 59.8094 28.5271 59.9422C28.5228 60.3036 28.5228 60.3036 28.8863 60.5957C29.3138 60.5683 29.3138 60.5683 29.7163 60.4297C29.9159 60.0305 29.9325 59.7216 29.9712 59.2766C29.9856 59.1114 30.0001 58.9462 30.015 58.776C30.0294 58.6026 30.0439 58.4293 30.0587 58.2507C30.0738 58.0812 30.0889 57.9117 30.1045 57.7371C30.3562 56.0588 30.3562 56.0588 29.9135 54.5361C29.2939 54.0099 28.6103 53.5521 27.9446 53.0867C27.5581 52.7929 27.5581 52.7929 27.3921 52.4609C27.3173 51.2824 27.3173 51.2824 27.5581 50.8008C28.0954 50.5321 28.6367 50.5493 29.2183 50.6347C29.6595 50.8304 30.0217 51.0963 30.4011 51.3922C30.502 51.4679 30.6028 51.5436 30.7068 51.6216C31.7014 52.3851 32.6273 53.1634 32.8706 54.4531C32.925 55.8568 32.8267 57.2474 32.7046 58.645C32.6809 58.9284 32.6809 58.9284 32.6566 59.2176C32.618 59.677 32.5787 60.1364 32.5386 60.5957C34.7136 60.9253 34.7136 60.9253 36.7635 60.3564C37.4735 59.7551 38.036 59.0442 38.5823 58.2948C39.0231 57.7035 39.5169 57.1598 40.0093 56.6113C40.1411 56.4641 40.273 56.3168 40.4088 56.1651C40.5235 56.0384 40.6382 55.9118 40.7564 55.7812C41.1997 55.29 41.6401 54.7969 42.0741 54.2975C42.6804 53.6012 43.3035 52.9206 43.9256 52.2385C44.3528 51.7669 44.7724 51.2896 45.1889 50.8085C45.418 50.5481 45.6508 50.2911 45.8853 50.0355C46.0212 49.8874 46.1571 49.7393 46.2971 49.5868C46.4234 49.4504 46.5497 49.3141 46.6798 49.1737C47.0128 48.8161 47.0128 48.8161 47.148 48.3105C46.9534 48.2943 46.7589 48.278 46.5585 48.2612C46.295 48.2363 46.0315 48.2112 45.768 48.186C45.6407 48.1757 45.5135 48.1655 45.3824 48.1549C43.5438 47.9718 42.0854 47.2417 40.58 46.2042C40.428 46.1004 40.2761 45.9967 40.1195 45.8898C38.3066 44.6358 37.0615 43.5953 36.1909 41.5039C35.8781 41.5039 35.6232 41.7732 35.3771 41.9468ZM23.4077 55.9472C23.2554 56.1015 23.103 56.2558 22.946 56.4148C22.7402 56.6221 22.5344 56.8294 22.3286 57.0367C22.2289 57.1378 22.1292 57.2389 22.0264 57.3431C21.5129 57.8594 20.9924 58.3574 20.4402 58.8324C19.6495 59.515 18.9148 60.2498 18.1782 60.99C18.0417 61.1259 17.9052 61.2617 17.7645 61.4018C17.6357 61.5308 17.5068 61.6598 17.3741 61.7928C17.2574 61.9097 17.1406 62.0267 17.0204 62.1471C16.7484 62.3799 16.7484 62.3799 16.7671 62.5879C19.4489 62.78 21.3633 62.6122 23.706 61.2749C24.3505 60.9557 25.038 60.7765 25.732 60.5957C26.0691 58.8204 26.0691 58.8204 25.6113 57.1677C25.2186 56.8669 24.8529 56.6519 24.4038 56.4453C24.2226 56.3543 24.0413 56.2634 23.8546 56.1697C23.7071 56.0963 23.5597 56.0229 23.4077 55.9472Z" fill="white" stroke="black" stroke-width="0.8" mask="url(#path-1-inside-1_1300_401)"/>
<path d="M41.7275 64.3472C42.0583 64.2355 42.4177 64.2046 42.9121 64.272C43.1331 64.4595 43.2632 64.6142 43.3564 64.7847C43.4526 64.9606 43.5157 65.1641 43.5898 65.4614C43.4065 66.2075 42.749 66.8748 41.918 67.48C41.0751 68.0938 40.132 68.5939 39.417 69.0513C39.0569 69.2302 38.8016 69.233 38.3428 69.2583H38.3418C38.0833 69.2735 38.0831 69.274 37.8193 69.2896C37.6312 69.3006 37.4428 69.3114 37.249 69.3228H37.2471C36.6354 69.3651 36.0234 69.4088 35.4121 69.4526C34.9946 69.481 34.577 69.5064 34.1592 69.5288C31.3885 69.6811 29.3436 70.0605 27.0947 71.811C26.584 72.2024 26.0451 72.5502 25.498 72.9106L25.4951 72.9126C25.2389 73.0877 25.2341 73.0905 24.9814 73.2632C24.4535 73.5445 24.0457 73.6371 23.4463 73.6733C23.2213 73.5703 23.0657 73.4968 22.9375 73.3999C22.8139 73.3064 22.7103 73.1863 22.6055 72.9839C22.5428 72.5131 22.5109 72.2259 22.5986 71.8101C23.2155 71.0975 24.0995 70.5948 24.9434 70.0845L24.9443 70.0835C25.0591 70.0131 25.1747 69.9432 25.293 69.8706C25.5269 69.7272 25.7608 69.5836 25.9951 69.4409H25.9961C26.3156 69.2453 26.6321 69.0458 26.9482 68.8462C27.2255 68.6722 27.2266 68.6733 27.5098 68.4956V68.4946C27.67 68.3938 27.8302 68.2928 27.9951 68.189C29.1309 67.541 30.0312 67.3424 31.3438 67.2534H31.3457C31.5145 67.2402 31.6835 67.227 31.8574 67.2134L33.4668 67.0933C34.0038 67.0535 34.5411 67.013 35.0781 66.9712C35.4107 66.9454 35.7435 66.9212 36.0762 66.8979H36.0771C37.267 66.8069 38.3626 66.6691 39.3887 65.897L39.3896 65.8979C39.5222 65.8016 39.6554 65.7052 39.792 65.606L39.7939 65.604C40.0653 65.4023 40.3358 65.1996 40.6055 64.9956C41.0451 64.6782 41.3781 64.4652 41.7275 64.3472Z" fill="white" stroke="black" stroke-width="0.4"/>
<path d="M60.207 50.9253C61.0344 50.6913 61.8415 50.5476 62.6709 50.6597C62.911 50.8578 63.0384 51.0076 63.1201 51.1724C63.2064 51.3463 63.25 51.5532 63.2979 51.8882C63.251 52.1994 63.1994 52.3613 63.1152 52.4917C63.027 52.6284 62.8946 52.7455 62.6465 52.9526C62.2926 53.1087 62.2912 53.1101 61.8799 53.229H61.8789C61.7213 53.2757 61.5637 53.3225 61.4014 53.3706C61.2342 53.4178 61.0668 53.4646 60.8945 53.5132L60.8926 53.5142C60.7219 53.564 60.5509 53.6141 60.375 53.6655C60.0345 53.7647 59.6935 53.8632 59.3525 53.9604L58.1279 54.3179C57.374 54.5399 57.0091 54.6475 56.7598 54.7007C56.5228 54.7512 56.3975 54.7515 56.1133 54.7515H55.9648L55.9219 54.8931C55.8566 55.1075 55.8559 55.1104 55.791 55.3237C55.6029 55.8516 55.3775 56.295 55.0908 56.7856V56.7866L54.7861 57.3091C54.6811 57.487 54.576 57.6649 54.4678 57.8481L54.4668 57.8491C54.3111 58.1169 54.3111 58.117 54.1523 58.3901C53.4991 59.5039 53.1878 60.0327 52.9395 60.3179C52.8223 60.4524 52.7263 60.524 52.6191 60.5757C52.5087 60.629 52.3807 60.6647 52.1846 60.7173C51.9125 60.722 51.742 60.7217 51.5879 60.688C51.4448 60.6567 51.3065 60.5935 51.1143 60.4546C50.9207 60.1603 50.8365 59.971 50.8037 59.7788C50.7694 59.5777 50.7869 59.3577 50.8301 58.9858C51.0749 58.4002 51.386 57.8559 51.7109 57.2925L51.7119 57.2905L51.9854 56.8052C52.2544 56.33 52.5275 55.8572 52.8008 55.3833L52.8018 55.3813C52.9468 55.1237 53.0915 54.8658 53.2363 54.6079C53.3639 54.3854 53.4919 54.1629 53.6201 53.9409L53.6211 53.939C53.6768 53.84 53.7327 53.7411 53.79 53.6392C54.3936 52.6216 55.2497 52.3761 56.415 52.0386H56.416L56.8262 51.9185L57.6826 51.6694C58.1172 51.5437 58.5508 51.4147 58.9834 51.2856L58.9824 51.2847C59.261 51.2036 59.5397 51.1231 59.8184 51.0425H59.8203C59.9479 51.0041 60.0756 50.9648 60.207 50.9253Z" fill="white" stroke="black" stroke-width="0.4"/>
</svg>
