<svg width="63" height="62" viewBox="0 0 63 62" fill="none" xmlns="http://www.w3.org/2000/svg">
<path fill-rule="evenodd" clip-rule="evenodd" d="M4.83445 16.1005L9.42647 13.395C9.57151 13.3079 9.74062 13.2643 9.90181 13.2643C9.97433 13.2643 10.0388 13.2716 10.1032 13.2856C11.6177 13.6168 13.1163 13.7269 14.5421 13.6127C14.5421 13.6127 14.5502 13.6127 14.5502 13.6119C15.4526 13.5404 16.3467 13.3776 17.2168 13.1304C17.3295 13.0974 17.4424 13.0869 17.5632 13.0974L25.4098 13.8412C26.2556 13.9217 27.0049 13.2849 27.0853 12.4228C27.1579 11.5606 26.5375 10.7931 25.6916 10.7142L18.8681 10.0675C18.4895 10.0313 18.1673 9.77158 18.0544 9.40428C17.9336 9.03698 18.0383 8.6317 18.3203 8.37376C21.8327 5.15638 26.2313 3.18154 30.8554 2.6646C22.6947 0.410313 12.7294 3.43306 2.20015 11.454L4.83445 16.1005ZM37.0022 59.7941L39.6284 55.1484L35.0365 52.4421C34.8271 52.3213 34.674 52.1273 34.6016 51.899C34.1263 50.3901 33.4737 49.0144 32.66 47.8056C32.6519 47.8031 32.6519 47.799 32.6519 47.7949C32.1443 47.0397 31.5564 46.3329 30.9199 45.6927C30.8312 45.6105 30.7668 45.511 30.7185 45.4042L27.4236 38.0999C27.2545 37.7219 26.9482 37.4326 26.5616 37.287C26.1668 37.1398 25.7559 37.1556 25.3854 37.3297C25.0068 37.5032 24.7248 37.8163 24.5798 38.2125C24.4428 38.6069 24.459 39.0343 24.6281 39.4123L27.488 45.7699C27.6492 46.1216 27.5927 46.5357 27.3349 46.8251C27.0852 47.1135 26.6904 47.2229 26.3279 47.1029C21.8407 45.6088 17.9658 42.7126 15.2186 38.8871C17.3858 47.2145 24.9343 54.5057 37.0022 59.7941ZM49.8032 37.7308C48.3127 39.8002 46.46 41.5834 44.3412 42.9732L42.0694 38.9628C41.9405 38.7393 41.7391 38.5756 41.4894 38.5084C41.2478 38.4419 40.99 38.4771 40.7643 38.6061L38.8147 39.755C38.146 40.1504 37.284 39.9144 36.8974 39.2291C36.704 38.8995 36.6557 38.5142 36.7604 38.1409C36.857 37.7686 37.0826 37.4597 37.4129 37.2681L39.3626 36.1192C39.8137 35.8505 39.9749 35.2547 39.709 34.7904L37.3969 30.6961C38.9357 29.4543 39.9266 27.5313 39.9266 25.3772C39.9266 23.2224 38.9357 21.301 37.3969 20.0584L39.2337 16.8073L40.3535 17.4698C41.9405 18.4018 43.9706 17.847 44.889 16.2304C45.3241 15.4505 45.4449 14.5392 45.2112 13.6656C44.9857 12.7904 44.4378 12.0606 43.6724 11.6102L42.5526 10.9478L44.333 7.79688C46.8706 9.45522 49.0619 11.6825 50.6893 14.3599C50.3751 15.1012 50.1093 15.8671 49.9079 16.6479L45.453 23.0639C44.3493 24.6475 44.7198 26.8468 46.2746 27.9685C47.8213 29.0894 49.9804 28.7139 51.0759 27.1302L53.6781 23.3884C54.1211 28.1245 52.9692 32.8894 50.3913 36.8703C50.351 36.9361 50.3107 37.0018 50.2624 37.0685C50.2141 37.1441 50.1656 37.2189 50.1093 37.2945C50.061 37.3734 50.0046 37.4531 49.9482 37.532C49.8998 37.5976 49.8515 37.6643 49.8032 37.7308ZM60.6386 4.88182H55.378V10.2935C55.378 10.5352 55.2894 10.767 55.1364 10.9461C54.0891 12.1229 53.2513 13.3884 52.631 14.7092V14.7141C52.2443 15.5442 51.93 16.4161 51.7126 17.3069C51.6805 17.4219 51.632 17.5312 51.5595 17.629L47.0078 24.1887C46.5164 24.8963 46.6856 25.8783 47.3784 26.3797C48.0711 26.8794 49.0299 26.7118 49.5212 26.0042L53.4848 20.2958C53.7023 19.9785 54.089 19.8257 54.4595 19.9045C54.8302 19.9826 55.1201 20.2785 55.2007 20.6582C56.1754 25.3786 55.6518 30.2488 53.7828 34.5822C59.7685 28.5034 62.1854 18.1888 60.6386 4.88182ZM33.2802 20.5448C30.6702 20.5448 28.5433 22.7128 28.5433 25.3771C28.5433 28.0414 30.6702 30.2077 33.2802 30.2077C35.8903 30.2077 38.0172 28.0414 38.0172 25.3771C38.0172 22.7128 35.8905 20.5448 33.2802 20.5448ZM14.4775 33.6932C13.4786 31.3445 12.9309 28.8527 12.8099 26.3512H17.3536C17.8772 26.3512 18.3043 25.9148 18.3043 25.3772V23.0795C18.3043 22.2872 18.9406 21.6429 19.7141 21.6429C20.4875 21.6429 21.124 22.2872 21.124 23.0795V25.3772C21.124 25.9148 21.5509 26.3512 22.0747 26.3512H26.7069C27.1661 29.6294 29.9374 32.1557 33.2805 32.1557C34.1506 32.1557 34.9803 31.9832 35.7377 31.6724L37.5825 34.9194L36.4546 35.5819C35.6894 36.0323 35.1415 36.762 34.9159 37.6373C34.6823 38.5108 34.8031 39.4222 35.2381 40.203C35.6811 40.9829 36.3981 41.5426 37.252 41.7759C38.114 42.011 39.0082 41.8919 39.7736 41.4414L40.8934 40.779L42.6899 43.9454C39.9831 45.373 36.9781 46.1684 33.925 46.2654C33.4497 45.6153 32.9341 44.9991 32.3782 44.4286L29.1558 37.287C28.7772 36.4348 28.0843 35.7855 27.2223 35.4601C26.3522 35.1322 25.4177 35.1676 24.5799 35.5596C23.7502 35.9516 23.1137 36.6527 22.7915 37.5369C22.4693 38.4194 22.5095 39.3745 22.8882 40.2259L24.7733 44.3958C20.1974 42.2674 16.5239 38.4722 14.4857 33.7164C14.4856 33.7088 14.4775 33.7005 14.4775 33.6932ZM28.9864 12.602C29.067 11.6692 28.793 10.7569 28.1969 10.0321C27.6088 9.30803 26.7791 8.86096 25.8687 8.77386L21.3976 8.35149C24.8939 5.80877 29.1072 4.45198 33.4172 4.47822C33.5702 4.4799 33.7152 4.48066 33.8683 4.48554C33.9247 4.48722 33.973 4.4889 34.0295 4.49134C37.0747 4.60558 40.0232 5.4224 42.6817 6.82204L40.4179 10.8176C40.152 11.2827 40.3132 11.8787 40.7643 12.1474L42.7138 13.2963C43.0361 13.487 43.2698 13.796 43.3744 14.1682C43.471 14.5413 43.4227 14.9267 43.2294 15.2562C42.8427 15.9425 41.9807 16.1783 41.312 15.7821L39.3626 14.6333C38.9034 14.3645 38.3234 14.5239 38.0575 14.9899L35.7374 19.0817C34.98 18.7695 34.1503 18.5968 33.2802 18.5968C29.9371 18.5968 27.1658 21.1248 26.7066 24.403H23.0331V23.079C23.0331 21.2136 21.5428 19.6955 19.714 19.6955C17.8853 19.6955 16.3949 21.2134 16.3949 23.079V24.403H12.818C12.9549 21.3212 13.7606 18.2723 15.2187 15.5019C16.0082 15.4124 16.7896 15.2637 17.5549 15.0541L25.2323 15.7797C26.1426 15.8668 27.0369 15.5825 27.7539 14.9817C28.4628 14.3804 28.8979 13.5356 28.9864 12.602ZM0.371479 10.4234C6.9532 5.28695 13.39 2.00627 19.4885 0.670077C25.6353 -0.676029 31.1939 0.00854037 36.0114 2.70075C39.0243 3.0772 41.9406 4.07233 44.559 5.63549C47.3947 7.32434 49.8356 9.63781 51.7047 12.3834C52.2122 11.5329 52.8002 10.7101 53.4689 9.92457V3.90805C53.4689 3.36976 53.8958 2.93504 54.4275 2.93504H61.4844C61.9597 2.93504 62.3626 3.29746 62.427 3.78236C63.4985 12.1674 63.0634 19.4898 61.1541 25.5458C59.2206 31.6535 55.8613 36.2204 51.1646 39.128C49.36 41.5671 47.0802 43.6315 44.4781 45.1658C44.4781 45.169 44.47 45.17 44.47 45.1724C41.6102 46.8588 38.3957 47.8745 35.1008 48.1482C35.5681 49.0234 35.9709 49.9554 36.3012 50.9398L41.4088 53.9493C41.6263 54.0776 41.7874 54.2904 41.8518 54.5395C41.9243 54.7893 41.884 55.0555 41.7632 55.2783L38.2346 61.5127C38.0574 61.8234 37.7351 62 37.4049 62C37.284 62 37.1551 61.977 37.0343 61.926C29.3892 58.6791 23.3875 54.6389 19.2064 49.9175C14.985 45.161 12.7857 39.9127 12.6649 34.3171C10.1514 28.3022 10.3124 21.459 13.0354 15.5985C12.0606 15.5738 11.0697 15.4638 10.0708 15.2666L4.95527 18.2744C4.81023 18.3622 4.64112 18.4059 4.47993 18.4059C4.14964 18.4059 3.83549 18.23 3.65815 17.9168L0.129547 11.6825C-0.111931 11.2592 -0.00711441 10.7209 0.371479 10.4234Z" fill="white"/>
</svg>
