<svg width="62" height="62" viewBox="0 0 62 62" fill="none" xmlns="http://www.w3.org/2000/svg">
<g clip-path="url(#clip0_1300_397)">
<mask id="path-1-inside-1_1300_397" fill="white">
<path d="M19.3751 35.1174C20.5025 35.9336 20.8684 36.8565 21.2293 38.1599C21.6872 39.7309 22.3074 41.0037 23.3712 42.2619C23.4631 42.3787 23.555 42.4954 23.6498 42.6157C23.9816 43.0133 24.3591 43.321 24.7713 43.6318C24.8396 43.6852 24.9079 43.7387 24.9783 43.7938C25.3276 44.0606 25.6062 44.2327 26.0352 44.3205C26.0333 44.2315 26.0314 44.1424 26.0295 44.0507C26.0218 43.6411 26.0172 43.2316 26.0125 42.822C26.0095 42.6819 26.0064 42.5419 26.0033 42.3977C25.9895 40.7713 26.4175 39.6326 27.5035 38.4247C28.4517 37.5247 29.721 37.0734 31.0109 37.0473C32.456 37.1023 33.5722 37.5747 34.6097 38.5823C35.8049 39.884 36.0238 41.1487 35.9876 42.8825C35.986 43.033 35.9843 43.1835 35.9827 43.3385C35.9784 43.7063 35.9725 44.0739 35.9649 44.4416C38.6824 42.6919 40.1158 40.5728 40.9298 37.4863C41.246 36.3516 41.7143 35.6464 42.7164 35.0195C43.7178 34.4883 44.87 34.4304 45.9514 34.7617C46.9016 35.2032 47.6182 35.8135 48.0592 36.7748C48.8094 38.9839 47.7018 41.5335 46.7297 43.5105C46.6142 43.7409 46.4968 43.9703 46.379 44.1994C46.4503 44.2215 46.5216 44.2436 46.595 44.2664C47.3673 44.5133 48.0025 44.8437 48.6798 45.2893C48.7872 45.3592 48.8945 45.4291 49.0052 45.5012C49.7497 46.2256 50.2529 47.0658 50.4962 48.0744C50.5186 48.161 50.5411 48.2477 50.5643 48.3369C50.6412 48.835 50.6347 49.3271 50.6324 49.8303C50.6329 49.9322 50.6333 50.0341 50.6338 50.1392C50.633 50.6371 50.6215 51.1006 50.4962 51.5861C52.3561 50.2884 53.6929 48.9687 54.6209 46.8937C55.1434 45.7333 55.7465 44.8338 56.9515 44.3058C58.1266 43.9221 59.1859 44.0583 60.3048 44.5627C61.1832 45.0803 61.6945 45.9047 62.0001 46.8635C62.1864 48.1171 61.9395 49.1297 61.3946 50.2541C61.3576 50.3324 61.3205 50.4108 61.2824 50.4915C59.8398 53.5114 57.2253 56.8964 54.0079 58.1252C54.0098 58.2137 54.0117 58.3023 54.0136 58.3935C54.0212 58.796 54.0259 59.1985 54.0306 59.601C54.0352 59.81 54.0352 59.81 54.0398 60.0232C54.041 60.1578 54.0422 60.2925 54.0434 60.4312C54.0453 60.5548 54.0472 60.6785 54.0491 60.8059C54.0009 61.2115 53.8866 61.4314 53.6446 61.758C53.2185 62.0421 53.0467 62.0307 52.5424 62.0313C52.3868 62.0321 52.2312 62.0329 52.0709 62.0337C51.8973 62.0334 51.7236 62.033 51.5499 62.0326C51.3662 62.033 51.1826 62.0336 50.9989 62.0342C50.4928 62.0357 49.9867 62.0357 49.4806 62.0354C48.9353 62.0354 48.39 62.0367 47.8447 62.0378C46.7758 62.0398 45.707 62.0405 44.6382 62.0406C43.7696 62.0408 42.9011 62.0413 42.0326 62.042C39.5718 62.0442 37.111 62.0453 34.6503 62.0451C34.4512 62.0451 34.4512 62.0451 34.248 62.0451C34.1151 62.0451 33.9822 62.045 33.8453 62.045C31.6907 62.0449 29.5362 62.0473 27.3817 62.0507C25.171 62.0541 22.9604 62.0558 20.7498 62.0556C19.508 62.0555 18.2663 62.0562 17.0245 62.0588C15.9674 62.061 14.9102 62.0615 13.853 62.0599C13.3134 62.0591 12.7738 62.0591 12.2341 62.0612C11.7404 62.0631 11.2467 62.0628 10.753 62.0606C10.5741 62.0603 10.3952 62.0607 10.2164 62.0621C9.97366 62.0638 9.73095 62.0622 9.48826 62.0605C9.28584 62.0605 9.28584 62.0605 9.07934 62.0606C8.63286 61.9858 8.43153 61.8327 8.11335 61.5158C7.98508 61.131 7.97838 60.8588 7.98043 60.4548C7.98102 60.2517 7.98102 60.2517 7.98162 60.0445C7.98314 59.8325 7.98314 59.8325 7.98469 59.6162C7.98524 59.4734 7.98578 59.3307 7.98635 59.1836C7.98777 58.8308 7.98977 58.478 7.99226 58.1252C7.89945 58.0896 7.80664 58.054 7.71102 58.0173C4.70248 56.7713 2.38003 53.6362 0.908275 50.8671C0.858714 50.7741 0.809153 50.6811 0.758091 50.5852C0.0805759 49.271 -0.334075 47.9247 0.129207 46.4534C0.565301 45.5063 1.09801 44.832 2.0563 44.4C3.19751 43.9964 4.23868 43.9509 5.35847 44.4416C6.54774 45.1206 7.02773 46.1162 7.5692 47.3192C8.41477 49.1595 9.78585 50.5279 11.504 51.5861C11.4845 51.5171 11.465 51.4482 11.445 51.3771C11.0805 49.7606 11.3437 47.9078 12.1946 46.4988C12.9805 45.2938 14.1035 44.6386 15.5001 44.3205C15.3379 43.798 15.1362 43.304 14.9166 42.8041C14.1231 40.9911 13.1903 38.7786 13.9377 36.8155C14.3325 35.9302 15.0432 35.1719 15.9315 34.7617C17.0462 34.4092 18.3924 34.4622 19.3751 35.1174ZM16.3477 37.6603C16.1907 38.4061 16.2568 38.951 16.4764 39.6735C16.5044 39.7686 16.5324 39.8636 16.5612 39.9615C17.2235 42.1439 18.3302 44.0817 19.8594 45.7736C19.9661 45.8916 20.0727 46.0096 20.1825 46.1312C21.3421 47.37 22.735 48.3171 24.2288 49.1141C24.5385 49.3425 24.6558 49.5428 24.8243 49.8908C24.8603 50.2194 24.8773 50.5205 24.8766 50.8488C24.8779 50.9449 24.8791 51.041 24.8804 51.14C24.884 51.4497 24.8852 51.7594 24.8863 52.0691C24.8881 52.2608 24.8902 52.4526 24.8924 52.6443C24.8994 53.3537 24.9033 54.063 24.9075 54.7724C24.92 56.3584 24.9325 57.9443 24.9454 59.5783C28.9415 59.5783 32.9376 59.5783 37.0548 59.5783C37.085 56.3721 37.085 56.3721 37.1126 53.1659C37.1192 52.5455 37.1192 52.5455 37.1226 52.2549C37.1248 52.0522 37.1264 51.8495 37.1277 51.6468C37.1298 51.3395 37.1334 51.0323 37.1372 50.7251C37.1375 50.635 37.1378 50.5448 37.138 50.4519C37.1453 50.006 37.1628 49.6598 37.418 49.2853C37.6076 49.1403 37.6076 49.1403 37.8324 49.02C37.9158 48.9738 37.9993 48.9276 38.0852 48.88C38.1747 48.8314 38.2643 48.7829 38.3565 48.7329C41.9731 46.6857 44.4225 43.4705 45.5313 39.4768C45.776 38.5944 45.776 38.5944 45.6297 37.7133C45.4178 37.3938 45.4178 37.3938 45.0469 37.176C44.5497 37.0956 44.5497 37.0956 44.0782 37.176C43.5412 37.6968 43.3476 38.1717 43.17 38.8864C42.2862 42.1246 40.3231 44.8919 37.4145 46.6089C34.5773 48.1955 30.9504 48.7874 27.7898 47.9247C27.5669 47.8579 27.3459 47.7846 27.1251 47.7111C26.9913 47.6687 26.8575 47.6262 26.7197 47.5825C23.6145 46.4958 21.0637 44.2547 19.6173 41.2932C19.1831 40.296 18.8269 39.2703 18.5728 38.2128C18.4693 37.8111 18.4085 37.663 18.1339 37.3349C17.4359 37.0018 16.8552 37.0634 16.3477 37.6603ZM29.4173 40.1839C28.6835 41.0083 28.5343 41.5672 28.5328 42.6555C28.5298 42.7664 28.5269 42.8774 28.5238 42.9918C28.5203 43.8131 28.6567 44.4988 29.2379 45.1105C29.9301 45.713 30.4555 45.8354 31.3577 45.82C32.0689 45.7306 32.5015 45.3722 32.983 44.8654C33.4341 44.1714 33.4662 43.5775 33.4674 42.769C33.4718 42.612 33.4718 42.612 33.4763 42.4518C33.4802 41.5995 33.2807 40.9809 32.7346 40.3216C31.7565 39.5139 30.4277 39.286 29.4173 40.1839ZM2.78523 46.9846C2.48129 47.4405 2.49938 47.6536 2.54304 48.1955C2.64636 48.5157 2.75245 48.8003 2.89119 49.1037C2.92867 49.1871 2.96615 49.2705 3.00477 49.3564C3.8034 51.0664 4.96594 52.443 6.29695 53.7658C6.38733 53.8573 6.47771 53.9488 6.57083 54.043C7.41309 54.8541 8.32606 55.4356 9.33139 56.0245C10.2597 56.5721 10.2597 56.5721 10.4141 57.0353C10.4741 58.2941 10.4741 58.2941 10.5352 59.5783C14.4514 59.5783 18.3676 59.5783 22.4024 59.5783C22.4024 58.2596 22.4024 56.9409 22.4024 55.5822C21.9235 55.5791 21.4446 55.576 20.9512 55.5728C20.5618 55.5689 20.1724 55.5646 19.783 55.56C19.3762 55.5553 18.9693 55.5516 18.5624 55.5494C14.1287 55.5245 10.5591 54.685 7.32719 51.5341C6.24464 50.3916 5.46092 49.0494 4.82274 47.6193C4.58811 47.1156 4.39193 46.841 3.87507 46.6213C3.42026 46.6213 3.17678 46.7596 2.78523 46.9846ZM57.3985 47.1057C57.2051 47.4104 57.073 47.7333 56.9368 48.0668C55.62 51.0507 53.1718 53.4079 50.1331 54.6101C50.0381 54.6462 49.9431 54.6823 49.8453 54.7194C49.7599 54.7526 49.6745 54.7858 49.5866 54.82C47.4496 55.5845 45.2186 55.5254 42.9808 55.5444C42.6518 55.5482 42.3228 55.5525 41.9938 55.5569C41.1951 55.5674 40.3965 55.5747 39.5977 55.5822C39.5977 56.9009 39.5977 58.2196 39.5977 59.5783C43.5139 59.5783 47.4301 59.5783 51.4649 59.5783C51.5049 58.7391 51.5448 57.9 51.586 57.0353C51.9638 56.4058 52.1009 56.3047 52.7213 55.9833C53.6306 55.4928 54.42 54.9026 55.2188 54.2502C55.3097 54.1781 55.4005 54.106 55.4941 54.0317C56.1867 53.4596 56.7292 52.7786 57.2774 52.0705C57.36 51.967 57.4426 51.8635 57.5276 51.7569C58.3915 50.6326 59.6406 48.8157 59.4571 47.3478C59.1664 46.9545 58.9555 46.78 58.4959 46.6137C57.9864 46.6241 57.7917 46.7841 57.3985 47.1057ZM14.4254 47.8247C13.7544 48.7916 13.8006 50.0422 13.9736 51.1713C14.2127 51.9565 14.8731 52.4491 15.5531 52.85C16.3253 53.0196 16.9976 52.9947 17.6968 52.6045C18.2053 52.2189 18.5689 51.704 18.7696 51.1018C18.8033 50.7113 18.8032 50.3204 18.8074 49.9287C18.811 49.8229 18.8145 49.7171 18.8181 49.6082C18.8253 48.8702 18.7095 48.3235 18.2852 47.7111C18.0523 47.4595 18.0523 47.4595 17.7933 47.2949C17.712 47.2376 17.6306 47.1803 17.5468 47.1213C16.4072 46.445 15.2453 46.9186 14.4254 47.8247ZM43.8611 47.5829C43.2726 48.3419 43.2029 48.9141 43.1927 49.853C43.1892 49.9587 43.1857 50.0645 43.1821 50.1734C43.1749 50.9114 43.2907 51.4581 43.7149 52.0705C43.9478 52.3221 43.9478 52.3221 44.2069 52.4868C44.2882 52.544 44.3695 52.6013 44.4533 52.6604C44.9916 52.9798 45.5296 52.9872 46.1368 52.9182C46.8741 52.6964 47.4275 52.2382 47.8321 51.5861C48.2197 50.6601 48.2474 49.3358 47.9532 48.3696C47.5632 47.6993 46.9842 47.1579 46.2579 46.8635C45.331 46.7279 44.5103 46.88 43.8611 47.5829ZM21.3126 50.3752C21.2892 50.5066 21.2657 50.6381 21.2416 50.7735C21.2098 50.9485 21.1779 51.1235 21.1461 51.2985C21.1308 51.3848 21.1155 51.4712 21.0997 51.5601C21.0841 51.6452 21.0685 51.7303 21.0524 51.8179C21.0385 51.8953 21.0245 51.9726 21.0101 52.0523C20.9318 52.3874 20.8159 52.7128 20.7071 53.0393C21.2666 53.0393 21.826 53.0393 22.4024 53.0393C22.5654 51.8129 22.5654 51.8129 22.191 50.7091C21.7794 50.4598 21.7794 50.4598 21.3126 50.3752ZM39.7779 50.7091C39.3546 51.347 39.5468 52.3064 39.5977 53.0393C40.1572 53.0393 40.7166 53.0393 41.293 53.0393C41.2381 52.8919 41.1831 52.7445 41.1265 52.5927C40.8829 51.8698 40.7866 51.1293 40.6876 50.3752C40.3288 50.3752 40.0675 50.5065 39.7779 50.7091Z"/>
</mask>
<path d="M19.3751 35.1174C20.5025 35.9336 20.8684 36.8565 21.2293 38.1599C21.6872 39.7309 22.3074 41.0037 23.3712 42.2619C23.4631 42.3787 23.555 42.4954 23.6498 42.6157C23.9816 43.0133 24.3591 43.321 24.7713 43.6318C24.8396 43.6852 24.9079 43.7387 24.9783 43.7938C25.3276 44.0606 25.6062 44.2327 26.0352 44.3205C26.0333 44.2315 26.0314 44.1424 26.0295 44.0507C26.0218 43.6411 26.0172 43.2316 26.0125 42.822C26.0095 42.6819 26.0064 42.5419 26.0033 42.3977C25.9895 40.7713 26.4175 39.6326 27.5035 38.4247C28.4517 37.5247 29.721 37.0734 31.0109 37.0473C32.456 37.1023 33.5722 37.5747 34.6097 38.5823C35.8049 39.884 36.0238 41.1487 35.9876 42.8825C35.986 43.033 35.9843 43.1835 35.9827 43.3385C35.9784 43.7063 35.9725 44.0739 35.9649 44.4416C38.6824 42.6919 40.1158 40.5728 40.9298 37.4863C41.246 36.3516 41.7143 35.6464 42.7164 35.0195C43.7178 34.4883 44.87 34.4304 45.9514 34.7617C46.9016 35.2032 47.6182 35.8135 48.0592 36.7748C48.8094 38.9839 47.7018 41.5335 46.7297 43.5105C46.6142 43.7409 46.4968 43.9703 46.379 44.1994C46.4503 44.2215 46.5216 44.2436 46.595 44.2664C47.3673 44.5133 48.0025 44.8437 48.6798 45.2893C48.7872 45.3592 48.8945 45.4291 49.0052 45.5012C49.7497 46.2256 50.2529 47.0658 50.4962 48.0744C50.5186 48.161 50.5411 48.2477 50.5643 48.3369C50.6412 48.835 50.6347 49.3271 50.6324 49.8303C50.6329 49.9322 50.6333 50.0341 50.6338 50.1392C50.633 50.6371 50.6215 51.1006 50.4962 51.5861C52.3561 50.2884 53.6929 48.9687 54.6209 46.8937C55.1434 45.7333 55.7465 44.8338 56.9515 44.3058C58.1266 43.9221 59.1859 44.0583 60.3048 44.5627C61.1832 45.0803 61.6945 45.9047 62.0001 46.8635C62.1864 48.1171 61.9395 49.1297 61.3946 50.2541C61.3576 50.3324 61.3205 50.4108 61.2824 50.4915C59.8398 53.5114 57.2253 56.8964 54.0079 58.1252C54.0098 58.2137 54.0117 58.3023 54.0136 58.3935C54.0212 58.796 54.0259 59.1985 54.0306 59.601C54.0352 59.81 54.0352 59.81 54.0398 60.0232C54.041 60.1578 54.0422 60.2925 54.0434 60.4312C54.0453 60.5548 54.0472 60.6785 54.0491 60.8059C54.0009 61.2115 53.8866 61.4314 53.6446 61.758C53.2185 62.0421 53.0467 62.0307 52.5424 62.0313C52.3868 62.0321 52.2312 62.0329 52.0709 62.0337C51.8973 62.0334 51.7236 62.033 51.5499 62.0326C51.3662 62.033 51.1826 62.0336 50.9989 62.0342C50.4928 62.0357 49.9867 62.0357 49.4806 62.0354C48.9353 62.0354 48.39 62.0367 47.8447 62.0378C46.7758 62.0398 45.707 62.0405 44.6382 62.0406C43.7696 62.0408 42.9011 62.0413 42.0326 62.042C39.5718 62.0442 37.111 62.0453 34.6503 62.0451C34.4512 62.0451 34.4512 62.0451 34.248 62.0451C34.1151 62.0451 33.9822 62.045 33.8453 62.045C31.6907 62.0449 29.5362 62.0473 27.3817 62.0507C25.171 62.0541 22.9604 62.0558 20.7498 62.0556C19.508 62.0555 18.2663 62.0562 17.0245 62.0588C15.9674 62.061 14.9102 62.0615 13.853 62.0599C13.3134 62.0591 12.7738 62.0591 12.2341 62.0612C11.7404 62.0631 11.2467 62.0628 10.753 62.0606C10.5741 62.0603 10.3952 62.0607 10.2164 62.0621C9.97366 62.0638 9.73095 62.0622 9.48826 62.0605C9.28584 62.0605 9.28584 62.0605 9.07934 62.0606C8.63286 61.9858 8.43153 61.8327 8.11335 61.5158C7.98508 61.131 7.97838 60.8588 7.98043 60.4548C7.98102 60.2517 7.98102 60.2517 7.98162 60.0445C7.98314 59.8325 7.98314 59.8325 7.98469 59.6162C7.98524 59.4734 7.98578 59.3307 7.98635 59.1836C7.98777 58.8308 7.98977 58.478 7.99226 58.1252C7.89945 58.0896 7.80664 58.054 7.71102 58.0173C4.70248 56.7713 2.38003 53.6362 0.908275 50.8671C0.858714 50.7741 0.809153 50.6811 0.758091 50.5852C0.0805759 49.271 -0.334075 47.9247 0.129207 46.4534C0.565301 45.5063 1.09801 44.832 2.0563 44.4C3.19751 43.9964 4.23868 43.9509 5.35847 44.4416C6.54774 45.1206 7.02773 46.1162 7.5692 47.3192C8.41477 49.1595 9.78585 50.5279 11.504 51.5861C11.4845 51.5171 11.465 51.4482 11.445 51.3771C11.0805 49.7606 11.3437 47.9078 12.1946 46.4988C12.9805 45.2938 14.1035 44.6386 15.5001 44.3205C15.3379 43.798 15.1362 43.304 14.9166 42.8041C14.1231 40.9911 13.1903 38.7786 13.9377 36.8155C14.3325 35.9302 15.0432 35.1719 15.9315 34.7617C17.0462 34.4092 18.3924 34.4622 19.3751 35.1174ZM16.3477 37.6603C16.1907 38.4061 16.2568 38.951 16.4764 39.6735C16.5044 39.7686 16.5324 39.8636 16.5612 39.9615C17.2235 42.1439 18.3302 44.0817 19.8594 45.7736C19.9661 45.8916 20.0727 46.0096 20.1825 46.1312C21.3421 47.37 22.735 48.3171 24.2288 49.1141C24.5385 49.3425 24.6558 49.5428 24.8243 49.8908C24.8603 50.2194 24.8773 50.5205 24.8766 50.8488C24.8779 50.9449 24.8791 51.041 24.8804 51.14C24.884 51.4497 24.8852 51.7594 24.8863 52.0691C24.8881 52.2608 24.8902 52.4526 24.8924 52.6443C24.8994 53.3537 24.9033 54.063 24.9075 54.7724C24.92 56.3584 24.9325 57.9443 24.9454 59.5783C28.9415 59.5783 32.9376 59.5783 37.0548 59.5783C37.085 56.3721 37.085 56.3721 37.1126 53.1659C37.1192 52.5455 37.1192 52.5455 37.1226 52.2549C37.1248 52.0522 37.1264 51.8495 37.1277 51.6468C37.1298 51.3395 37.1334 51.0323 37.1372 50.7251C37.1375 50.635 37.1378 50.5448 37.138 50.4519C37.1453 50.006 37.1628 49.6598 37.418 49.2853C37.6076 49.1403 37.6076 49.1403 37.8324 49.02C37.9158 48.9738 37.9993 48.9276 38.0852 48.88C38.1747 48.8314 38.2643 48.7829 38.3565 48.7329C41.9731 46.6857 44.4225 43.4705 45.5313 39.4768C45.776 38.5944 45.776 38.5944 45.6297 37.7133C45.4178 37.3938 45.4178 37.3938 45.0469 37.176C44.5497 37.0956 44.5497 37.0956 44.0782 37.176C43.5412 37.6968 43.3476 38.1717 43.17 38.8864C42.2862 42.1246 40.3231 44.8919 37.4145 46.6089C34.5773 48.1955 30.9504 48.7874 27.7898 47.9247C27.5669 47.8579 27.3459 47.7846 27.1251 47.7111C26.9913 47.6687 26.8575 47.6262 26.7197 47.5825C23.6145 46.4958 21.0637 44.2547 19.6173 41.2932C19.1831 40.296 18.8269 39.2703 18.5728 38.2128C18.4693 37.8111 18.4085 37.663 18.1339 37.3349C17.4359 37.0018 16.8552 37.0634 16.3477 37.6603ZM29.4173 40.1839C28.6835 41.0083 28.5343 41.5672 28.5328 42.6555C28.5298 42.7664 28.5269 42.8774 28.5238 42.9918C28.5203 43.8131 28.6567 44.4988 29.2379 45.1105C29.9301 45.713 30.4555 45.8354 31.3577 45.82C32.0689 45.7306 32.5015 45.3722 32.983 44.8654C33.4341 44.1714 33.4662 43.5775 33.4674 42.769C33.4718 42.612 33.4718 42.612 33.4763 42.4518C33.4802 41.5995 33.2807 40.9809 32.7346 40.3216C31.7565 39.5139 30.4277 39.286 29.4173 40.1839ZM2.78523 46.9846C2.48129 47.4405 2.49938 47.6536 2.54304 48.1955C2.64636 48.5157 2.75245 48.8003 2.89119 49.1037C2.92867 49.1871 2.96615 49.2705 3.00477 49.3564C3.8034 51.0664 4.96594 52.443 6.29695 53.7658C6.38733 53.8573 6.47771 53.9488 6.57083 54.043C7.41309 54.8541 8.32606 55.4356 9.33139 56.0245C10.2597 56.5721 10.2597 56.5721 10.4141 57.0353C10.4741 58.2941 10.4741 58.2941 10.5352 59.5783C14.4514 59.5783 18.3676 59.5783 22.4024 59.5783C22.4024 58.2596 22.4024 56.9409 22.4024 55.5822C21.9235 55.5791 21.4446 55.576 20.9512 55.5728C20.5618 55.5689 20.1724 55.5646 19.783 55.56C19.3762 55.5553 18.9693 55.5516 18.5624 55.5494C14.1287 55.5245 10.5591 54.685 7.32719 51.5341C6.24464 50.3916 5.46092 49.0494 4.82274 47.6193C4.58811 47.1156 4.39193 46.841 3.87507 46.6213C3.42026 46.6213 3.17678 46.7596 2.78523 46.9846ZM57.3985 47.1057C57.2051 47.4104 57.073 47.7333 56.9368 48.0668C55.62 51.0507 53.1718 53.4079 50.1331 54.6101C50.0381 54.6462 49.9431 54.6823 49.8453 54.7194C49.7599 54.7526 49.6745 54.7858 49.5866 54.82C47.4496 55.5845 45.2186 55.5254 42.9808 55.5444C42.6518 55.5482 42.3228 55.5525 41.9938 55.5569C41.1951 55.5674 40.3965 55.5747 39.5977 55.5822C39.5977 56.9009 39.5977 58.2196 39.5977 59.5783C43.5139 59.5783 47.4301 59.5783 51.4649 59.5783C51.5049 58.7391 51.5448 57.9 51.586 57.0353C51.9638 56.4058 52.1009 56.3047 52.7213 55.9833C53.6306 55.4928 54.42 54.9026 55.2188 54.2502C55.3097 54.1781 55.4005 54.106 55.4941 54.0317C56.1867 53.4596 56.7292 52.7786 57.2774 52.0705C57.36 51.967 57.4426 51.8635 57.5276 51.7569C58.3915 50.6326 59.6406 48.8157 59.4571 47.3478C59.1664 46.9545 58.9555 46.78 58.4959 46.6137C57.9864 46.6241 57.7917 46.7841 57.3985 47.1057ZM14.4254 47.8247C13.7544 48.7916 13.8006 50.0422 13.9736 51.1713C14.2127 51.9565 14.8731 52.4491 15.5531 52.85C16.3253 53.0196 16.9976 52.9947 17.6968 52.6045C18.2053 52.2189 18.5689 51.704 18.7696 51.1018C18.8033 50.7113 18.8032 50.3204 18.8074 49.9287C18.811 49.8229 18.8145 49.7171 18.8181 49.6082C18.8253 48.8702 18.7095 48.3235 18.2852 47.7111C18.0523 47.4595 18.0523 47.4595 17.7933 47.2949C17.712 47.2376 17.6306 47.1803 17.5468 47.1213C16.4072 46.445 15.2453 46.9186 14.4254 47.8247ZM43.8611 47.5829C43.2726 48.3419 43.2029 48.9141 43.1927 49.853C43.1892 49.9587 43.1857 50.0645 43.1821 50.1734C43.1749 50.9114 43.2907 51.4581 43.7149 52.0705C43.9478 52.3221 43.9478 52.3221 44.2069 52.4868C44.2882 52.544 44.3695 52.6013 44.4533 52.6604C44.9916 52.9798 45.5296 52.9872 46.1368 52.9182C46.8741 52.6964 47.4275 52.2382 47.8321 51.5861C48.2197 50.6601 48.2474 49.3358 47.9532 48.3696C47.5632 47.6993 46.9842 47.1579 46.2579 46.8635C45.331 46.7279 44.5103 46.88 43.8611 47.5829ZM21.3126 50.3752C21.2892 50.5066 21.2657 50.6381 21.2416 50.7735C21.2098 50.9485 21.1779 51.1235 21.1461 51.2985C21.1308 51.3848 21.1155 51.4712 21.0997 51.5601C21.0841 51.6452 21.0685 51.7303 21.0524 51.8179C21.0385 51.8953 21.0245 51.9726 21.0101 52.0523C20.9318 52.3874 20.8159 52.7128 20.7071 53.0393C21.2666 53.0393 21.826 53.0393 22.4024 53.0393C22.5654 51.8129 22.5654 51.8129 22.191 50.7091C21.7794 50.4598 21.7794 50.4598 21.3126 50.3752ZM39.7779 50.7091C39.3546 51.347 39.5468 52.3064 39.5977 53.0393C40.1572 53.0393 40.7166 53.0393 41.293 53.0393C41.2381 52.8919 41.1831 52.7445 41.1265 52.5927C40.8829 51.8698 40.7866 51.1293 40.6876 50.3752C40.3288 50.3752 40.0675 50.5065 39.7779 50.7091Z" fill="white" stroke="black" stroke-width="0.8" mask="url(#path-1-inside-1_1300_397)"/>
<mask id="path-2-inside-2_1300_397" fill="white">
<path d="M35.6014 0.484313C35.6818 0.505699 35.7622 0.527084 35.845 0.549117C40.2864 1.76749 43.9729 4.89366 46.2706 8.82695C48.5258 12.8428 49.0256 17.6571 47.8564 22.0895C47.2368 24.2572 46.2322 26.3445 44.8046 28.0937C44.7476 28.1646 44.6906 28.2355 44.6319 28.3086C42.1146 31.4212 38.9373 33.2989 35.1171 34.3906C35.0298 34.4159 34.9426 34.4412 34.8528 34.4673C32.4628 35.1224 29.2629 35.0183 26.8827 34.3906C26.7223 34.3532 26.562 34.3158 26.4016 34.2785C25.334 34.0121 24.3501 33.5947 23.3558 33.1266C23.2381 33.0716 23.1204 33.0166 22.9991 32.9599C21.4247 32.1933 21.4247 32.1933 21.0702 31.4843C20.9998 30.6258 20.9998 30.6258 21.2972 30.1599C21.7184 29.7511 22.0293 29.7469 22.5962 29.7539C23.0696 29.8111 23.4015 30.0319 23.7948 30.2885C25.5855 31.3734 27.5901 31.9233 29.6679 32.0898C29.5095 31.5594 29.3441 31.0319 29.1719 30.5059C29.1144 30.3269 29.0589 30.1473 29.0054 29.9671C28.7294 28.9058 28.7294 28.9058 28.012 28.1518C27.6757 28.0676 27.3469 28.0193 27.0038 27.9726C26.6651 27.7593 26.6651 27.7593 26.4286 27.5261C26.341 27.4405 26.2535 27.355 26.1632 27.2668C26.081 27.1801 25.9987 27.0933 25.9139 27.0038C25.7999 26.8849 25.7999 26.8849 25.6836 26.7635C25.4677 26.5274 25.2653 26.2856 25.0663 26.0351C24.9999 25.9519 24.9336 25.8687 24.8653 25.783C24.1624 24.8245 23.8532 23.7145 24.0129 22.53C24.3587 21.0193 24.9206 19.633 26.2242 18.7165C27.6107 17.8687 29.3317 17.9014 30.8892 18.1952C31.7742 18.4206 32.3595 18.7599 32.9374 19.4658C33.3858 19.9518 33.714 20.0444 34.3491 20.0813C34.5386 20.0846 34.7282 20.085 34.9177 20.082C35.6753 20.0704 36.3296 20.1764 36.9363 20.6601C36.9903 20.728 37.0443 20.7959 37.1 20.8659C37.1838 20.9664 37.1838 20.9664 37.2693 21.0688C37.6435 21.6825 37.6974 22.2997 37.6965 23.003C37.697 23.0938 37.6975 23.1845 37.698 23.278C37.6987 23.4691 37.6988 23.6603 37.6983 23.8514C37.6979 24.1413 37.7007 24.4311 37.7038 24.721C37.7041 24.9077 37.7042 25.0944 37.704 25.2811C37.7051 25.3665 37.7063 25.452 37.7074 25.54C37.7018 26.1534 37.5912 26.7019 37.2968 27.246C37.1221 27.402 37.1221 27.402 36.9439 27.5611C36.343 28.1099 36.236 28.9536 36.0404 29.7133C35.9973 29.8734 35.9539 30.0335 35.9103 30.1934C35.8052 30.5828 35.7023 30.9727 35.6014 31.3632C37.8715 30.9375 39.8171 29.4417 41.4139 27.8515C41.5082 27.7589 41.6025 27.6664 41.6996 27.571C41.8888 27.3838 42.0756 27.1942 42.2616 27.0038C42.0901 26.5376 41.8719 26.1335 41.6112 25.7111C41.5317 25.5808 41.4521 25.4505 41.3702 25.3163C41.2033 25.045 41.0362 24.7738 40.8688 24.5027C39.8391 22.8135 39.8391 22.8135 39.8402 22.0948C39.9629 21.6366 40.0698 21.3297 40.3468 20.934C40.6039 20.5968 40.6039 20.5968 40.5587 20.1772C40.4323 19.6883 40.2708 19.2376 40.0819 18.7695C39.9764 18.7663 39.8709 18.7632 39.7621 18.76C38.2486 18.6879 36.9428 18.4198 35.8436 17.3163C34.9073 16.2303 34.5496 15.1482 34.5915 13.72C34.7493 12.1877 35.5068 11.126 36.6534 10.1415C38.5246 8.72527 40.6076 8.54183 42.8671 8.4765C42.6579 8.24677 42.4484 8.01722 42.2389 7.78778C42.1512 7.69143 42.1512 7.69143 42.0617 7.59313C39.2929 4.56414 35.6785 2.78562 31.5635 2.55116C30.1129 2.49967 28.6539 2.68643 27.246 3.02728C27.2187 3.28673 27.2187 3.28673 27.4365 3.47784C27.5239 3.56018 27.6114 3.64252 27.7015 3.72736C27.7971 3.81945 27.8927 3.91155 27.9912 4.00644C28.1926 4.19834 28.3947 4.38947 28.5976 4.57974C29.6272 5.57677 30.2608 6.71021 30.3036 8.1662C30.2531 9.80876 29.4665 10.9807 28.4517 12.2157C27.9366 12.8433 27.4519 13.4893 26.9735 14.1452C24.7536 17.1761 24.7536 17.1761 23.6132 17.4374C23.3308 17.4791 23.0483 17.5197 22.7655 17.5585C22.54 17.7841 22.5805 18.1707 22.546 18.4743C22.3947 19.5541 22.1487 20.2465 21.2783 20.9269C20.6767 21.3412 19.9676 21.4863 19.2438 21.4053C18.5187 21.2598 17.9805 20.9797 17.3693 20.5707C17.238 20.4857 17.238 20.4857 17.1041 20.399C16.8914 20.2609 16.6799 20.1209 16.4686 19.9804C16.621 20.8817 16.621 20.8817 16.847 21.7665C16.9678 22.2151 17.0118 22.5456 16.953 23.0078C16.7229 23.396 16.5492 23.6615 16.1129 23.819C15.6896 23.8935 15.4382 23.8805 15.0382 23.7116C14.4329 23.21 14.285 22.6727 14.0997 21.933C14.0736 21.8292 14.0474 21.7255 14.0204 21.6185C12.9241 17.1613 13.5803 12.3661 15.9506 8.42266C16.4705 7.58648 17.0339 6.79926 17.6796 6.05463C17.7653 5.95426 17.851 5.85388 17.9393 5.75047C22.2301 0.843384 29.3064 -1.25067 35.6014 0.484313ZM20.3436 6.90228C19.3087 7.95652 18.4936 9.11201 17.8007 10.414C17.7615 10.4872 17.7223 10.5603 17.682 10.6357C16.6342 12.6327 16.0134 14.9333 16.1054 17.1953C16.1948 17.2218 16.2842 17.2483 16.3764 17.2757C17.3587 17.5827 18.3342 17.9521 19.1403 18.6101C19.3944 18.8148 19.3944 18.8148 19.8593 18.7695C20.0168 18.4543 20.0026 18.1981 20.0182 17.8461C20.0859 16.9766 20.3144 16.4268 20.8734 15.7648C21.3994 15.3266 21.828 15.1459 22.5006 15.0761C23.3695 14.9174 23.7353 14.246 24.2186 13.5624C24.3822 13.3452 24.5462 13.1282 24.7106 12.9116C24.7985 12.7931 24.8863 12.6746 24.9769 12.5525C25.2465 12.1903 25.5205 11.8315 25.7952 11.4731C25.8819 11.3599 25.9686 11.2467 26.058 11.1301C26.2319 10.9032 26.406 10.6765 26.5805 10.45C26.6612 10.3446 26.7418 10.2392 26.825 10.1307C26.8973 10.0365 26.9696 9.94243 27.0442 9.84546C27.369 9.39625 27.6485 8.99513 27.7228 8.43866C27.7364 8.35421 27.7499 8.26976 27.7639 8.18275C27.6461 7.08903 26.7815 6.36654 26.0394 5.63925C25.8444 5.44771 25.6517 5.25396 25.4591 5.05986C23.7229 3.33423 21.8175 5.45482 20.3436 6.90228ZM37.5952 12.8051C37.2056 13.3651 37.1206 13.8594 37.1757 14.5312C37.4056 15.2355 37.7213 15.6305 38.3866 15.9843C38.7405 16.1023 38.978 16.122 39.3468 16.1267C39.4631 16.1296 39.5794 16.1325 39.6992 16.1354C39.9433 16.1406 40.1874 16.1444 40.4315 16.1468C40.6064 16.1518 40.6064 16.1518 40.7848 16.157C40.891 16.1587 40.9971 16.1605 41.1064 16.1623C41.5256 16.2498 41.7181 16.4082 42.0194 16.7109C42.2123 17.0748 42.2123 17.0748 42.3742 17.4966C42.4032 17.5718 42.4322 17.6471 42.462 17.7246C42.5226 17.8831 42.5821 18.042 42.6408 18.2012C42.7305 18.4431 42.8241 18.6832 42.9182 18.9234C42.9767 19.0784 43.0351 19.2335 43.0932 19.3887C43.1458 19.5283 43.1983 19.6679 43.2525 19.8117C43.3863 20.3676 43.357 20.8371 43.0818 21.3437C42.9684 21.4951 42.8549 21.6465 42.7412 21.7978C42.5741 22.1442 42.6193 22.2799 42.746 22.6445C42.9339 22.9909 43.1444 23.3207 43.359 23.6511C43.4162 23.7407 43.4734 23.8304 43.5324 23.9228C43.6731 24.1431 43.8149 24.3626 43.9569 24.582C45.7754 22.375 46.0986 18.6815 45.8708 15.9428C45.705 14.3199 45.295 12.6059 44.5624 11.1406C44.0394 11.1284 43.5164 11.1197 42.9933 11.114C42.8161 11.1115 42.6389 11.1083 42.4617 11.104C40.6131 11.0609 38.8813 11.3423 37.5952 12.8051ZM27.307 21.1422C26.8461 21.8096 26.4671 22.694 26.5445 23.5163C26.7332 24.1359 27.1479 24.5325 27.6168 24.9623C27.8514 25.1874 27.8514 25.1874 28.0236 25.4514C28.3385 25.8145 28.7276 25.767 29.1854 25.8071C29.7659 25.9788 30.2079 26.3328 30.5235 26.8536C30.6308 27.0922 30.719 27.3314 30.8031 27.579C30.8364 27.6702 30.8696 27.7614 30.9039 27.8553C31.0198 28.1759 31.1311 28.4979 31.2421 28.8203C31.3392 29.0984 31.4363 29.3765 31.5335 29.6547C31.769 30.3311 32.0014 31.0085 32.2316 31.6868C32.3247 31.9666 32.3247 31.9666 32.453 32.2109C32.5329 32.2109 32.6129 32.2109 32.6952 32.2109C32.713 32.1448 32.7309 32.0786 32.7493 32.0105C32.9367 31.3181 33.1279 30.6267 33.3212 29.9359C33.3927 29.6785 33.4633 29.4208 33.5329 29.1629C33.6335 28.7906 33.7375 28.4194 33.8423 28.0483C33.8723 27.9341 33.9024 27.8199 33.9334 27.7022C34.1421 26.9785 34.4203 26.5546 34.9377 26.0121C35.2055 25.6848 35.2144 25.4246 35.1998 25.0096C35.1971 24.8707 35.1944 24.7317 35.1916 24.5886C35.1809 24.3755 35.1809 24.3755 35.17 24.1581C35.1643 23.9394 35.1643 23.9394 35.1585 23.7163C35.1485 23.3587 35.1346 23.0018 35.1171 22.6445C34.9622 22.6413 34.8074 22.6382 34.6478 22.635C34.441 22.6282 34.2341 22.6212 34.0272 22.6142C33.9256 22.6125 33.824 22.6108 33.7193 22.609C32.8626 22.5758 32.1915 22.3891 31.5793 21.7661C31.5105 21.6738 31.4417 21.5816 31.3707 21.4865C30.8082 20.8212 30.3112 20.6374 29.4578 20.5532C28.6805 20.5243 27.8697 20.5427 27.307 21.1422Z"/>
</mask>
<path d="M35.6014 0.484313C35.6818 0.505699 35.7622 0.527084 35.845 0.549117C40.2864 1.76749 43.9729 4.89366 46.2706 8.82695C48.5258 12.8428 49.0256 17.6571 47.8564 22.0895C47.2368 24.2572 46.2322 26.3445 44.8046 28.0937C44.7476 28.1646 44.6906 28.2355 44.6319 28.3086C42.1146 31.4212 38.9373 33.2989 35.1171 34.3906C35.0298 34.4159 34.9426 34.4412 34.8528 34.4673C32.4628 35.1224 29.2629 35.0183 26.8827 34.3906C26.7223 34.3532 26.562 34.3158 26.4016 34.2785C25.334 34.0121 24.3501 33.5947 23.3558 33.1266C23.2381 33.0716 23.1204 33.0166 22.9991 32.9599C21.4247 32.1933 21.4247 32.1933 21.0702 31.4843C20.9998 30.6258 20.9998 30.6258 21.2972 30.1599C21.7184 29.7511 22.0293 29.7469 22.5962 29.7539C23.0696 29.8111 23.4015 30.0319 23.7948 30.2885C25.5855 31.3734 27.5901 31.9233 29.6679 32.0898C29.5095 31.5594 29.3441 31.0319 29.1719 30.5059C29.1144 30.3269 29.0589 30.1473 29.0054 29.9671C28.7294 28.9058 28.7294 28.9058 28.012 28.1518C27.6757 28.0676 27.3469 28.0193 27.0038 27.9726C26.6651 27.7593 26.6651 27.7593 26.4286 27.5261C26.341 27.4405 26.2535 27.355 26.1632 27.2668C26.081 27.1801 25.9987 27.0933 25.9139 27.0038C25.7999 26.8849 25.7999 26.8849 25.6836 26.7635C25.4677 26.5274 25.2653 26.2856 25.0663 26.0351C24.9999 25.9519 24.9336 25.8687 24.8653 25.783C24.1624 24.8245 23.8532 23.7145 24.0129 22.53C24.3587 21.0193 24.9206 19.633 26.2242 18.7165C27.6107 17.8687 29.3317 17.9014 30.8892 18.1952C31.7742 18.4206 32.3595 18.7599 32.9374 19.4658C33.3858 19.9518 33.714 20.0444 34.3491 20.0813C34.5386 20.0846 34.7282 20.085 34.9177 20.082C35.6753 20.0704 36.3296 20.1764 36.9363 20.6601C36.9903 20.728 37.0443 20.7959 37.1 20.8659C37.1838 20.9664 37.1838 20.9664 37.2693 21.0688C37.6435 21.6825 37.6974 22.2997 37.6965 23.003C37.697 23.0938 37.6975 23.1845 37.698 23.278C37.6987 23.4691 37.6988 23.6603 37.6983 23.8514C37.6979 24.1413 37.7007 24.4311 37.7038 24.721C37.7041 24.9077 37.7042 25.0944 37.704 25.2811C37.7051 25.3665 37.7063 25.452 37.7074 25.54C37.7018 26.1534 37.5912 26.7019 37.2968 27.246C37.1221 27.402 37.1221 27.402 36.9439 27.5611C36.343 28.1099 36.236 28.9536 36.0404 29.7133C35.9973 29.8734 35.9539 30.0335 35.9103 30.1934C35.8052 30.5828 35.7023 30.9727 35.6014 31.3632C37.8715 30.9375 39.8171 29.4417 41.4139 27.8515C41.5082 27.7589 41.6025 27.6664 41.6996 27.571C41.8888 27.3838 42.0756 27.1942 42.2616 27.0038C42.0901 26.5376 41.8719 26.1335 41.6112 25.7111C41.5317 25.5808 41.4521 25.4505 41.3702 25.3163C41.2033 25.045 41.0362 24.7738 40.8688 24.5027C39.8391 22.8135 39.8391 22.8135 39.8402 22.0948C39.9629 21.6366 40.0698 21.3297 40.3468 20.934C40.6039 20.5968 40.6039 20.5968 40.5587 20.1772C40.4323 19.6883 40.2708 19.2376 40.0819 18.7695C39.9764 18.7663 39.8709 18.7632 39.7621 18.76C38.2486 18.6879 36.9428 18.4198 35.8436 17.3163C34.9073 16.2303 34.5496 15.1482 34.5915 13.72C34.7493 12.1877 35.5068 11.126 36.6534 10.1415C38.5246 8.72527 40.6076 8.54183 42.8671 8.4765C42.6579 8.24677 42.4484 8.01722 42.2389 7.78778C42.1512 7.69143 42.1512 7.69143 42.0617 7.59313C39.2929 4.56414 35.6785 2.78562 31.5635 2.55116C30.1129 2.49967 28.6539 2.68643 27.246 3.02728C27.2187 3.28673 27.2187 3.28673 27.4365 3.47784C27.5239 3.56018 27.6114 3.64252 27.7015 3.72736C27.7971 3.81945 27.8927 3.91155 27.9912 4.00644C28.1926 4.19834 28.3947 4.38947 28.5976 4.57974C29.6272 5.57677 30.2608 6.71021 30.3036 8.1662C30.2531 9.80876 29.4665 10.9807 28.4517 12.2157C27.9366 12.8433 27.4519 13.4893 26.9735 14.1452C24.7536 17.1761 24.7536 17.1761 23.6132 17.4374C23.3308 17.4791 23.0483 17.5197 22.7655 17.5585C22.54 17.7841 22.5805 18.1707 22.546 18.4743C22.3947 19.5541 22.1487 20.2465 21.2783 20.9269C20.6767 21.3412 19.9676 21.4863 19.2438 21.4053C18.5187 21.2598 17.9805 20.9797 17.3693 20.5707C17.238 20.4857 17.238 20.4857 17.1041 20.399C16.8914 20.2609 16.6799 20.1209 16.4686 19.9804C16.621 20.8817 16.621 20.8817 16.847 21.7665C16.9678 22.2151 17.0118 22.5456 16.953 23.0078C16.7229 23.396 16.5492 23.6615 16.1129 23.819C15.6896 23.8935 15.4382 23.8805 15.0382 23.7116C14.4329 23.21 14.285 22.6727 14.0997 21.933C14.0736 21.8292 14.0474 21.7255 14.0204 21.6185C12.9241 17.1613 13.5803 12.3661 15.9506 8.42266C16.4705 7.58648 17.0339 6.79926 17.6796 6.05463C17.7653 5.95426 17.851 5.85388 17.9393 5.75047C22.2301 0.843384 29.3064 -1.25067 35.6014 0.484313ZM20.3436 6.90228C19.3087 7.95652 18.4936 9.11201 17.8007 10.414C17.7615 10.4872 17.7223 10.5603 17.682 10.6357C16.6342 12.6327 16.0134 14.9333 16.1054 17.1953C16.1948 17.2218 16.2842 17.2483 16.3764 17.2757C17.3587 17.5827 18.3342 17.9521 19.1403 18.6101C19.3944 18.8148 19.3944 18.8148 19.8593 18.7695C20.0168 18.4543 20.0026 18.1981 20.0182 17.8461C20.0859 16.9766 20.3144 16.4268 20.8734 15.7648C21.3994 15.3266 21.828 15.1459 22.5006 15.0761C23.3695 14.9174 23.7353 14.246 24.2186 13.5624C24.3822 13.3452 24.5462 13.1282 24.7106 12.9116C24.7985 12.7931 24.8863 12.6746 24.9769 12.5525C25.2465 12.1903 25.5205 11.8315 25.7952 11.4731C25.8819 11.3599 25.9686 11.2467 26.058 11.1301C26.2319 10.9032 26.406 10.6765 26.5805 10.45C26.6612 10.3446 26.7418 10.2392 26.825 10.1307C26.8973 10.0365 26.9696 9.94243 27.0442 9.84546C27.369 9.39625 27.6485 8.99513 27.7228 8.43866C27.7364 8.35421 27.7499 8.26976 27.7639 8.18275C27.6461 7.08903 26.7815 6.36654 26.0394 5.63925C25.8444 5.44771 25.6517 5.25396 25.4591 5.05986C23.7229 3.33423 21.8175 5.45482 20.3436 6.90228ZM37.5952 12.8051C37.2056 13.3651 37.1206 13.8594 37.1757 14.5312C37.4056 15.2355 37.7213 15.6305 38.3866 15.9843C38.7405 16.1023 38.978 16.122 39.3468 16.1267C39.4631 16.1296 39.5794 16.1325 39.6992 16.1354C39.9433 16.1406 40.1874 16.1444 40.4315 16.1468C40.6064 16.1518 40.6064 16.1518 40.7848 16.157C40.891 16.1587 40.9971 16.1605 41.1064 16.1623C41.5256 16.2498 41.7181 16.4082 42.0194 16.7109C42.2123 17.0748 42.2123 17.0748 42.3742 17.4966C42.4032 17.5718 42.4322 17.6471 42.462 17.7246C42.5226 17.8831 42.5821 18.042 42.6408 18.2012C42.7305 18.4431 42.8241 18.6832 42.9182 18.9234C42.9767 19.0784 43.0351 19.2335 43.0932 19.3887C43.1458 19.5283 43.1983 19.6679 43.2525 19.8117C43.3863 20.3676 43.357 20.8371 43.0818 21.3437C42.9684 21.4951 42.8549 21.6465 42.7412 21.7978C42.5741 22.1442 42.6193 22.2799 42.746 22.6445C42.9339 22.9909 43.1444 23.3207 43.359 23.6511C43.4162 23.7407 43.4734 23.8304 43.5324 23.9228C43.6731 24.1431 43.8149 24.3626 43.9569 24.582C45.7754 22.375 46.0986 18.6815 45.8708 15.9428C45.705 14.3199 45.295 12.6059 44.5624 11.1406C44.0394 11.1284 43.5164 11.1197 42.9933 11.114C42.8161 11.1115 42.6389 11.1083 42.4617 11.104C40.6131 11.0609 38.8813 11.3423 37.5952 12.8051ZM27.307 21.1422C26.8461 21.8096 26.4671 22.694 26.5445 23.5163C26.7332 24.1359 27.1479 24.5325 27.6168 24.9623C27.8514 25.1874 27.8514 25.1874 28.0236 25.4514C28.3385 25.8145 28.7276 25.767 29.1854 25.8071C29.7659 25.9788 30.2079 26.3328 30.5235 26.8536C30.6308 27.0922 30.719 27.3314 30.8031 27.579C30.8364 27.6702 30.8696 27.7614 30.9039 27.8553C31.0198 28.1759 31.1311 28.4979 31.2421 28.8203C31.3392 29.0984 31.4363 29.3765 31.5335 29.6547C31.769 30.3311 32.0014 31.0085 32.2316 31.6868C32.3247 31.9666 32.3247 31.9666 32.453 32.2109C32.5329 32.2109 32.6129 32.2109 32.6952 32.2109C32.713 32.1448 32.7309 32.0786 32.7493 32.0105C32.9367 31.3181 33.1279 30.6267 33.3212 29.9359C33.3927 29.6785 33.4633 29.4208 33.5329 29.1629C33.6335 28.7906 33.7375 28.4194 33.8423 28.0483C33.8723 27.9341 33.9024 27.8199 33.9334 27.7022C34.1421 26.9785 34.4203 26.5546 34.9377 26.0121C35.2055 25.6848 35.2144 25.4246 35.1998 25.0096C35.1971 24.8707 35.1944 24.7317 35.1916 24.5886C35.1809 24.3755 35.1809 24.3755 35.17 24.1581C35.1643 23.9394 35.1643 23.9394 35.1585 23.7163C35.1485 23.3587 35.1346 23.0018 35.1171 22.6445C34.9622 22.6413 34.8074 22.6382 34.6478 22.635C34.441 22.6282 34.2341 22.6212 34.0272 22.6142C33.9256 22.6125 33.824 22.6108 33.7193 22.609C32.8626 22.5758 32.1915 22.3891 31.5793 21.7661C31.5105 21.6738 31.4417 21.5816 31.3707 21.4865C30.8082 20.8212 30.3112 20.6374 29.4578 20.5532C28.6805 20.5243 27.8697 20.5427 27.307 21.1422Z" fill="white" stroke="black" stroke-width="0.8" mask="url(#path-2-inside-2_1300_397)"/>
<path d="M18.3506 26.2788C18.5106 26.2965 18.675 26.3502 18.915 26.4536C19.0608 26.5471 19.1117 26.5809 19.1523 26.6216C19.1905 26.6598 19.2231 26.7066 19.3047 26.8335C19.3492 27.0894 19.3639 27.2961 19.3379 27.4888C19.3119 27.6808 19.2442 27.8694 19.1133 28.0845C18.9289 28.2541 18.7765 28.3354 18.6152 28.3765C18.4417 28.4206 18.2472 28.422 17.9658 28.4185C17.8376 28.3988 17.8004 28.3914 17.7539 28.3696C17.6978 28.3433 17.629 28.2974 17.4619 28.1792C17.3384 27.9998 17.2657 27.8753 17.2207 27.7485C17.1762 27.6231 17.1549 27.4837 17.1533 27.271C17.2255 27.008 17.2837 26.846 17.3701 26.7144C17.4535 26.5874 17.5729 26.4756 17.791 26.3345C18.0314 26.2765 18.1961 26.2618 18.3506 26.2788Z" fill="white" stroke="black" stroke-width="0.4"/>
</g>
<defs>
<clipPath id="clip0_1300_397">
<rect width="62" height="62" fill="white"/>
</clipPath>
</defs>
</svg>
