<svg width="68" height="68" viewBox="0 0 68 68" fill="none" xmlns="http://www.w3.org/2000/svg">
<path d="M33.9254 2.73937C34.0305 2.73949 34.1356 2.7396 34.2439 2.73972C38.5497 2.7554 42.6941 3.99882 46.2188 6.50792C46.2935 6.56108 46.3682 6.61424 46.4452 6.66901C50.9592 9.93649 54.0005 14.8218 54.9513 20.3121C55.829 25.8354 54.6355 31.5459 51.3824 36.123C50.6054 37.1842 49.7685 38.1793 48.817 39.0885C47.0985 40.7911 45.966 42.8991 45.1563 45.1564C45.122 45.2504 45.0877 45.3445 45.0523 45.4414C44.4032 47.2586 44.2501 48.8992 44.2713 50.818C44.2711 51.0961 44.2705 51.3743 44.2696 51.6524C44.2678 52.3752 44.2703 53.0979 44.2741 53.8206C44.2802 54.985 44.2822 56.1493 44.2795 57.3136C44.2796 57.7188 44.283 58.1239 44.2866 58.5291C44.2867 58.7756 44.2867 59.022 44.2865 59.2685C44.2894 59.4371 44.2894 59.4371 44.2923 59.609C44.2872 60.3625 44.2872 60.3625 43.9841 60.6992C43.5781 60.8807 43.2413 60.8664 42.7989 60.8531C42.6435 60.8495 42.488 60.846 42.3278 60.8422C42.1501 60.8353 42.1501 60.8353 41.9688 60.8282C41.9516 60.9374 41.9516 60.9374 41.9341 61.0487C41.4045 64.0367 41.4045 64.0367 40.2246 64.9319C39.6736 65.257 39.1402 65.2315 38.5215 65.2325C38.4139 65.2331 38.3063 65.2338 38.1955 65.2344C37.8393 65.2364 37.4831 65.2373 37.1269 65.238C36.8792 65.2388 36.6316 65.2396 36.3839 65.2403C35.8644 65.2417 35.345 65.2425 34.8255 65.243C34.1605 65.2437 33.4955 65.2469 32.8305 65.2507C32.3188 65.2531 31.8072 65.2538 31.2955 65.254C31.0503 65.2544 30.8052 65.2555 30.5601 65.2572C30.2168 65.2595 29.8735 65.2593 29.5302 65.2584C29.4294 65.2596 29.3286 65.2608 29.2247 65.2621C28.4869 65.2563 27.9596 65.0877 27.3887 64.6182C26.8289 63.978 26.5979 63.3361 26.38 62.5216C26.3456 62.4024 26.3111 62.2833 26.2757 62.1605C26.0313 61.2969 26.0313 61.2969 26.0313 60.8282C25.9017 60.8329 25.7721 60.8375 25.6386 60.8422C25.4696 60.8458 25.3006 60.8494 25.1265 60.8531C24.9586 60.8578 24.7906 60.8624 24.6176 60.8671C24.172 60.8282 24.172 60.8282 23.9477 60.6581C23.643 60.2588 23.7249 59.7634 23.733 59.2811C23.7335 59.1048 23.7335 59.1048 23.734 58.9249C23.735 58.6688 23.7367 58.4127 23.7393 58.1566C23.743 57.7477 23.7436 57.339 23.7433 56.9302C23.7429 55.7674 23.7458 54.6046 23.7557 53.4419C23.8272 48.7932 23.8272 48.7932 22.5782 44.3595C22.4863 44.1368 22.3944 43.914 22.3028 43.6911C21.4601 41.6668 20.0943 40.0819 18.5938 38.5157C14.8298 34.5643 12.8183 29.4261 12.8331 23.9811C12.8332 23.876 12.8333 23.7708 12.8334 23.6626C12.8491 19.3568 14.0925 15.2124 16.6016 11.6876C16.6814 11.5755 16.6814 11.5755 16.7627 11.4612C20.1178 6.82626 25.0621 3.88866 30.6767 2.90746C31.7586 2.7486 32.834 2.73641 33.9254 2.73937ZM19.9847 10.6905C16.0915 14.8642 14.7052 20.0296 14.8513 25.6207C14.8912 26.7223 15.0981 27.7649 15.4063 28.8204C15.4348 28.9215 15.4633 29.0226 15.4926 29.1268C16.3305 32.0417 17.8106 34.7425 19.922 36.922C20.1535 37.1826 20.3809 37.4464 20.6083 37.7106C20.7866 37.9113 20.9704 38.1071 21.1572 38.2999C23.3061 40.5457 24.4098 43.2933 25.2816 46.2328C25.346 46.4828 25.346 46.4828 25.5001 46.6173C25.7202 46.6301 25.9409 46.6335 26.1614 46.6333C26.3763 46.6335 26.3763 46.6335 26.5954 46.6338C26.7539 46.6333 26.9124 46.6329 27.0757 46.6324C27.2415 46.6324 27.4074 46.6324 27.5782 46.6324C28.0343 46.6324 28.4903 46.6317 28.9463 46.6308C29.4224 46.6299 29.8986 46.6299 30.3747 46.6297C31.2768 46.6293 32.179 46.6282 33.0812 46.6269C34.108 46.6254 35.1348 46.6246 36.1616 46.624C38.2745 46.6226 40.3873 46.6203 42.5001 46.6173C42.7219 46.1044 42.9383 45.6016 43.0988 45.0661C44.035 42.0446 45.4776 39.739 47.6647 37.4501C51.6651 33.238 53.2614 28.2164 53.1566 22.465C53.1243 21.2641 52.9274 20.143 52.5938 18.9923C52.5511 18.8404 52.5511 18.8404 52.5076 18.6854C51.6681 15.7654 50.1854 13.0791 48.0782 10.8907C47.9468 10.7313 47.8166 10.571 47.6881 10.4093C47.1469 9.77241 46.4781 9.2758 45.8204 8.76574C45.7067 8.67654 45.593 8.58734 45.4759 8.49544C37.5836 2.51681 26.8471 3.92356 19.9847 10.6905ZM25.7657 48.6095C25.7657 49.3107 25.7657 50.012 25.7657 50.7345C31.2004 50.7345 36.6351 50.7345 42.2345 50.7345C42.2345 50.0332 42.2345 49.332 42.2345 48.6095C36.7998 48.6095 31.3651 48.6095 25.7657 48.6095ZM25.7657 52.7267C25.7657 53.4279 25.7657 54.1292 25.7657 54.8517C31.2004 54.8517 36.6351 54.8517 42.2345 54.8517C42.2345 54.1504 42.2345 53.4492 42.2345 52.7267C36.7998 52.7267 31.3651 52.7267 25.7657 52.7267ZM25.7657 56.8439C25.7657 57.5013 25.7657 58.1587 25.7657 58.8361C31.2004 58.8361 36.6351 58.8361 42.2345 58.8361C42.2345 58.1786 42.2345 57.5212 42.2345 56.8439C36.7998 56.8439 31.3651 56.8439 25.7657 56.8439ZM28.1563 60.8282C28.2481 61.4705 28.3269 61.9469 28.5382 62.5382C28.5817 62.6639 28.6251 62.7895 28.6699 62.919C28.7987 63.2637 28.7987 63.2637 29.2188 63.3517C29.5242 63.3643 29.8299 63.3687 30.1355 63.3689C30.2746 63.3692 30.2746 63.3692 30.4164 63.3696C30.7228 63.3702 31.0292 63.3698 31.3355 63.3693C31.5484 63.3694 31.7613 63.3695 31.9741 63.3697C32.4203 63.3699 32.8664 63.3696 33.3125 63.369C33.8847 63.3682 34.4568 63.3687 35.0289 63.3695C35.4684 63.3699 35.908 63.3698 36.3476 63.3694C36.5585 63.3694 36.7695 63.3695 36.9804 63.3698C37.2752 63.3701 37.5699 63.3696 37.8646 63.3689C38.1163 63.3687 38.1163 63.3687 38.3731 63.3685C38.7867 63.3703 38.7867 63.3703 39.1798 63.2189C39.3421 62.9118 39.3421 62.9118 39.462 62.5382C39.5062 62.4146 39.5503 62.291 39.5958 62.1636C39.7438 61.6769 39.7438 61.6769 39.8438 60.8282C35.987 60.8282 32.1301 60.8282 28.1563 60.8282Z" fill="white"/>
<path d="M32.8046 10.2265C33.1816 10.5156 33.5304 10.8213 33.8671 11.1562C34.2546 10.977 34.5657 10.769 34.8964 10.5004C36.0948 9.60764 37.3316 9.54642 38.7812 9.69525C39.9203 9.93047 40.8583 10.6456 41.5173 11.5956C41.7761 12.0443 41.9551 12.4125 42.0517 12.9243C42.2851 13.3804 42.439 13.3866 42.915 13.5468C43.046 13.5884 43.1769 13.63 43.3119 13.6729C44.426 14.0784 45.2868 15.0163 45.8535 16.037C46.3773 17.1746 46.3934 18.3029 46.2187 19.5234C46.2968 19.555 46.3748 19.5867 46.4553 19.6194C47.2866 20.0979 47.8329 21.2429 48.1227 22.1298C48.4439 23.7623 48.3866 25.4958 47.5468 26.9609C47.225 27.4353 46.8949 27.8875 46.4843 28.289C46.3967 28.289 46.309 28.289 46.2187 28.289C46.24 28.4148 46.24 28.4148 46.2618 28.5432C46.4501 29.949 46.2659 31.3798 45.3943 32.5354C44.6102 33.422 43.6975 34.2626 42.4807 34.4399C42.2077 34.5098 42.2077 34.5098 42.0942 34.7973C42.0583 34.9095 42.0223 35.0216 41.9853 35.1371C41.4881 36.4879 40.6342 37.2875 39.3871 37.9677C38.2099 38.357 36.6021 38.298 35.4822 37.7659C34.9813 37.4517 34.5511 37.0722 34.1328 36.6562C33.7453 36.8353 33.4342 37.0434 33.1035 37.3119C31.9051 38.2047 30.6683 38.266 29.2187 38.1171C28.0796 37.8819 27.1416 37.1668 26.4825 36.2168C26.2238 35.7681 26.0447 35.3999 25.9482 34.8881C25.7148 34.432 25.5609 34.4258 25.0849 34.2656C24.9539 34.224 24.823 34.1824 24.688 34.1395C23.5739 33.7339 22.7131 32.7961 22.1464 31.7753C21.6226 30.6378 21.6065 29.5095 21.7812 28.289C21.7031 28.2573 21.6251 28.2257 21.5446 28.193C20.7133 27.7144 20.167 26.5695 19.8772 25.6826C19.556 24.05 19.6133 22.3166 20.4531 20.8515C20.7749 20.3771 21.105 19.9249 21.5156 19.5234C21.6032 19.5234 21.6909 19.5234 21.7812 19.5234C21.7685 19.4349 21.7559 19.3463 21.7428 19.2552C21.5518 17.6676 21.813 16.2692 22.8017 14.9823C23.4989 14.2184 24.4948 13.5377 25.5321 13.3642C25.7936 13.3009 25.7936 13.3009 25.9056 13.015C25.9416 12.9029 25.9775 12.7908 26.0146 12.6752C26.5117 11.3244 27.3657 10.5249 28.6127 9.84466C29.8943 9.42085 31.6546 9.50486 32.8046 10.2265ZM28.6708 12.1979C27.9902 12.958 27.7327 13.5769 27.5798 14.5771C27.4921 14.8749 27.4921 14.8749 27.0937 15.1406C26.8679 15.1805 26.6407 15.2129 26.413 15.2402C25.4986 15.3986 24.7908 15.7382 24.2206 16.4884C23.8554 17.0999 23.7235 17.6167 23.6406 18.3281C23.7863 18.3043 23.932 18.2805 24.0821 18.2559C24.2752 18.2273 24.4684 18.1988 24.6616 18.1703C24.8052 18.1463 24.8052 18.1463 24.9518 18.1218C25.4219 18.0553 25.7197 18.0422 26.1583 18.2352C26.4296 18.4609 26.4296 18.4609 26.5624 18.7763C26.5624 19.2392 26.4499 19.4263 26.164 19.789C25.7557 19.9223 25.7557 19.9223 25.2758 19.9965C23.8368 20.2672 23.053 20.7113 22.1796 21.914C21.6357 22.7854 21.6759 23.8441 21.7812 24.8359C21.9592 25.4341 22.2335 25.9128 22.5781 26.4296C22.6657 26.4296 22.7534 26.4296 22.8437 26.4296C22.9177 26.331 22.9916 26.2324 23.0678 26.1308C23.4583 25.6665 23.7496 25.4831 24.3046 25.2343C24.7446 25.2426 24.7446 25.2426 25.1015 25.3671C25.413 25.8344 25.4441 26.0123 25.3671 26.5624C25.0849 26.8779 25.0849 26.8779 24.7031 27.2265C23.9984 27.9777 23.6598 28.709 23.6406 29.7499C23.7787 30.5736 24.1426 31.3706 24.7799 31.9242C25.464 32.4086 26.1759 32.5559 26.993 32.7019C27.3593 32.8046 27.3593 32.8046 27.6249 33.2031C27.6708 33.4147 27.7089 33.6281 27.7412 33.8422C27.9044 34.7063 28.2803 35.3085 28.9858 35.8531C29.5515 36.1908 30.1117 36.3054 30.7626 36.2028C31.5069 36.0012 32.1322 35.7633 32.5587 35.0858C32.984 34.294 33.0866 33.5513 33.088 32.6548C33.0886 32.4946 33.0891 32.3343 33.0897 32.1691C33.0897 31.995 33.0896 31.8209 33.0895 31.6416C33.0899 31.455 33.0904 31.2684 33.0909 31.0818C33.0921 30.5763 33.0924 30.0708 33.0925 29.5654C33.0926 29.2491 33.0928 28.9329 33.0932 28.6166C33.0944 27.5121 33.095 26.4076 33.0949 25.3032C33.0948 24.2756 33.0962 23.2481 33.0983 22.2206C33.1 21.3367 33.1007 20.4529 33.1006 19.569C33.1006 19.0419 33.101 18.5147 33.1024 17.9876C33.1037 17.4915 33.1037 16.9954 33.1027 16.4992C33.1025 16.2319 33.1036 15.9646 33.1048 15.6973C33.1003 14.4119 33.09 13.1831 32.1406 12.2187C31.1025 11.4036 29.6941 11.3101 28.6708 12.1979ZM35.7981 12.2877C35.0909 12.968 34.9472 13.7869 34.9175 14.7297C34.9113 15.2151 34.9102 15.7004 34.9103 16.1859C34.9099 16.3725 34.9095 16.5591 34.909 16.7457C34.9078 17.2506 34.9075 17.7556 34.9074 18.2605C34.9073 18.5764 34.907 18.8924 34.9067 19.2083C34.9055 20.312 34.9049 21.4156 34.905 22.5192C34.9051 23.5458 34.9037 24.5723 34.9016 25.5989C34.8999 26.4822 34.8992 27.3655 34.8992 28.2488C34.8993 28.7755 34.8989 29.3022 34.8975 29.8288C34.8962 30.3244 34.8962 30.82 34.8972 31.3156C34.8974 31.5826 34.8963 31.8496 34.8951 32.1166C34.8995 33.4014 34.9103 34.6296 35.8593 35.5937C36.4236 36.0367 37.0014 36.2456 37.7187 36.2577C38.6594 36.1271 39.2025 35.8049 39.7939 35.0671C40.1983 34.4685 40.3119 33.9432 40.4201 33.2352C40.5078 32.9374 40.5078 32.9374 40.9062 32.6718C41.1346 32.6286 41.3646 32.5935 41.5952 32.5639C42.4805 32.4086 43.1016 32.1582 43.6672 31.4407C44.1866 30.6395 44.4635 29.9735 44.3043 29.0231C44.0641 28.0635 43.5958 27.4573 42.8486 26.8281C42.6328 26.5624 42.6328 26.5624 42.5663 26.0893C42.6328 25.6327 42.6328 25.6327 42.8403 25.3671C43.3237 25.1688 43.5925 25.2227 44.0937 25.3671C44.5197 25.6573 44.9231 25.9634 45.1562 26.4296C45.5601 26.341 45.5601 26.341 45.7051 26.0654C45.7486 25.972 45.7921 25.8785 45.8369 25.7822C45.881 25.6894 45.9252 25.5966 45.9707 25.501C46.3537 24.6142 46.3621 23.5604 46.1326 22.6258C45.724 21.627 45.0148 20.7422 44.0211 20.2922C43.4427 20.1062 42.8436 20.015 42.2442 19.9223C41.8359 19.789 41.8359 19.789 41.5775 19.4705C41.4374 19.1249 41.4374 19.1249 41.4955 18.7016C41.7031 18.3281 41.7031 18.3281 42.0533 18.1646C42.576 18.045 42.9523 18.0891 43.4794 18.1786C43.6448 18.2057 43.8102 18.2327 43.9806 18.2606C44.1056 18.2829 44.2306 18.3051 44.3593 18.3281C44.2098 17.3638 43.9489 16.544 43.2107 15.8705C42.5359 15.3936 41.811 15.2541 41.0068 15.1105C40.6406 15.0077 40.6406 15.0077 40.3749 14.6093C40.329 14.3977 40.291 14.1843 40.2587 13.9702C40.0953 13.1052 39.7187 12.5063 39.0152 11.9588C37.9188 11.3097 36.7661 11.5341 35.7981 12.2877Z" fill="white"/>
<path d="M11.1567 31.4767C11.497 31.7589 11.497 31.7589 11.6879 32.1407C11.6962 32.5475 11.6962 32.5475 11.5551 32.9376C11.0351 33.4375 10.4832 33.6601 9.81766 33.8984C9.71499 33.936 9.61232 33.9736 9.50655 34.0123C9.29012 34.091 9.07344 34.1691 8.85655 34.2466C8.52697 34.3648 8.19867 34.486 7.87034 34.6076C7.659 34.6841 7.44759 34.7603 7.23611 34.8364C7.1391 34.8725 7.04208 34.9086 6.94212 34.9458C6.28438 35.1769 5.745 35.2419 5.0473 35.1954C4.67864 34.9814 4.65511 34.8196 4.54095 34.4068C4.51324 33.9542 4.51462 33.828 4.78167 33.4689C5.12651 33.3004 5.45133 33.1651 5.81097 33.0372C5.9153 32.9987 6.01963 32.9602 6.12711 32.9205C6.35388 32.8369 6.58093 32.7542 6.80823 32.6722C7.18829 32.5333 7.56576 32.3887 7.94323 32.2429C8.20086 32.1451 8.45853 32.0474 8.71625 31.9498C8.83724 31.9028 8.95824 31.8557 9.08291 31.8073C9.80675 31.5385 10.3834 31.3984 11.1567 31.4767Z" fill="white"/>
<path d="M6.68723 12.7816C6.89328 12.8559 7.09866 12.9321 7.3034 13.01C7.46776 13.0705 7.46776 13.0705 7.63543 13.1322C7.86532 13.2172 8.09489 13.3031 8.32417 13.3898C8.67513 13.5222 9.02713 13.6516 9.37937 13.7807C9.6033 13.8639 9.82716 13.9473 10.051 14.031C10.2085 14.0889 10.2085 14.0889 10.3692 14.148C10.4667 14.1852 10.5643 14.2224 10.6649 14.2607C10.7932 14.3089 10.7932 14.3089 10.9242 14.3581C11.3565 14.5786 11.5294 14.7966 11.6795 15.2569C11.6878 15.6719 11.6878 15.6719 11.4968 16.0538C11.1047 16.3789 10.8907 16.3842 10.3925 16.37C9.86626 16.3101 9.39307 16.1307 8.90026 15.9433C8.79069 15.9029 8.68112 15.8626 8.56822 15.8211C8.33834 15.736 8.10876 15.6501 7.87949 15.5635C7.52852 15.431 7.17653 15.3016 6.82429 15.1726C6.60036 15.0893 6.37649 15.0059 6.1527 14.9223C6.0477 14.8837 5.94269 14.845 5.83451 14.8053C5.73692 14.7681 5.63934 14.7309 5.5388 14.6925C5.41045 14.6443 5.41045 14.6443 5.2795 14.5951C5.00884 14.4571 4.84307 14.3112 4.6487 14.0782C4.53168 13.6551 4.47708 13.3918 4.6238 12.9742C5.07392 12.3345 6.04329 12.5723 6.68723 12.7816Z" fill="white"/>
<path d="M58.1934 31.5467C58.4993 31.6461 58.7994 31.7551 59.1 31.8694C59.2644 31.9299 59.2644 31.9299 59.432 31.9916C59.6619 32.0767 59.8915 32.1625 60.1208 32.2492C60.4717 32.3817 60.8237 32.5111 61.176 32.6401C61.3999 32.7234 61.6238 32.8068 61.8476 32.8904C62.0051 32.9483 62.0051 32.9483 62.1658 33.0074C62.2633 33.0446 62.3609 33.0818 62.4615 33.1201C62.5898 33.1684 62.5898 33.1684 62.7208 33.2176C62.9914 33.3556 63.1572 33.5014 63.3516 33.7345C63.4686 34.1576 63.5232 34.4209 63.3765 34.8385C63.2187 35.0626 63.2187 35.0626 62.9531 35.1954C62.1131 35.2527 61.4845 35.1047 60.7015 34.812C60.5923 34.7723 60.483 34.7327 60.3705 34.6918C60.1411 34.6079 59.9121 34.5231 59.6834 34.4375C59.3341 34.3073 58.9835 34.1812 58.6326 34.0554C58.409 33.973 58.1856 33.8905 57.9623 33.8076C57.858 33.7704 57.7536 33.7332 57.6462 33.6948C57.0373 33.4628 56.6584 33.2541 56.3125 32.672C56.3209 32.2529 56.3804 31.9896 56.5864 31.6261C57.0705 31.345 57.6645 31.4177 58.1934 31.5467Z" fill="white"/>
<path d="M63.2104 12.7666C63.4513 13.1916 63.5386 13.5986 63.4174 14.0766C63.107 14.494 62.6637 14.6067 62.1894 14.7754C62.0851 14.8139 61.9808 14.8525 61.8733 14.8922C61.6465 14.9757 61.4195 15.0584 61.1922 15.1405C60.8121 15.2793 60.4347 15.424 60.0572 15.5697C59.7996 15.6675 59.5419 15.7652 59.2842 15.8628C59.1632 15.9099 59.0422 15.9569 58.9175 16.0054C58.1937 16.2742 57.617 16.4142 56.8437 16.336C56.5034 16.0537 56.5034 16.0537 56.3125 15.6719C56.3042 15.2652 56.3042 15.2652 56.4453 14.875C56.9653 14.3752 57.5172 14.1525 58.1828 13.9142C58.2854 13.8766 58.3881 13.8391 58.4939 13.8004C58.7103 13.7216 58.927 13.6435 59.1439 13.566C59.4734 13.4479 59.8018 13.3266 60.1301 13.205C60.3414 13.1286 60.5528 13.0523 60.7643 12.9762C60.8613 12.9401 60.9583 12.904 61.0583 12.8668C61.7296 12.6309 62.5539 12.3854 63.2104 12.7666Z" fill="white"/>
<path d="M58.9412 22.9249C59.0702 22.9237 59.1991 22.9224 59.332 22.9211C59.5406 22.9224 59.5406 22.9224 59.7534 22.9236C59.9678 22.923 59.9678 22.923 60.1865 22.9224C60.4888 22.9222 60.7912 22.9229 61.0935 22.9246C61.557 22.9267 62.0203 22.9246 62.4838 22.922C62.7773 22.9223 63.0707 22.9228 63.3642 22.9236C63.5032 22.9228 63.6423 22.922 63.7855 22.9211C63.979 22.923 63.979 22.923 64.1764 22.9249C64.2899 22.9253 64.4034 22.9256 64.5204 22.9259C64.8763 22.9875 64.9938 23.0917 65.2111 23.3749C65.264 23.6323 65.264 23.6323 65.2609 23.9062C65.2625 24.0418 65.2625 24.0418 65.264 24.1801C65.1944 24.5189 65.0827 24.6224 64.8127 24.8359C64.5204 24.8865 64.5204 24.8865 64.1764 24.8874C64.0474 24.8887 63.9184 24.8899 63.7855 24.8912C63.6465 24.8904 63.5075 24.8896 63.3642 24.8888C63.1498 24.8894 63.1498 24.8894 62.931 24.89C62.6287 24.8902 62.3264 24.8895 62.0241 24.8878C61.5606 24.8857 61.0972 24.8878 60.6338 24.8904C60.3403 24.8901 60.0468 24.8896 59.7534 24.8888C59.5448 24.89 59.5448 24.89 59.332 24.8912C59.1385 24.8894 59.1385 24.8894 58.9412 24.8874C58.7709 24.887 58.7709 24.887 58.5972 24.8865C58.2413 24.8249 58.1238 24.7207 57.9064 24.4374C57.8535 24.1801 57.8535 24.1801 57.8566 23.9062C57.8556 23.8158 57.8546 23.7254 57.8535 23.6323C57.9782 23.026 58.378 22.9265 58.9412 22.9249Z" fill="white"/>
<path d="M3.82399 22.9249C3.95297 22.9237 4.08194 22.9224 4.21482 22.9211C4.42339 22.9224 4.42339 22.9224 4.63617 22.9236C4.85058 22.923 4.85058 22.923 5.06932 22.9224C5.37164 22.9222 5.67397 22.9229 5.97629 22.9246C6.43978 22.9267 6.90312 22.9246 7.36661 22.922C7.66008 22.9223 7.95354 22.9228 8.24701 22.9236C8.38605 22.9228 8.5251 22.922 8.66835 22.9211C8.86182 22.923 8.86182 22.923 9.05919 22.9249C9.17271 22.9253 9.28624 22.9256 9.4032 22.9259C9.75907 22.9875 9.87657 23.0917 10.0939 23.3749C10.1469 23.6323 10.1469 23.6323 10.1437 23.9062C10.1453 24.0418 10.1453 24.0418 10.1469 24.1801C10.0772 24.5189 9.96548 24.6224 9.6955 24.8359C9.4032 24.8865 9.4032 24.8865 9.05919 24.8874C8.93021 24.8887 8.80124 24.8899 8.66835 24.8912C8.52931 24.8904 8.39027 24.8896 8.24701 24.8888C8.0326 24.8894 8.0326 24.8894 7.81386 24.89C7.51154 24.8902 7.20921 24.8895 6.90689 24.8878C6.4434 24.8857 5.98006 24.8878 5.51657 24.8904C5.2231 24.8901 4.92964 24.8896 4.63617 24.8888C4.4276 24.89 4.4276 24.89 4.21482 24.8912C4.02136 24.8894 4.02136 24.8894 3.82399 24.8874C3.6537 24.887 3.6537 24.887 3.47998 24.8865C3.12411 24.8249 3.00661 24.7207 2.78925 24.4374C2.73633 24.1801 2.73633 24.1801 2.73944 23.9062C2.73841 23.8158 2.73739 23.7254 2.73633 23.6323C2.861 23.026 3.26079 22.9265 3.82399 22.9249Z" fill="white"/>
</svg>
